<svg width="100" height="100" viewBox="0 0 100 100" fill="none" xmlns="http://www.w3.org/2000/svg">
<circle cx="50" cy="50" r="48.5" stroke="#00629B" stroke-width="3"/>
<path d="M77 50C77 48.9724 76.167 48.1394 75.1502 48.1394H39.7127L46.6142 41.238C47.3389 40.5132 47.3389 39.3341 46.6142 38.6094C45.8894 37.8846 44.7103 37.8846 43.9856 38.6094L33.9146 48.6803C33.5685 49.0264 33.3738 49.5024 33.3738 49.9892C33.3738 50.476 33.5685 50.9519 33.9146 51.2981L43.9856 61.369C44.3425 61.726 44.8185 61.9099 45.2944 61.9099C45.7704 61.9099 46.2464 61.726 46.6033 61.369C47.3281 60.6442 47.3281 59.4651 46.6033 58.7404L39.7019 51.8389H75.1394C76.167 51.8498 77 51.0276 77 50Z" fill="#00629B"/>
<path d="M34.1202 76.4592H64.8089C70.9423 76.4592 75.9183 71.4724 75.9183 65.3498V59.0433C75.9183 58.0157 75.0853 57.1935 74.0685 57.1935C73.0409 57.1935 72.2079 58.0265 72.2079 59.0433V65.3498C72.2079 69.4279 68.887 72.7488 64.8089 72.7488H34.1202C30.0421 72.7488 26.7212 69.4279 26.7212 65.3498V34.6503C26.7212 30.5721 30.0421 27.2512 34.1202 27.2512H64.8089C68.887 27.2512 72.2079 30.5721 72.2079 34.6503V40.881C72.2079 41.9087 73.0409 42.7416 74.0685 42.7416C75.0962 42.7416 75.9183 41.9087 75.9183 40.881V34.6503C75.9183 28.5169 70.9315 23.5409 64.8089 23.5409H34.1202C27.9868 23.5409 23 28.5277 23 34.6503V65.339C23 71.4724 27.9868 76.4592 34.1202 76.4592Z" fill="#00629B"/>
</svg>
