<svg width="100" height="100" viewBox="0 0 100 100" fill="none" xmlns="http://www.w3.org/2000/svg">
<circle cx="50" cy="50" r="48.5" stroke="#00629B" stroke-width="3"/>
<path d="M58.6188 19H27.3511C26.0525 19 25 20.0525 25 21.3511V74.485C25 75.7836 26.0525 76.8361 27.3511 76.8361H67.7865C69.0847 76.8361 70.1376 75.7836 70.1376 74.485V30.5188L58.6188 19Z" fill="#00629B"/>
<path d="M36.5188 76.8361H67.7865C69.0847 76.8361 70.1376 75.7836 70.1376 74.485L70.1376 21.3511C70.1376 20.0525 69.0851 19 67.7865 19L27.3511 19C26.0525 19 25 20.0525 25 21.3511L25 65.3173L36.5188 76.8361Z" fill="#00629B"/>
<path d="M63.0443 23.4255H31.7766C30.478 23.4255 29.4255 24.478 29.4255 25.7766V78.9105C29.4255 80.2091 30.478 81.2616 31.7766 81.2616H72.2121C73.5102 81.2616 74.5631 80.2091 74.5631 78.9105V34.9444L63.0443 23.4255Z" fill="#99E1F3"/>
<path d="M65.3955 34.9443H74.5628L63.0444 23.4259V32.5932C63.0444 33.8918 64.0969 34.9443 65.3955 34.9443Z" fill="#00629B"/>
<path d="M46.083 55.2581H35.5037C34.8548 55.2581 34.3281 55.7843 34.3281 56.4336C34.3281 57.0829 34.8548 57.6091 35.5037 57.6091H46.083C46.7323 57.6091 47.2585 57.0829 47.2585 56.4336C47.2585 55.7843 46.7323 55.2581 46.083 55.2581Z" fill="#00629B"/>
<path d="M46.7796 47.1079H35.5037C34.8548 47.1079 34.3281 47.6341 34.3281 48.2834C34.3281 48.9323 34.8548 49.459 35.5037 49.459H46.7796C47.4289 49.459 47.9551 48.9323 47.9551 48.2834C47.9551 47.6341 47.4289 47.1079 46.7796 47.1079Z" fill="#00629B"/>
<path d="M50.585 71.559C50.2755 71.559 49.9724 71.6843 49.7538 71.9034C49.5352 72.1219 49.4094 72.425 49.4094 72.7345C49.4094 73.0435 49.5352 73.3471 49.7538 73.5652C49.9724 73.7842 50.2755 73.91 50.585 73.91C50.894 73.91 51.1975 73.7842 51.417 73.5652C51.6356 73.3471 51.7605 73.0435 51.7605 72.7345C51.7605 72.425 51.6356 72.1219 51.417 71.9034C51.1975 71.6843 50.894 71.559 50.585 71.559Z" fill="#00629B"/>
<path d="M45.4695 71.559H35.5037C34.8548 71.559 34.3281 72.0852 34.3281 72.7345C34.3281 73.3833 34.8548 73.91 35.5037 73.91H45.4695C46.1183 73.91 46.645 73.3833 46.645 72.7345C46.645 72.0852 46.1188 71.559 45.4695 71.559Z" fill="#00629B"/>
<path d="M35.5037 41.3087C35.8141 41.3087 36.1162 41.1829 36.3348 40.9643C36.5547 40.7444 36.6792 40.4427 36.6792 40.1332C36.6792 39.8241 36.5547 39.5211 36.3348 39.3011C36.1162 39.0825 35.8127 38.9576 35.5037 38.9576C35.1946 38.9576 34.8925 39.0825 34.6725 39.3011C34.4539 39.5197 34.3281 39.8228 34.3281 40.1332C34.3281 40.4427 34.4539 40.7457 34.6725 40.9643C34.8916 41.1829 35.1946 41.3087 35.5037 41.3087Z" fill="#00629B"/>
<path d="M58.3435 38.9576H40.7739C40.1251 38.9576 39.5984 39.4839 39.5984 40.1332C39.5984 40.782 40.1251 41.3087 40.7739 41.3087H58.3435C58.9928 41.3087 59.519 40.782 59.519 40.1332C59.519 39.4839 58.9928 38.9576 58.3435 38.9576Z" fill="#00629B"/>
<path d="M35.5037 33.1581H58.0559C58.7052 33.1581 59.2314 32.6318 59.2314 31.9825C59.2314 31.3332 58.7052 30.807 58.0559 30.807H35.5037C34.8548 30.807 34.3281 31.3332 34.3281 31.9825C34.3281 32.6318 34.8548 33.1581 35.5037 33.1581Z" fill="#00629B"/>
<path d="M35.5037 66.201H58.0559C58.7052 66.201 59.2314 65.6748 59.2314 65.0255C59.2314 64.3762 58.7052 63.85 58.0559 63.85H35.5037C34.8548 63.85 34.3281 64.3762 34.3281 65.0255C34.3281 65.6748 34.8548 66.201 35.5037 66.201Z" fill="#00629B"/>
<path d="M90.4476 48.3755L72.5696 66.254L66.1814 59.8658L84.0599 42L90.4476 48.3755Z" fill="#00629B"/>
<path d="M72.5696 66.2541L63 69.4355L66.1814 59.8658L72.5696 66.2541Z" fill="white"/>
</svg>
