<svg width="100" height="100" viewBox="0 0 100 100" fill="none" xmlns="http://www.w3.org/2000/svg">
<circle cx="50" cy="50" r="48.5" stroke="#00629B" stroke-width="3"/>
<path d="M58.6188 19H27.3511C26.0525 19 25 20.0525 25 21.3511V74.485C25 75.7836 26.0525 76.8361 27.3511 76.8361H67.7865C69.0847 76.8361 70.1376 75.7836 70.1376 74.485V30.5188L58.6188 19Z" fill="#00629B"/>
<path d="M36.5188 76.8361H67.7865C69.0847 76.8361 70.1376 75.7836 70.1376 74.485L70.1376 21.3511C70.1376 20.0525 69.0851 19 67.7865 19L27.3511 19C26.0525 19 25 20.0525 25 21.3511L25 65.3173L36.5188 76.8361Z" fill="#00629B"/>
<path d="M63.0443 23.4255H31.7766C30.478 23.4255 29.4255 24.478 29.4255 25.7766V78.9105C29.4255 80.2091 30.478 81.2616 31.7766 81.2616H72.2121C73.5102 81.2616 74.5631 80.2091 74.5631 78.9105V34.9444L63.0443 23.4255Z" fill="#99E1F3"/>
<path d="M65.3955 34.9443H74.5628L63.0444 23.4259V32.5932C63.0444 33.8918 64.0969 34.9443 65.3955 34.9443Z" fill="#00629B"/>
<path d="M46.083 55.2581H35.5037C34.8548 55.2581 34.3281 55.7843 34.3281 56.4336C34.3281 57.0829 34.8548 57.6091 35.5037 57.6091H46.083C46.7323 57.6091 47.2585 57.0829 47.2585 56.4336C47.2585 55.7843 46.7323 55.2581 46.083 55.2581Z" fill="#00629B"/>
<path d="M46.7796 47.1079H35.5037C34.8548 47.1079 34.3281 47.6341 34.3281 48.2834C34.3281 48.9323 34.8548 49.459 35.5037 49.459H46.7796C47.4289 49.459 47.9551 48.9323 47.9551 48.2834C47.9551 47.6341 47.4289 47.1079 46.7796 47.1079Z" fill="#00629B"/>
<path d="M50.585 71.559C50.2755 71.559 49.9724 71.6843 49.7538 71.9034C49.5352 72.1219 49.4094 72.425 49.4094 72.7345C49.4094 73.0435 49.5352 73.3471 49.7538 73.5652C49.9724 73.7842 50.2755 73.91 50.585 73.91C50.894 73.91 51.1975 73.7842 51.417 73.5652C51.6356 73.3471 51.7605 73.0435 51.7605 72.7345C51.7605 72.425 51.6356 72.1219 51.417 71.9034C51.1975 71.6843 50.894 71.559 50.585 71.559Z" fill="#00629B"/>
<path d="M45.4695 71.559H35.5037C34.8548 71.559 34.3281 72.0852 34.3281 72.7345C34.3281 73.3833 34.8548 73.91 35.5037 73.91H45.4695C46.1183 73.91 46.645 73.3833 46.645 72.7345C46.645 72.0852 46.1188 71.559 45.4695 71.559Z" fill="#00629B"/>
<path d="M35.5037 41.3087C35.8141 41.3087 36.1162 41.1829 36.3348 40.9643C36.5547 40.7444 36.6792 40.4427 36.6792 40.1332C36.6792 39.8241 36.5547 39.5211 36.3348 39.3011C36.1162 39.0825 35.8127 38.9576 35.5037 38.9576C35.1946 38.9576 34.8925 39.0825 34.6725 39.3011C34.4539 39.5197 34.3281 39.8228 34.3281 40.1332C34.3281 40.4427 34.4539 40.7457 34.6725 40.9643C34.8916 41.1829 35.1946 41.3087 35.5037 41.3087Z" fill="#00629B"/>
<path d="M58.3435 38.9576H40.7739C40.1251 38.9576 39.5984 39.4839 39.5984 40.1332C39.5984 40.782 40.1251 41.3087 40.7739 41.3087H58.3435C58.9928 41.3087 59.519 40.782 59.519 40.1332C59.519 39.4839 58.9928 38.9576 58.3435 38.9576Z" fill="#00629B"/>
<path d="M35.5037 33.1581H58.0559C58.7052 33.1581 59.2314 32.6318 59.2314 31.9825C59.2314 31.3332 58.7052 30.807 58.0559 30.807H35.5037C34.8548 30.807 34.3281 31.3332 34.3281 31.9825C34.3281 32.6318 34.8548 33.1581 35.5037 33.1581Z" fill="#00629B"/>
<path d="M35.5037 66.201H58.0559C58.7052 66.201 59.2314 65.6748 59.2314 65.0255C59.2314 64.3762 58.7052 63.85 58.0559 63.85H35.5037C34.8548 63.85 34.3281 64.3762 34.3281 65.0255C34.3281 65.6748 34.8548 66.201 35.5037 66.201Z" fill="#00629B"/>
<path d="M68.4934 62.8183L76.663 70.9879C77.5813 71.9062 79.0696 71.9062 79.9875 70.9879C80.9058 70.0699 80.9058 68.5817 79.9875 67.6634L71.8179 59.4938L68.4934 62.8183Z" fill="#00629B"/>
<path d="M73.5973 52.7987C73.5973 59.3148 68.3148 64.5973 61.7987 64.5973C55.2825 64.5973 50 59.3148 50 52.7987C50 46.2825 55.2825 41 61.7987 41C68.3148 41 73.5973 46.2825 73.5973 52.7987Z" fill="white"/>
<path d="M69.5077 52.9374C69.5077 57.173 66.0741 60.6066 61.8386 60.6066C57.603 60.6066 54.1694 57.173 54.1694 52.9374C54.1694 48.7019 57.603 45.2683 61.8386 45.2683C66.0741 45.2683 69.5077 48.7019 69.5077 52.9374Z" fill="#CCF1FF"/>
<path d="M61.7986 44.1464C57.0277 44.1464 53.1462 48.0278 53.1462 52.7987C53.1462 57.5697 57.0277 61.4511 61.7986 61.4511C66.5695 61.4511 70.451 57.5697 70.451 52.7987C70.451 48.0278 66.5695 44.1464 61.7986 44.1464ZM61.7986 59.4846C58.1119 59.4846 55.1127 56.4854 55.1127 52.7987C55.1127 49.112 58.1119 46.1128 61.7986 46.1128C65.4853 46.1128 68.4845 49.112 68.4845 52.7987C68.4845 56.4854 65.4853 59.4846 61.7986 59.4846Z" fill="#00629B"/>
<path d="M61.7987 48.3745C61.2556 48.3745 60.8154 48.8147 60.8154 49.3577C60.8154 49.9008 61.2556 50.341 61.7987 50.341C63.1537 50.341 64.2563 51.4436 64.2563 52.7986C64.2563 53.3417 64.6965 53.7819 65.2395 53.7819C65.7826 53.7819 66.2228 53.3417 66.2228 52.7986C66.2228 50.359 64.2383 48.3745 61.7987 48.3745V48.3745Z" fill="#00629B"/>
</svg>
