<svg width="100" height="100" viewBox="0 0 100 100" fill="none" xmlns="http://www.w3.org/2000/svg">
<circle cx="50" cy="50" r="48.5" stroke="#00629B" stroke-width="3"/>
<path d="M58.6188 19H27.3511C26.0525 19 25 20.0525 25 21.3511V74.485C25 75.7836 26.0525 76.8361 27.3511 76.8361H67.7865C69.0847 76.8361 70.1376 75.7836 70.1376 74.485V30.5188L58.6188 19Z" fill="#00629B"/>
<path d="M36.5188 76.8361H67.7865C69.0847 76.8361 70.1376 75.7836 70.1376 74.485L70.1376 21.3511C70.1376 20.0525 69.0851 19 67.7865 19L27.3511 19C26.0525 19 25 20.0525 25 21.3511L25 65.3173L36.5188 76.8361Z" fill="#00629B"/>
<path d="M63.0443 23.4255H31.7766C30.478 23.4255 29.4255 24.478 29.4255 25.7766V78.9105C29.4255 80.2091 30.478 81.2616 31.7766 81.2616H72.2121C73.5102 81.2616 74.5631 80.2091 74.5631 78.9105V34.9444L63.0443 23.4255Z" fill="#99E1F3"/>
<path d="M65.3955 34.9443H74.5628L63.0444 23.4259V32.5932C63.0444 33.8918 64.0969 34.9443 65.3955 34.9443Z" fill="#00629B"/>
<path d="M46.083 55.2581H35.5037C34.8548 55.2581 34.3281 55.7843 34.3281 56.4336C34.3281 57.0829 34.8548 57.6091 35.5037 57.6091H46.083C46.7323 57.6091 47.2585 57.0829 47.2585 56.4336C47.2585 55.7843 46.7323 55.2581 46.083 55.2581Z" fill="#00629B"/>
<path d="M46.7796 47.1079H35.5037C34.8548 47.1079 34.3281 47.6341 34.3281 48.2834C34.3281 48.9323 34.8548 49.459 35.5037 49.459H46.7796C47.4289 49.459 47.9551 48.9323 47.9551 48.2834C47.9551 47.6341 47.4289 47.1079 46.7796 47.1079Z" fill="#00629B"/>
<path d="M50.585 71.559C50.2755 71.559 49.9724 71.6843 49.7538 71.9034C49.5352 72.1219 49.4094 72.425 49.4094 72.7345C49.4094 73.0435 49.5352 73.3471 49.7538 73.5652C49.9724 73.7842 50.2755 73.91 50.585 73.91C50.894 73.91 51.1975 73.7842 51.417 73.5652C51.6356 73.3471 51.7605 73.0435 51.7605 72.7345C51.7605 72.425 51.6356 72.1219 51.417 71.9034C51.1975 71.6843 50.894 71.559 50.585 71.559Z" fill="#00629B"/>
<path d="M45.4695 71.559H35.5037C34.8548 71.559 34.3281 72.0852 34.3281 72.7345C34.3281 73.3833 34.8548 73.91 35.5037 73.91H45.4695C46.1183 73.91 46.645 73.3833 46.645 72.7345C46.645 72.0852 46.1188 71.559 45.4695 71.559Z" fill="#00629B"/>
<path d="M35.5037 41.3087C35.8141 41.3087 36.1162 41.1829 36.3348 40.9643C36.5547 40.7444 36.6792 40.4427 36.6792 40.1332C36.6792 39.8241 36.5547 39.5211 36.3348 39.3011C36.1162 39.0825 35.8127 38.9576 35.5037 38.9576C35.1946 38.9576 34.8925 39.0825 34.6725 39.3011C34.4539 39.5197 34.3281 39.8228 34.3281 40.1332C34.3281 40.4427 34.4539 40.7457 34.6725 40.9643C34.8916 41.1829 35.1946 41.3087 35.5037 41.3087Z" fill="#00629B"/>
<path d="M58.3435 38.9576H40.7739C40.1251 38.9576 39.5984 39.4839 39.5984 40.1332C39.5984 40.782 40.1251 41.3087 40.7739 41.3087H58.3435C58.9928 41.3087 59.519 40.782 59.519 40.1332C59.519 39.4839 58.9928 38.9576 58.3435 38.9576Z" fill="#00629B"/>
<path d="M35.5037 33.1581H58.0559C58.7052 33.1581 59.2314 32.6318 59.2314 31.9825C59.2314 31.3332 58.7052 30.807 58.0559 30.807H35.5037C34.8548 30.807 34.3281 31.3332 34.3281 31.9825C34.3281 32.6318 34.8548 33.1581 35.5037 33.1581Z" fill="#00629B"/>
<path d="M35.5037 66.201H58.0559C58.7052 66.201 59.2314 65.6748 59.2314 65.0255C59.2314 64.3762 58.7052 63.85 58.0559 63.85H35.5037C34.8548 63.85 34.3281 64.3762 34.3281 65.0255C34.3281 65.6748 34.8548 66.201 35.5037 66.201Z" fill="#00629B"/>
<path d="M72.0203 59.1661C71.3763 59.059 70.7129 59 70.0338 59C63.3877 59 58 64.3877 58 71.0343C58 74.0292 59.0976 76.7683 60.9073 78.8732C63.1125 81.4385 66.3817 83.0682 70.0338 83.0682C76.6804 83.0682 82.0681 77.6805 82.0681 71.0343C82.0681 65.0636 77.7208 60.1139 72.0204 59.1661L71.8564 60.1523L72.0203 59.1661Z" fill="#CCF1FF" stroke="#00629B" stroke-width="2"/>
<path d="M77.3599 70.901C77.1773 70.8379 76.9723 70.8952 76.8501 71.047L75.0168 73.3386C74.8588 73.5364 74.891 73.8247 75.0884 73.9831C75.2867 74.1416 75.5745 74.1085 75.7329 73.9115L76.5632 72.8736C75.8713 75.6701 73.3406 77.7501 70.3332 77.7501C67.9507 77.7501 65.7767 76.4386 64.66 74.3274C64.5409 74.1036 64.2643 74.0181 64.0405 74.1367C63.8167 74.2548 63.7312 74.5323 63.8498 74.7561C65.1259 77.1682 67.61 78.6667 70.3331 78.6667C74.3767 78.6667 77.6665 75.3769 77.6665 71.3334C77.6665 71.1387 77.5434 70.9655 77.3599 70.901Z" fill="#00629B"/>
<path d="M65.6497 69.3281C65.8077 69.1303 65.7755 68.842 65.5781 68.6836C65.3807 68.526 65.0924 68.5592 64.9336 68.7552L64.1033 69.7932C64.7952 66.9966 67.3259 64.9167 70.3333 64.9167C72.7158 64.9167 74.8898 66.2281 76.0065 68.3394C76.1251 68.5632 76.4008 68.6487 76.626 68.5301C76.8498 68.4119 76.9353 68.1344 76.8167 67.9106C75.5406 65.4985 73.0565 64 70.3333 64C66.2898 64 63 67.2898 63 71.3333C63 71.528 63.1231 71.7013 63.3066 71.7657C63.3563 71.7832 63.4077 71.7917 63.4583 71.7917C63.5948 71.7917 63.7273 71.7304 63.8164 71.6198L65.6497 69.3281Z" fill="#00629B"/>
</svg>
