<svg height="402pt" viewBox="-22 0 402 402.77738" width="402pt" xmlns="http://www.w3.org/2000/svg"><path d="m296.851562 402.777344c-3.773437 0-6.828124-3.054688-6.828124-6.828125v-88.746094c0-16.050781 5.914062-31.539063 16.65625-43.613281 26.292968-29.546875 39.710937-67.652344 37.773437-107.285156-3.695313-75.558594-63.300781-136.707032-138.65625-142.234376-41.058594-2.992187-80.566406 10.332032-111.144531 37.554688-30.640625 27.277344-48.472656 64.816406-50.222656 105.699219-.050782 1.207031-.417969 2.359375-1.050782 3.359375l-29.027344 81.269531c-.699218 1.957031-.082031 3.566406.351563 4.34375.433594.78125 1.460937 2.160156 3.488281 2.609375l32.046875 7.117188c2.859375.640624 4.992188 3.027343 5.304688 5.941406l8 74.644531c.296875 2.695313 2.554687 4.726563 5.269531 4.726563h64.199219c3.773437 0 6.824219 3.054687 6.824219 6.828124v47.785157c0 3.773437-3.050782 6.828125-6.824219 6.828125-3.773438 0-6.828125-3.054688-6.828125-6.828125v-40.957031h-57.375c-9.707032 0-17.804688-7.273438-18.839844-16.929688l-7.480469-69.773438-27.257812-6.050781c-5.300781-1.179687-9.855469-4.582031-12.480469-9.34375-2.628906-4.75-3.085938-10.417969-1.253906-15.539062l29.375-82.238281c2.300781-43.976563 21.6875-84.296876 54.699218-113.6875 33.359376-29.707032 76.375-44.261719 121.226563-40.972657 82.21875 6.027344 147.261719 72.738281 151.292969 155.179688 2.113281 43.234375-12.527344 84.792969-41.214844 117.03125-8.511719 9.566406-13.199219 21.828125-13.199219 34.535156v88.746094c0 3.773437-3.054687 6.828125-6.824219 6.828125zm0 0"/><path d="m194.449219 286.722656c-11.292969 0-20.476563-9.1875-20.476563-20.480468v-2.03125c-14.59375-2.785157-28.515625-8.554688-40.828125-16.917969l-1.441406 1.445312c-7.992187 7.96875-20.988281 7.996094-28.964844 0-7.988281-7.988281-7.988281-20.980469 0-28.964843l1.4375-1.449219c-8.363281-12.308594-14.132812-26.234375-16.917969-40.828125h-2.035156c-11.292968 0-20.476562-9.1875-20.476562-20.480469s9.183594-20.476563 20.476562-20.476563h2.035156c2.785157-14.59375 8.554688-28.523437 16.917969-40.828124l-1.445312-1.449219c-7.980469-7.984375-7.980469-20.980469.007812-28.964844 7.964844-7.980469 20.964844-7.988281 28.957031-.007813l1.449219 1.453126c12.304688-8.363282 26.234375-14.132813 40.828125-16.917969v-2.035157c0-11.292968 9.183594-20.476562 20.476563-20.476562s20.480469 9.183594 20.480469 20.476562v2.035157c14.59375 2.785156 28.515624 8.554687 40.828124 16.917969l1.441407-1.445313c7.992187-7.96875 20.984375-7.996094 28.964843 0 7.988282 7.984375 7.988282 20.980469 0 28.964844l-1.4375 1.449219c8.363282 12.304687 14.132813 26.234374 16.917969 40.828124h2.03125c11.292969 0 20.480469 9.183594 20.480469 20.476563s-9.1875 20.480469-20.480469 20.480469h-2.03125c-2.785156 14.59375-8.554687 28.519531-16.917969 40.828125l1.445313 1.449219c7.980469 7.984374 7.980469 20.976562-.007813 28.964843-7.964843 7.980469-20.964843 7.988281-28.960937.007813l-1.445313-1.453125c-12.3125 8.363281-26.234374 14.132812-40.828124 16.917969v2.03125c0 11.292968-9.1875 20.480468-20.480469 20.480468zm-62.03125-55.191406c1.453125 0 2.914062.460938 4.140625 1.398438 13.164062 10.046874 28.769531 16.519531 45.144531 18.707031 3.386719.453125 5.921875 3.347656 5.921875 6.765625v7.839844c0 3.769531 3.058594 6.828124 6.824219 6.828124 3.769531 0 6.828125-3.058593 6.828125-6.828124v-7.839844c0-3.417969 2.53125-6.3125 5.921875-6.765625 16.371093-2.1875 31.976562-8.660157 45.144531-18.707031 2.707031-2.074219 6.546875-1.824219 8.972656.601562l5.546875 5.554688c2.65625 2.652343 6.980469 2.652343 9.648438 0 2.660156-2.667969 2.660156-6.996094 0-9.660157l-5.554688-5.554687c-2.414062-2.421875-2.664062-6.253906-.59375-8.972656 10.046875-13.15625 16.519531-28.761719 18.707031-45.132813.453126-3.386719 3.347657-5.921875 6.765626-5.921875h7.839843c3.769531 0 6.828125-3.058594 6.828125-6.828125 0-3.765625-3.058594-6.824219-6.828125-6.824219h-7.839843c-3.417969 0-6.3125-2.535156-6.765626-5.921875-2.1875-16.371093-8.652343-31.980469-18.707031-45.132812-2.074219-2.71875-1.820312-6.554688.59375-8.972657l5.546875-5.554687c2.664063-2.664063 2.664063-6.992187.007813-9.660156-2.65625-2.652344-6.988281-2.660157-9.652344.007812l-5.542969 5.546875c-2.425781 2.414063-6.265625 2.679688-8.972656.601563-13.167969-10.046875-28.773438-16.519531-45.144531-18.707031-3.386719-.453126-5.921875-3.347657-5.921875-6.765626v-7.84375c0-3.765624-3.058594-6.824218-6.828125-6.824218-3.765625 0-6.824219 3.058594-6.824219 6.824218v7.84375c0 3.417969-2.535156 6.3125-5.921875 6.765626-16.375 2.1875-31.980469 8.660156-45.132813 18.707031-2.71875 2.078125-6.546874 1.824219-8.972656-.601563l-5.554687-5.554687c-2.664063-2.652344-6.984375-2.652344-9.652344 0-2.660156 2.667969-2.660156 6.996093 0 9.660156l5.554687 5.554687c2.414063 2.417969 2.664063 6.253907.59375 8.972657-10.054687 13.152343-16.519531 28.761719-18.707031 45.132812-.453125 3.386719-3.347656 5.921875-6.765625 5.921875h-7.84375c-3.765625 0-6.824218 3.058594-6.824218 6.824219 0 3.769531 3.058593 6.828125 6.824218 6.828125h7.84375c3.417969 0 6.3125 2.53125 6.765625 5.921875 2.1875 16.371094 8.660157 31.976563 18.707031 45.132813 2.074219 2.71875 1.820313 6.550781-.59375 8.972656l-5.546874 5.554687c-2.667969 2.664063-2.667969 6.992188-.007813 9.660157 2.652344 2.652343 6.988281 2.660156 9.652344-.007813l5.539062-5.546875c1.328125-1.320312 3.082031-2 4.835938-2zm62.03125-19.902344c-30.113281 0-54.613281-24.496094-54.613281-54.613281 0-30.113281 24.5-54.613281 54.613281-54.613281 30.117187 0 54.613281 24.5 54.613281 54.613281 0 30.117187-24.5 54.613281-54.613281 54.613281zm0-95.570312c-22.585938 0-40.957031 18.371094-40.957031 40.957031s18.371093 40.960937 40.957031 40.960937c22.585937 0 40.960937-18.375 40.960937-40.960937s-18.375-40.957031-40.960937-40.957031zm0 0"/><path d="m119.359375 163.84375c-3.773437 0-6.828125-3.054688-6.828125-6.828125 0-45.171875 36.746094-81.917969 81.917969-81.917969 3.773437 0 6.828125 3.054688 6.828125 6.828125 0 3.773438-3.054688 6.824219-6.828125 6.824219-37.640625 0-68.265625 30.625-68.265625 68.265625 0 3.773437-3.054688 6.828125-6.824219 6.828125zm0 0"/></svg>