<svg width="100" height="100" viewBox="0 0 100 100" fill="none" xmlns="http://www.w3.org/2000/svg">
<circle cx="50" cy="50" r="48.5" stroke="#00629B" stroke-width="3"/>
<path d="M74.608 38.1426L70.2738 35.8311L76.4114 29.6935C77.0203 29.0852 77.3549 28.2762 77.3549 27.4153C77.3549 25.6386 75.9099 24.1935 74.1332 24.1935C73.2849 24.1935 72.4547 24.5373 71.8549 25.1371L68.0646 28.9274V18H22.6453V82H68.0646V74.7742H76.3227V66.5161H74.2582V62.2097C74.2582 61.7833 74.3439 61.3684 74.5112 60.9758L76.9361 55.3201C77.2133 54.6688 77.3549 53.9803 77.3549 53.2742V42.7248C77.3549 41.9214 77.1649 41.1174 76.8071 40.4012C76.3217 39.433 75.5621 38.6512 74.608 38.1426ZM73.3146 26.5968C73.5303 26.3821 73.8287 26.2581 74.1332 26.2581C74.7713 26.2581 75.2904 26.7772 75.2904 27.4153C75.2904 27.7248 75.1705 28.0151 74.9517 28.2339L63.7279 39.4577C63.2204 38.8579 62.5939 38.3654 61.865 38.0464L73.3146 26.5968ZM64.7461 41.3589L65.171 40.9335L69.5581 43.127C69.9104 43.3029 70.1291 43.6568 70.1291 44.0499C70.1291 45.1462 69.9537 46.2313 69.607 47.2717L68.8015 49.687C68.5334 50.4924 67.7829 51.0323 66.9341 51.0323C65.8494 51.0323 64.9678 50.1497 64.9678 49.065V42.7742C64.9678 42.2797 64.8761 41.812 64.7461 41.3589ZM57.742 45.4435L53.0843 50.1003L50.9023 50.6452L51.4482 48.4632L57.742 42.1694V45.4435ZM40.1937 58.2056C34.985 57.686 30.9033 53.2782 30.9033 47.9355C30.9033 42.5927 34.985 38.185 40.1937 37.6653V58.2056ZM49.1942 48.9677H42.2582V37.6552C46.6246 38.0156 50.4658 40.6497 52.3786 44.6139L49.5843 47.4078L49.1942 48.9677ZM42.2582 51.0323H48.678L48.0656 53.4839L53.4179 52.1452C52.4557 57.6245 47.8892 61.877 42.2582 62.3437V51.0323ZM60.6357 36.3569L58.5419 35.31C58.0485 35.063 57.742 34.5675 57.742 34.0176V33.8967C57.742 33.0998 58.3902 32.4516 59.1871 32.4516C59.4235 32.4516 59.6579 32.5106 59.8665 32.622L62.803 34.188L60.6357 36.3569ZM74.2582 72.7097H68.0646C66.926 72.7097 66.0001 73.6356 66.0001 74.7742V79.9355H24.7098V20.0645H66.0001V30.9919L64.3297 32.6623L60.8378 30.7999C60.3307 30.5297 59.7602 30.3871 59.1871 30.3871C57.2516 30.3871 55.6775 31.9612 55.6775 33.8967V34.0176C55.6775 35.3553 56.422 36.558 57.618 37.1578L58.9331 37.815C58.3781 38.0776 57.9598 38.5771 57.8091 39.185L53.9094 43.0847C51.3938 38.4647 46.5697 35.5484 41.2259 35.5484H40.1937V35.6008C33.8454 36.1285 28.8388 41.4541 28.8388 47.9355C28.8388 54.4168 33.8454 59.7424 40.1937 60.2702V64.4516H41.2259C49.0419 64.4516 55.4134 58.2097 55.6548 50.4511L57.742 48.3629V53.0227C57.742 53.9244 57.9784 54.8155 58.4265 55.6008L61.4593 60.9057C61.7274 61.3795 61.8711 61.9163 61.8711 62.4602V66.5161H59.8066V74.7742H63.9356V72.7097H61.8711V68.5806H74.2582V72.7097ZM75.2904 53.2742C75.2904 53.7006 75.2047 54.1154 75.0374 54.5081L72.6125 60.1638C72.3353 60.815 72.1936 61.5035 72.1936 62.2097V66.5161H63.9356V62.4602C63.9356 61.558 63.6992 60.6673 63.2511 59.8821L60.2183 54.5771C59.9502 54.1043 59.8066 53.5675 59.8066 53.0237V39.6774C61.5137 39.6774 62.9033 41.067 62.9033 42.7742V49.065C62.9033 51.2883 64.7118 53.0968 66.9341 53.0968C68.6725 53.0968 70.2098 51.9889 70.7587 50.3407L71.5651 47.9254C71.982 46.6719 72.1936 45.3684 72.1936 44.0499C72.1936 42.869 71.5369 41.809 70.482 41.2807L66.7103 39.3947L68.7481 37.3569L73.6357 39.9632C74.2108 40.2702 74.6679 40.7404 74.9603 41.3251C75.177 41.7566 75.2904 42.2404 75.2904 42.7248V53.2742Z" fill="#00629B"/>
<path d="M44.3225 54.129H46.387V56.1935H44.3225V54.129Z" fill="#00629B"/>
<path d="M48.4517 54.129H50.5162V56.1935H48.4517V54.129Z" fill="#00629B"/>
<path d="M32.9678 44.8387H38.1291V46.9032H32.9678V44.8387Z" fill="#00629B"/>
<path d="M32.9678 48.9677H38.1291V51.0322H32.9678V48.9677Z" fill="#00629B"/>
<path d="M41.2258 70.6452H39.1613V75.8064H37.0968V68.5806H35.0322V75.8064H32.9677V65.4839H30.9032V75.8064H28.8387V62.3871H26.7742V77.871H43.2903V75.8064H41.2258V70.6452Z" fill="#00629B"/>
<path d="M52.5807 66.5161H54.2178L51.5484 69.1855L49.4839 67.121L43.5928 73.0121L45.0525 74.4718L49.4839 70.0403L51.5484 72.1048L55.6775 67.9758V69.6129H57.742V64.4516H52.5807V66.5161Z" fill="#00629B"/>
<path d="M26.7742 22.129H28.8387V24.1935H26.7742V22.129Z" fill="#00629B"/>
<path d="M30.9033 22.129H45.3549V24.1935H30.9033V22.129Z" fill="#00629B"/>
<path d="M26.7742 26.2581H28.8387V28.3226H26.7742V26.2581Z" fill="#00629B"/>
<path d="M30.9033 26.2581H45.3549V28.3226H30.9033V26.2581Z" fill="#00629B"/>
<path d="M26.7742 30.3871H28.8387V32.4516H26.7742V30.3871Z" fill="#00629B"/>
<path d="M30.9033 30.3871H45.3549V32.4516H30.9033V30.3871Z" fill="#00629B"/>
<path d="M53.6128 22.129H55.6773V24.1935H53.6128V22.129Z" fill="#00629B"/>
<path d="M57.7419 22.129H59.8065V24.1935H57.7419V22.129Z" fill="#00629B"/>
<path d="M61.8708 22.129H63.9354V24.1935H61.8708V22.129Z" fill="#00629B"/>
</svg>
