<svg width="100" height="100" viewBox="0 0 100 100" fill="none" xmlns="http://www.w3.org/2000/svg">
<path d="M48.9513 51.0496C44.2281 46.3265 36.5418 46.3265 31.8185 51.0496L25.0154 57.8527C20.2921 62.576 20.2921 70.2624 25.0154 74.9855C29.7385 79.7088 37.4249 79.7088 42.1481 74.9855L48.9513 68.1824C53.6745 63.4591 53.6745 55.7727 48.9513 51.0496V51.0496ZM28.5929 71.408C25.8473 68.656 25.8473 64.1824 28.5929 61.4304L35.3961 54.6271C38.1481 51.8816 42.6218 51.8816 45.3673 54.6271C48.1193 57.3791 48.1193 61.8527 45.3673 64.6048L38.5705 71.408C35.8185 74.1537 31.3449 74.1537 28.5929 71.408V71.408Z" fill="#00629B"/>
<path d="M74.98 25.0144C70.2568 20.2912 62.5704 20.2912 57.8472 25.0144L51.0504 31.8176C46.3208 36.5409 46.3208 44.2271 51.0504 48.9504C55.7736 53.6737 63.46 53.6737 68.1832 48.9504L74.98 42.1537C79.7096 37.4304 79.7096 29.744 74.98 25.0144V25.0144ZM54.628 45.3727C51.876 42.6208 51.876 38.1471 54.628 35.3952L61.4312 28.5984C64.1768 25.8465 68.6504 25.8465 71.4024 28.5984C74.1544 31.344 74.1544 35.824 71.4024 38.5696L64.5991 45.3727C61.8536 48.1248 57.38 48.1248 54.628 45.3727V45.3727Z" fill="#00629B"/>
<path d="M57.6744 46.6144L46.6088 57.6737C45.4248 58.8576 43.5112 58.8576 42.3272 57.6737C41.1432 56.4896 41.1432 54.576 42.3272 53.3919L53.3863 42.3265C54.5704 41.1488 56.4904 41.1488 57.6744 42.3265C58.852 43.5104 58.852 45.4304 57.6744 46.6144V46.6144Z" fill="#00B5E2"/>
<path d="M39.0668 39.071C38.7477 39.3901 38.2312 39.3898 37.9124 39.071L33.745 34.9037C33.4263 34.5849 33.426 34.0683 33.745 33.7493C34.0641 33.4303 34.5806 33.4306 34.8994 33.7493L39.0668 37.9167C39.3855 38.2354 39.3858 38.752 39.0668 39.071Z" fill="#00B5E2" fill-opacity="0.2"/>
<path d="M43.8312 36.885C43.3857 36.9564 42.9674 36.6534 42.896 36.2083L41.9628 30.3891C41.8914 29.944 42.194 29.5253 42.6395 29.4539C43.085 29.3824 43.5034 29.6855 43.5747 30.1306L44.5079 35.9498C44.5793 36.3949 44.2767 36.8135 43.8312 36.885V36.885Z" fill="#00B5E2" fill-opacity="0.2"/>
<path d="M36.8808 43.8352C36.9522 43.3898 36.6491 42.9714 36.2041 42.9L30.3848 41.9668C29.9398 41.8955 29.5211 42.1981 29.4496 42.6436C29.3782 43.089 29.6813 43.5074 30.1264 43.5788L35.9456 44.512C36.3907 44.5833 36.8093 44.2807 36.8808 43.8352Z" fill="#00B5E2" fill-opacity="0.2"/>
<path d="M60.9296 60.9337C61.2486 60.6147 61.7652 60.615 62.084 60.9337L66.2513 65.1011C66.5701 65.4199 66.5704 65.9364 66.2513 66.2555C65.9323 66.5745 65.4157 66.5742 65.097 66.2555L60.9296 62.0881C60.6108 61.7694 60.6106 61.2528 60.9296 60.9337V60.9337Z" fill="#00B5E2" fill-opacity="0.2"/>
<path d="M56.1654 63.1198C56.6109 63.0484 57.0292 63.3514 57.1006 63.7965L58.0338 69.6157C58.1052 70.0608 57.8026 70.4795 57.3571 70.5509C56.9116 70.6224 56.4933 70.3193 56.4219 69.8742L55.4887 64.055C55.4173 63.6099 55.7199 63.1912 56.1654 63.1198Z" fill="#00B5E2" fill-opacity="0.2"/>
<path d="M63.1157 56.1696C63.0442 56.615 63.3473 57.0334 63.7924 57.1048L69.6116 58.038C70.0567 58.1093 70.4753 57.8067 70.5468 57.3612C70.6182 56.9158 70.3152 56.4974 69.8701 56.426L64.0509 55.4928C63.6058 55.4215 63.1871 55.7241 63.1157 56.1696Z" fill="#00B5E2" fill-opacity="0.2"/>
<circle cx="50" cy="50" r="48.5" stroke="#00629B" stroke-width="3"/>
</svg>
