<svg width="100" height="100" viewBox="0 0 100 100" fill="none" xmlns="http://www.w3.org/2000/svg">
<circle cx="50" cy="50" r="48.5" stroke="#00629B" stroke-width="3"/>
<path d="M72.7215 36H76.2785C76.6769 36 77 36.2583 77 36.5771V41H72V36.5771C72.0001 36.2584 72.3231 36 72.7215 36Z" fill="#009CA6" fill-opacity="0.6"/>
<path d="M59 74H41V79H59V74Z" fill="#002855" fill-opacity="0.8"/>
<path d="M82.9909 66V69.8813C83.1534 72.534 81.1215 74.8195 78.4405 75H21.5595C18.8784 74.8194 16.8466 72.5339 17.0091 69.8813V66H82.9909Z" fill="#00629B"/>
<path d="M81.9927 23.1398L81.9909 23.1698V23.1999V65H18.0091V23.1999V23.1698L18.0073 23.1397C17.8782 20.9997 19.4824 19.1618 21.5956 19H78.4043C80.5175 19.1618 82.1217 20.9997 81.9927 23.1398Z" stroke="#00629B" stroke-width="2"/>
<path d="M39 28.7908V42.5884C38.988 42.8236 38.7805 43.0064 38.5333 42.9994H25.4667C25.2219 43.0114 25.0132 42.8326 25 42.5995V28.7908L31.6383 23.1251C31.8477 22.9583 32.1523 22.9583 32.3617 23.1251L39 28.7908Z" fill="#00B5E2"/>
<path d="M32 47V54.2608L26.1667 57.8912L26.0034 58C25.3429 56.8734 24.9955 55.5792 25 54.2608C25.0002 50.2507 28.1341 47 32 47Z" fill="#009CA6" fill-opacity="0.8"/>
<path d="M39 54.0313C39.0055 55.8968 38.266 57.6868 36.9466 59L32 54.0313V47C35.8659 47.0001 39 50.1481 39 54.0313Z" fill="#00B5E2"/>
<path d="M36 59.2398C34.6098 60.5471 32.6546 61.1801 30.7006 60.9555C28.7466 60.7307 27.0123 59.6735 26 58.0899L26.1493 57.9999L31.4798 55L36 59.2398Z" fill="#00629B"/>
<path d="M54.9999 23H56.9999C57.5522 23 58 23.5166 58 24.1539V38H54V24.1538C53.9999 23.5166 54.4477 23 54.9999 23Z" fill="#009CA6" fill-opacity="0.8"/>
<path d="M63.73 29H66.27C66.6732 29 67 29.3677 67 29.8212V38H63V29.8214C63 29.3678 63.3268 29 63.73 29Z" fill="#009CA6"/>
<path d="M49.1114 57C48.6619 56.9999 48.2566 56.7337 48.0846 56.3257C47.9126 55.9176 48.0077 55.448 48.3255 55.1355L52.3118 51.2188C53.6318 49.9813 55.7086 49.9813 57.0284 51.2188L58.3301 52.4989C58.7641 52.9253 59.4678 52.9253 59.9019 52.4989L64.5396 47.9421C65.8592 46.7047 67.9356 46.7047 69.2551 47.9421L70.558 49.2222C70.992 49.6486 71.6957 49.6486 72.1298 49.2222L76.1161 45.3066C76.5523 44.8927 77.2456 44.8985 77.6744 45.32C78.1032 45.7412 78.1092 46.4225 77.688 46.8511L73.7017 50.7678C72.3979 52.0433 70.29 52.0433 68.9862 50.7678L67.6833 49.4866C67.2441 49.0725 66.5506 49.0725 66.1115 49.4866L61.4738 54.0434C60.1715 55.3225 58.0606 55.3225 56.7583 54.0434L55.4554 52.7633C55.0162 52.3492 54.3227 52.3492 53.8836 52.7633L49.8973 56.68C49.6889 56.8848 49.4062 57 49.1114 57Z" fill="#00629B" fill-opacity="0.4"/>
<path d="M35.375 79H64.625C66.4889 79 68 80.6789 68 82.75V84H32V82.75C32 80.6789 33.5111 79 35.375 79Z" fill="#00629B"/>
<path d="M40.8873 32C40.6137 32 40.3498 31.899 40.146 31.7166L31.9956 24.4227L23.8452 31.7166C23.3871 32.1191 22.6902 32.0774 22.2834 31.6231C21.8766 31.1688 21.9119 30.4718 22.3625 30.061L30.9119 22.4092C31.5237 21.87 32.439 21.8629 33.0592 22.3926L41.6286 30.0598C41.9727 30.367 42.0914 30.8546 41.9268 31.2854C41.7621 31.716 41.3485 32.0005 40.8873 32Z" fill="#00629B"/>
<path d="M24.5 30C23.6717 30 23 29.4297 23 28.7261V25.2739C23 24.5704 23.6715 24 24.5 24C25.3285 24 26 24.5703 26 25.2739V28.7262C25.9998 29.4297 25.3283 30 24.5 30Z" fill="#00629B"/>
<path d="M76.8888 40H51.3333C49.4924 40 48 38.4889 48 36.625V23.125C48 22.5038 48.4974 22 49.1112 22C49.7249 22 50.2223 22.5036 50.2223 23.125V36.625C50.2223 37.2463 50.7197 37.75 51.3335 37.75H76.8888C77.5024 37.75 78 38.2537 78 38.8751C78 39.4965 77.5024 40 76.8888 40Z" fill="#00629B"/>
<path d="M76.8888 62H51.3333C49.4924 62 48 60.5729 48 58.8125V46.0626C48 45.4758 48.4974 45 49.1112 45C49.7249 45 50.2223 45.4757 50.2223 46.0626V58.8126C50.2223 59.3993 50.7197 59.8751 51.3335 59.8751H76.8888C77.5024 59.8751 78 60.3508 78 60.9377C78 61.5246 77.5024 62 76.8888 62Z" fill="#00629B"/>
</svg>
