<svg width="100" height="100" viewBox="0 0 100 100" fill="none" xmlns="http://www.w3.org/2000/svg">
<circle cx="50" cy="50" r="48.5" stroke="#00629B" stroke-width="3"/>
<path d="M73 42L59 28H32V81H73V42Z" fill="#00B5E2" fill-opacity="0.4"/>
<path d="M32 28H59L68 37V23H27V76H32V28Z" fill="#00629B"/>
<path d="M40 49H65C65.552 49 66 48.553 66 48C66 47.447 65.552 47 65 47H40C39.448 47 39 47.447 39 48C39 48.553 39.448 49 40 49Z" fill="#00629B"/>
<path d="M40 41H50C50.552 41 51 40.553 51 40C51 39.447 50.552 39 50 39H40C39.448 39 39 39.447 39 40C39 40.553 39.448 41 40 41Z" fill="#00629B"/>
<path d="M65 55H40C39.448 55 39 55.447 39 56C39 56.553 39.448 57 40 57H65C65.552 57 66 56.553 66 56C66 55.447 65.552 55 65 55Z" fill="#00629B"/>
<path d="M65 63H40C39.448 63 39 63.447 39 64C39 64.553 39.448 65 40 65H65C65.552 65 66 64.553 66 64C66 63.447 65.552 63 65 63Z" fill="#00629B"/>
<path d="M65 71H40C39.448 71 39 71.447 39 72C39 72.553 39.448 73 40 73H65C65.552 73 66 72.553 66 72C66 71.447 65.552 71 65 71Z" fill="#00629B"/>
<path d="M59 28V42H73L59 28Z" fill="#00629B"/>
</svg>
