<svg width="100" height="100" viewBox="0 0 100 100" fill="none" xmlns="http://www.w3.org/2000/svg">
<path d="M82.688 64.863L81.244 64.586C80.567 64.456 80.034 64.013 79.782 63.37C79.529 62.728 79.619 62.041 80.027 61.485L80.934 60.249C81.226 59.851 81.184 59.299 80.834 58.95L78.875 56.992C78.536 56.653 78.003 56.603 77.607 56.871L76.39 57.695C75.819 58.083 75.129 58.146 74.495 57.87C73.863 57.595 73.44 57.045 73.335 56.362L73.102 54.847C73.028 54.36 72.608 54 72.115 54H69.345C68.866 54 68.453 54.341 68.363 54.812L68.005 56.677C67.878 57.339 67.447 57.867 66.824 58.125C66.199 58.386 65.523 58.313 64.964 57.936L63.392 56.872C62.996 56.604 62.463 56.654 62.124 56.993L60.165 58.951C59.815 59.3 59.773 59.851 60.065 60.25L60.972 61.486C61.38 62.042 61.47 62.729 61.217 63.371C60.965 64.014 60.432 64.457 59.755 64.587L58.311 64.864C57.84 64.955 57.499 65.367 57.499 65.846V68.616C57.499 69.109 57.859 69.529 58.347 69.604L59.862 69.837C60.545 69.942 61.094 70.365 61.37 70.997C61.646 71.63 61.582 72.32 61.195 72.892L60.371 74.109C60.102 74.505 60.153 75.038 60.492 75.377L62.45 77.336C62.798 77.685 63.349 77.726 63.749 77.436L64.985 76.529C65.541 76.121 66.23 76.031 66.87 76.284C67.513 76.536 67.956 77.069 68.086 77.746L68.363 79.19C68.454 79.659 68.866 80 69.346 80H72.116C72.609 80 73.029 79.64 73.104 79.152L73.268 78.087C73.373 77.399 73.82 76.831 74.461 76.565C75.105 76.3 75.821 76.386 76.382 76.797L77.251 77.435C77.65 77.728 78.202 77.685 78.55 77.335L80.508 75.376C80.847 75.037 80.898 74.505 80.629 74.108L79.805 72.891C79.418 72.32 79.354 71.629 79.63 70.996C79.905 70.364 80.455 69.941 81.138 69.836L82.653 69.603C83.14 69.528 83.501 69.108 83.501 68.615V65.845C83.5 65.366 83.159 64.954 82.688 64.863ZM81.5 67.758L80.833 67.861C79.479 68.069 78.344 68.943 77.797 70.198C77.249 71.454 77.381 72.88 78.149 74.013L78.51 74.546L77.742 75.314L77.565 75.184C76.435 74.357 74.99 74.182 73.696 74.717C72.402 75.253 71.504 76.399 71.291 77.782L71.258 78H70.172L70.051 77.367C69.792 76.021 68.876 74.92 67.602 74.42C66.326 73.92 64.906 74.106 63.802 74.914L63.258 75.313L62.49 74.545L62.851 74.012C63.619 72.878 63.75 71.452 63.203 70.197C62.656 68.942 61.52 68.068 60.167 67.86L59.5 67.758V66.672L60.133 66.551C61.479 66.292 62.58 65.376 63.08 64.102C63.58 62.827 63.395 61.407 62.586 60.302L62.187 59.758L62.955 58.99L63.844 59.592C64.952 60.344 66.355 60.485 67.591 59.973C68.828 59.46 69.718 58.369 69.971 57.054L70.172 56H71.258L71.361 56.667C71.569 58.021 72.443 59.156 73.698 59.703C74.953 60.251 76.38 60.119 77.513 59.351L78.046 58.99L78.814 59.758L78.415 60.302C77.605 61.406 77.421 62.826 77.921 64.102C78.421 65.376 79.523 66.292 80.868 66.551L81.501 66.672V67.758H81.5Z" fill="#00629B"/>
<path d="M70.5 62C67.743 62 65.5 64.243 65.5 67C65.5 69.757 67.743 72 70.5 72C73.257 72 75.5 69.757 75.5 67C75.5 64.243 73.257 62 70.5 62ZM70.5 70C68.846 70 67.5 68.654 67.5 67C67.5 65.346 68.846 64 70.5 64C72.154 64 73.5 65.346 73.5 67C73.5 68.654 72.154 70 70.5 70Z" fill="#00629B"/>
<path d="M36.5 22H70.5V49H72.5V20H36.5H26.5V80H36.5H58.5V78H36.5V22ZM28.5 78V22H34.5V78H28.5Z" fill="#00629B"/>
<path d="M65.5 44V30H41.5V44H65.5ZM43.5 32H63.5V42H43.5V32Z" fill="#00629B"/>
<path d="M60.5 34H46.5V36H60.5V34Z" fill="#00629B"/>
<path d="M60.5 38H46.5V40H60.5V38Z" fill="#00629B"/>
<circle cx="50" cy="50" r="48.5" stroke="#00629B" stroke-width="3"/>
</svg>
