<svg width="100" height="100" viewBox="0 0 100 100" fill="none" xmlns="http://www.w3.org/2000/svg">
<circle cx="50" cy="50" r="48.5" stroke="#00629B" stroke-width="3"/>
<g clip-path="url(#clip0)">
<path d="M81.0888 34.8058C81.0887 34.8058 81.0887 34.8058 81.0886 34.8058L81.0865 34.8037L76.9555 34.2143C76.3748 34.1316 75.9712 33.5939 76.0539 33.0132C76.0935 32.7342 76.2426 32.4825 76.468 32.3134L79.8068 29.8093C80.2761 29.4574 80.3711 28.7918 80.0192 28.3226L76.1962 23.2252C75.8443 22.756 75.1787 22.6609 74.7094 23.0128L71.3717 25.5169C70.9044 25.8715 70.2383 25.7801 69.8838 25.3129C69.7116 25.086 69.6378 24.7994 69.6789 24.5176L70.2694 20.3866C70.3526 19.806 69.9495 19.268 69.369 19.1846C69.3686 19.1846 69.3682 19.1845 69.3678 19.1845L63.064 18.2839C62.4835 18.2006 61.9453 18.6036 61.8619 19.1842C61.8619 19.1843 61.8619 19.1843 61.8619 19.1845L61.2715 23.3155C61.1888 23.8961 60.651 24.2998 60.0704 24.2171C59.7914 24.1774 59.5397 24.0283 59.3706 23.8029L56.8675 20.4641C56.5156 19.9949 55.85 19.8998 55.3808 20.2517L52.1896 22.6464C50.7459 22.493 49.29 22.493 47.8462 22.6464C38.3914 23.7271 30.977 31.2672 30.0553 40.739C30.0266 41.0395 30.016 41.3379 30.0011 41.6363H29.6826C29.1787 41.6372 28.7447 41.9922 28.644 42.4859L27.9102 45.9754L24.9707 43.9482C24.5488 43.6571 23.9791 43.709 23.6167 44.0714L20.4308 47.2572C20.069 47.6195 20.0172 48.1884 20.3076 48.6102L22.3253 51.5443L18.8347 52.2781C18.3465 52.3851 17.9989 52.818 18 53.3178V57.5656C17.9997 58.0679 18.3516 58.5017 18.8432 58.6053L22.3338 59.3391L20.3161 62.2733C20.0257 62.695 20.0775 63.2639 20.4393 63.6262L23.6252 66.8121C23.9876 67.1744 24.5573 67.2264 24.9792 66.9352L27.9133 64.9122L28.6472 68.4029C28.7479 68.8965 29.1818 69.2515 29.6857 69.2524H33.9336C34.4359 69.2527 34.8697 68.9008 34.9732 68.4092L35.707 64.9186L38.6412 66.9363C39.0629 67.2267 39.6319 67.175 39.9941 66.8131L41.6434 65.1586V68.1852C41.6481 69.6959 42.4575 71.0896 43.7673 71.8425V77.7427C43.7673 80.0887 45.6691 81.9906 48.0151 81.9906H52.2629C54.6089 81.9906 56.5107 80.0887 56.5107 77.7427V71.8425C57.8205 71.0896 58.6298 69.6959 58.6346 68.1852V63.9819C58.6634 62.2134 59.5887 60.5806 61.0909 59.6471C61.9722 59.0753 62.808 58.4362 63.5908 57.7355L62.1741 56.1532C61.4739 56.7808 60.7257 57.3528 59.9366 57.864C57.8279 59.1875 56.5371 61.4925 56.5107 63.9819V68.1852C56.5107 69.3582 55.5599 70.3091 54.3868 70.3091H45.8912C44.7181 70.3091 43.7673 69.3582 43.7673 68.1852V63.8938C43.7427 61.4514 42.4722 59.1909 40.3987 57.9001C31.9818 52.6113 29.4459 41.5008 34.7347 33.0839C38.0161 27.8616 43.743 24.683 49.9107 24.661C49.8949 24.6988 49.8809 24.7374 49.8692 24.7767C49.8298 25.0555 49.9028 25.3386 50.0721 25.5636L52.5751 28.9013C52.839 29.2429 52.8644 29.712 52.6388 30.0801C52.4217 30.4505 52.0018 30.6525 51.5769 30.5909L47.4459 30.0005C46.8652 29.9172 46.3272 30.3204 46.2439 30.9009C46.2439 30.9013 46.2437 30.9017 46.2437 30.9021L45.3421 37.209C45.2589 37.7895 45.6621 38.3277 46.2425 38.411C46.2429 38.411 46.2433 38.4111 46.2437 38.4111L50.3747 39.0016C50.9554 39.0843 51.359 39.622 51.2763 40.2027C51.2366 40.4817 51.0876 40.7334 50.8622 40.9025L47.5245 43.4055C47.0552 43.7574 46.9602 44.423 47.3121 44.8923L51.1351 49.9896C51.487 50.4589 52.1526 50.5539 52.6218 50.202L55.9606 47.699C56.4303 47.3478 57.0958 47.4437 57.4471 47.9135C57.6151 48.1383 57.6875 48.4205 57.6481 48.6983L57.0587 52.8293C56.9753 53.4098 57.3783 53.9481 57.959 54.0314C57.9591 54.0314 57.9591 54.0314 57.9592 54.0314L64.2672 54.933C64.3169 54.9394 64.3669 54.9426 64.417 54.9426C64.9457 54.9433 65.3942 54.5548 65.4694 54.0314L66.0587 49.9004C66.1414 49.3198 66.6792 48.9161 67.2598 48.9988C67.5388 49.0385 67.7905 49.1876 67.9596 49.413L70.4637 52.7507C70.8156 53.22 71.4812 53.315 71.9505 52.9631L77.0478 49.1401C77.5171 48.7882 77.6121 48.1226 77.2602 47.6533L74.7572 44.3156C74.4945 43.9735 74.4692 43.5052 74.6935 43.1368C74.906 42.7616 75.3297 42.5582 75.7555 42.6271L79.8865 43.2165C80.4669 43.2999 81.0052 42.8967 81.0886 42.3162C81.0886 42.3161 81.0886 42.3161 81.0886 42.316L81.9891 36.0079C82.0725 35.4273 81.6695 34.8892 81.0888 34.8058ZM45.8912 72.433H54.3868V74.5569H45.8912V72.433V72.433ZM45.8912 76.6808H54.3868V77.7427C54.3868 78.9158 53.436 79.8667 52.2629 79.8667H48.0151C46.842 79.8667 45.8912 78.9158 45.8912 77.7427V76.6808V76.6808ZM37.437 58.3674C38.0168 58.8416 38.6226 59.2831 39.2518 59.6895C40.2552 60.3236 41.0106 61.283 41.3917 62.4071L39.1138 64.6807L36.9081 63.16C35.9423 62.4944 34.6197 62.7379 33.954 63.7037C33.7944 63.9354 33.6824 64.1963 33.6245 64.4715L33.0681 67.1232H30.5438L29.9873 64.4758C29.7457 63.3279 28.6194 62.5932 27.4716 62.8348C27.1964 62.8926 26.9354 63.0047 26.7038 63.1642L24.497 64.6807L22.5622 62.7501L24.0818 60.5455C24.7481 59.58 24.5054 58.2574 23.54 57.5911C23.3082 57.4311 23.0469 57.3188 22.7714 57.2608L20.1239 56.7033V54.1801L22.7714 53.6226C23.9188 53.3793 24.6518 52.2519 24.4085 51.1043C24.3508 50.832 24.2402 50.5738 24.0829 50.3443L22.5622 48.1333L24.497 46.2027L26.7048 47.7234C27.6711 48.3883 28.9936 48.1441 29.6585 47.1778C29.8178 46.9465 29.9296 46.6858 29.9873 46.4108L30.1732 45.5273C30.3434 46.7509 30.6252 47.9563 31.0153 49.1284C27.5211 49.5449 25.0262 52.7154 25.4427 56.2096C25.8593 59.7039 29.0297 62.1988 32.524 61.7822C34.6274 61.5314 36.4687 60.2516 37.437 58.3674ZM35.7877 56.8711C34.9947 59.0753 32.5651 60.2193 30.3609 59.4264C28.1567 58.6334 27.0127 56.2038 27.8056 53.9996C28.4122 52.3133 30.0132 51.1902 31.8053 51.1939C31.8191 51.1939 31.8318 51.1939 31.8456 51.1939C32.8222 53.2996 34.1559 55.2203 35.7877 56.8711ZM79.1303 40.9609L76.0507 40.5213C74.3088 40.2725 72.6952 41.483 72.4464 43.2247C72.3269 44.0611 72.5446 44.9108 73.0517 45.5868L74.9176 48.0749L71.5193 50.6236L69.6524 48.1365C68.5968 46.7288 66.5999 46.4432 65.1923 47.4988C64.5164 48.0056 64.0694 48.7603 63.9497 49.5967L63.5196 52.6806L59.3153 52.0796L59.755 48.9999C60.0044 47.2582 58.7946 45.644 57.0528 45.3947C56.2159 45.2748 55.3658 45.4925 54.6895 45.9999L52.2013 47.8657L49.6526 44.4675L52.1397 42.6006C53.5475 41.545 53.833 39.5481 52.7774 38.1405C52.2706 37.4645 51.5159 37.0176 50.6795 36.8979L47.5999 36.4582L48.2009 32.2539L51.2806 32.6936C53.0223 32.943 54.6365 31.7332 54.8858 29.9914C55.0057 29.1545 54.788 28.3044 54.2806 27.6281L52.4084 25.1378L55.8066 22.5891L57.6736 25.0773C58.7291 26.485 60.726 26.7705 62.1336 25.715C62.8096 25.2081 63.2565 24.4535 63.3762 23.6171L63.8159 20.5374L68.0202 21.1374L67.5805 24.2171C67.3318 25.9589 68.5421 27.5726 70.284 27.8213C71.1204 27.9408 71.9701 27.7231 72.646 27.216L75.1342 25.3502L77.6829 28.7484L75.1947 30.6153C73.787 31.6709 73.5015 33.6678 74.557 35.0754C75.0639 35.7514 75.8185 36.1983 76.6549 36.318L79.7346 36.7577L79.1303 40.9609Z" fill="#00629B"/>
<path d="M63.6641 28.1113C58.9721 28.1113 55.1685 31.9149 55.1685 36.6069C55.1685 41.2989 58.9721 45.1025 63.6641 45.1025C68.3561 45.1025 72.1597 41.2989 72.1597 36.6069C72.1544 31.917 68.3539 28.1164 63.6641 28.1113ZM63.6641 42.9786C60.145 42.9786 57.2924 40.126 57.2924 36.6069C57.2924 33.0879 60.145 30.2352 63.6641 30.2352C67.1831 30.2352 70.0358 33.0879 70.0358 36.6069C70.0317 40.1242 67.1814 42.9745 63.6641 42.9786Z" fill="#00629B"/>
<path d="M51.2008 64.9993H49.0769V68.1852H51.2008V64.9993Z" fill="#00629B"/>
<path d="M45.494 54.5698C38.9385 52.0089 35.7002 44.6185 38.2612 38.063C39.2536 35.5228 41.0346 33.3679 43.3425 31.9152L42.2073 30.1183C35.26 34.4951 33.176 43.675 37.5528 50.6223C39.2478 53.3129 41.7609 55.3891 44.7231 56.5461C47.345 57.5507 49.0764 60.0676 49.0771 62.8754H51.201C51.2043 59.1914 48.9341 55.8876 45.494 54.5698Z" fill="#00629B"/>
<path d="M77.7498 57.5657H70.3162V59.6896H77.7498V57.5657Z" fill="#00629B"/>
<path d="M69.934 63.1208L68.5745 64.7526L74.9467 70.0615L76.3062 68.4297L69.934 63.1208Z" fill="#00629B"/>
<path d="M66.0682 66.0613H63.9443V73.495H66.0682V66.0613Z" fill="#00629B"/>
<path d="M27.5795 34.2338L19.0845 36.3573L19.5993 38.4167L28.0943 36.2931L27.5795 34.2338Z" fill="#00629B"/>
<path d="M22.0822 23.7822L20.8484 25.5096L28.2815 30.8188L29.5153 29.0914L22.0822 23.7822Z" fill="#00629B"/>
<path d="M32.0051 18.0088L29.9475 18.5349L32.1195 27.0299L34.1771 26.5038L32.0051 18.0088Z" fill="#00629B"/>
</g>
<defs>
<clipPath id="clip0">
<rect width="64" height="64" fill="white" transform="translate(18 18)"/>
</clipPath>
</defs>
</svg>
