<svg width="100" height="100" viewBox="0 0 100 100" fill="none" xmlns="http://www.w3.org/2000/svg">
<path d="M77.1779 67.497C76.8157 67.1638 73.2433 67.3942 73.2433 67.3942L73.2026 63.6146L71.4552 61.6173L67.3134 61.5496L67.3094 61.5438C67.292 61.6001 67.3074 57.3866 67.3074 57.3866L65.3741 55.9859C65.3741 55.9859 61.614 55.8754 61.583 55.8464L61.2808 51.9836L57.7996 47.863C59.0026 45.2671 59.6962 42.3826 59.6962 39.3313C59.6962 28.1049 50.5871 19.0035 39.3512 19.0035C28.1091 19.0013 19 28.1027 19 39.3291C19 50.5574 28.1091 59.6606 39.347 59.6606C42.464 59.6606 45.4068 58.938 48.0472 57.6845L71.1878 80.9646C71.1878 80.9646 80.9845 80.9916 80.9845 80.9878L81 71.1001C81 71.1001 79.4619 69.6007 77.1779 67.497ZM35.4649 40.3366C32.8012 40.3366 30.643 38.1648 30.643 35.4857C30.643 32.8066 32.801 30.6328 35.4649 30.6328C38.1287 30.6328 40.2887 32.8063 40.2887 35.4857C40.2887 38.165 38.1285 40.3366 35.4649 40.3366Z" fill="#00629B"/>
<path d="M35.4686 28.6891C31.724 28.6891 28.6882 31.7249 28.6882 35.4695C28.6882 39.2141 31.724 42.2499 35.4686 42.2499C39.2153 42.2499 42.2491 39.2141 42.2491 35.4695C42.2491 31.7249 39.2153 28.6891 35.4686 28.6891ZM35.4686 38.3755C33.8645 38.3755 32.5628 37.0736 32.5628 35.4697C32.5628 33.8638 33.8648 32.5639 35.4686 32.5639C37.0728 32.5639 38.3745 33.8638 38.3745 35.4697C38.3745 37.0736 37.0728 38.3755 35.4686 38.3755Z" fill="#002855"/>
<path d="M52.7025 54.6445C50.8524 56.2564 48.7117 57.5291 46.3657 58.3951L57.8682 69.6961L69.3706 80.9971H79.0568L52.7025 54.6445Z" fill="#002855"/>
<circle cx="50" cy="50" r="48.5" stroke="#00629B" stroke-width="3"/>
</svg>
