<svg width="100" height="100" viewBox="0 0 100 100" fill="none" xmlns="http://www.w3.org/2000/svg">
<circle cx="50" cy="50" r="48.5" stroke="#00629B" stroke-width="3"/>
<path d="M58.5 42C57.8101 42 57.25 42.5601 57.25 43.25C57.25 43.9399 57.8101 44.5 58.5 44.5C59.1899 44.5 59.75 43.9399 59.75 43.25C59.75 42.5601 59.1899 42 58.5 42Z" fill="#00629B"/>
<path d="M58.5 49.5C57.8101 49.5 57.25 50.0601 57.25 50.75C57.25 51.4399 57.8101 52 58.5 52C59.1899 52 59.75 51.4399 59.75 50.75C59.75 50.0601 59.1899 49.5 58.5 49.5Z" fill="#00629B"/>
<path d="M28.5 54.5C27.8101 54.5 27.25 55.0601 27.25 55.75C27.25 56.4399 27.8101 57 28.5 57C29.1899 57 29.75 56.4399 29.75 55.75C29.75 55.0601 29.1899 54.5 28.5 54.5Z" fill="#00629B"/>
<path d="M82.3281 32.1416C81.915 31.9263 81.417 31.9585 81.0347 32.2251L70.6069 39.5H67.25V38.25C67.25 36.1821 65.5679 34.5 63.5 34.5H58.854C60.9341 32.666 62.25 29.9849 62.25 27C62.25 21.4858 57.7642 17 52.25 17C48.4888 17 45.207 19.0884 43.5 22.1655C41.793 19.0884 38.5112 17 34.75 17C29.2358 17 24.75 21.4858 24.75 27C24.75 29.9849 26.0659 32.666 28.146 34.5H22.75C20.6821 34.5 19 36.1821 19 38.25V60.75C19 62.8179 20.6821 64.5 22.75 64.5H29.75V68.25C29.75 68.9404 30.3096 69.5 31 69.5H34.75V75.75C34.75 76.4404 35.3096 77 36 77H51C51.6904 77 52.25 76.4404 52.25 75.75V69.5H56C56.6904 69.5 57.25 68.9404 57.25 68.25V64.5H63.5C65.5679 64.5 67.25 62.8179 67.25 60.75V57H70.6069L81.0347 64.2754C81.4126 64.5386 81.9106 64.5762 82.3281 64.3584C82.7412 64.1426 83 63.7158 83 63.25V33.25C83 32.7842 82.7412 32.3574 82.3281 32.1416ZM52.25 19.5C56.3857 19.5 59.75 22.8647 59.75 27C59.75 31.1357 56.3857 34.5 52.25 34.5C48.1143 34.5 44.75 31.1357 44.75 27C44.75 22.8647 48.1143 19.5 52.25 19.5ZM45.646 34.5H41.3535C42.2124 33.7432 42.9409 32.8423 43.5 31.8345C44.0591 32.8423 44.7876 33.7432 45.646 34.5ZM27.25 27C27.25 22.8647 30.6143 19.5 34.75 19.5C38.8857 19.5 42.25 22.8647 42.25 27C42.25 31.1357 38.8857 34.5 34.75 34.5C30.6143 34.5 27.25 31.1357 27.25 27ZM49.75 74.5H37.25V69.5H49.75V74.5ZM54.75 67H32.25V64.5H54.75V67ZM64.75 60.75C64.75 61.4395 64.1895 62 63.5 62H22.75C22.0605 62 21.5 61.4395 21.5 60.75V38.25C21.5 37.561 22.0605 37 22.75 37H63.5C64.1895 37 64.75 37.561 64.75 38.25V60.75ZM67.25 42H69.75V54.5H67.25V42ZM80.5 60.854L72.25 55.0981V41.4023L80.5 35.6465V60.854Z" fill="#00629B"/>
<path d="M34.75 23.25C32.6821 23.25 31 24.9321 31 27C31 29.0679 32.6821 30.75 34.75 30.75C36.8179 30.75 38.5 29.0679 38.5 27C38.5 24.9321 36.8179 23.25 34.75 23.25ZM34.75 28.25C34.0605 28.25 33.5 27.6895 33.5 27C33.5 26.311 34.0605 25.75 34.75 25.75C35.4395 25.75 36 26.311 36 27C36 27.6895 35.4395 28.25 34.75 28.25Z" fill="#00629B"/>
<path d="M52.25 30.75C54.3179 30.75 56 29.0679 56 27C56 24.9321 54.3179 23.25 52.25 23.25C50.1821 23.25 48.5 24.9321 48.5 27C48.5 29.0679 50.1821 30.75 52.25 30.75ZM52.25 25.75C52.9395 25.75 53.5 26.311 53.5 27C53.5 27.6895 52.9395 28.25 52.25 28.25C51.5605 28.25 51 27.6895 51 27C51 26.311 51.5605 25.75 52.25 25.75Z" fill="#00629B"/>
<path d="M47.25 50.75V43.25C47.25 42.5596 46.6904 42 46 42H28.5C27.8096 42 27.25 42.5596 27.25 43.25V50.75C27.25 51.4404 27.8096 52 28.5 52H46C46.6904 52 47.25 51.4404 47.25 50.75ZM44.75 49.5H29.75V44.5H44.75V49.5Z" fill="#00629B"/>
<path d="M58.5 54.5H33.5C32.8096 54.5 32.25 55.0596 32.25 55.75C32.25 56.4404 32.8096 57 33.5 57H58.5C59.1904 57 59.75 56.4404 59.75 55.75C59.75 55.0596 59.1904 54.5 58.5 54.5Z" fill="#00629B"/>
</svg>
