<?xml version="1.0"?>
<svg xmlns="http://www.w3.org/2000/svg" id="Layer_1" data-name="Layer 1" viewBox="0 0 128 128" width="512" height="512"><title>SMART ROBOT</title><path d="M73.466,76.162a5.375,5.375,0,0,0-5.249-6.521h-7.15a5.512,5.512,0,0,0-5.528,4.847,5.37,5.37,0,0,0,5.345,5.895,5.327,5.327,0,0,0,1.434-.2A7.5,7.5,0,0,1,66.6,80.13a5.434,5.434,0,0,0,2.711.143A5.369,5.369,0,0,0,73.466,76.162Zm-2.152-.451a3.164,3.164,0,0,1-4.047,2.324,8.511,8.511,0,0,0-2.6-.389,10.972,10.972,0,0,0-2.946.421,3.219,3.219,0,0,1-3.188-.924,3.147,3.147,0,0,1-.809-2.447,3.3,3.3,0,0,1,3.339-2.855h7.15a3.177,3.177,0,0,1,3.1,3.87Z"/><path d="M82.534,84.183H75.894a8.848,8.848,0,0,0,2.878-5.035h2.572a1.1,1.1,0,0,0,1.1-1.1V72.9a1.1,1.1,0,0,0-1.1-1.1H78.7A8.868,8.868,0,0,0,70.07,64.9H59.029A8.868,8.868,0,0,0,50.4,71.8h-2.64a1.1,1.1,0,0,0-1.1,1.1v5.146a1.1,1.1,0,0,0,1.1,1.1h2.572a8.847,8.847,0,0,0,2.878,5.035H46.565a6.948,6.948,0,0,0-6.939,6.94V93.44a1.1,1.1,0,1,0,2.2,0V91.123a4.745,4.745,0,0,1,4.74-4.74h1.218V93.44a1.1,1.1,0,1,0,2.2,0V86.383H79.117V93.44a1.1,1.1,0,1,0,2.2,0V86.383h1.218a4.745,4.745,0,0,1,4.74,4.74V93.44a1.1,1.1,0,1,0,2.2,0V91.123A6.948,6.948,0,0,0,82.534,84.183Zm-2.29-7.235H78.928V74h1.316ZM48.855,74h1.316v2.946H48.855ZM59.029,84.183a6.666,6.666,0,0,1-6.658-6.658V73.754A6.666,6.666,0,0,1,59.029,67.1H70.07a6.666,6.666,0,0,1,6.658,6.658v3.771a6.666,6.666,0,0,1-6.658,6.658Z"/><path d="M58.532,51.587A8.992,8.992,0,0,1,59.825,56v1.936a1.1,1.1,0,0,0,1.1,1.1h7.25a1.1,1.1,0,0,0,1.1-1.1V56.114A9.472,9.472,0,0,1,70.6,51.537a6.913,6.913,0,0,0-6.868-10.213,6.976,6.976,0,0,0-6.012,5.81A6.887,6.887,0,0,0,58.532,51.587Zm1.359-4.129a4.743,4.743,0,0,1,4.09-3.949,4.67,4.67,0,0,1,3.7,1.159,4.707,4.707,0,0,1,.99,5.8,11.626,11.626,0,0,0-1.6,5.647v.724H62.024V56a11.149,11.149,0,0,0-1.578-5.5A4.7,4.7,0,0,1,59.892,47.458Z"/><path d="M64.55,38.85a1.1,1.1,0,0,0,1.1-1.1V34.625a1.1,1.1,0,1,0-2.2,0V37.75A1.1,1.1,0,0,0,64.55,38.85Z"/><path d="M71.754,41.834a1.1,1.1,0,0,0,.778-.322l2.209-2.21a1.1,1.1,0,0,0-1.557-1.556l-2.209,2.21a1.1,1.1,0,0,0,.778,1.878Z"/><path d="M73.638,47.938a1.1,1.1,0,0,0,1.1,1.1h3.125a1.1,1.1,0,0,0,0-2.2H74.737A1.1,1.1,0,0,0,73.638,47.938Z"/><path d="M72.043,55.121a1.1,1.1,0,0,0,0,1.556l2.209,2.209a1.1,1.1,0,0,0,1.557-1.556L73.6,55.121A1.1,1.1,0,0,0,72.043,55.121Z"/><path d="M55.5,55.121,53.292,57.33a1.1,1.1,0,0,0,1.557,1.556l2.209-2.209A1.1,1.1,0,0,0,55.5,55.121Z"/><path d="M51.237,49.038h3.125a1.1,1.1,0,0,0,0-2.2H51.237a1.1,1.1,0,0,0,0,2.2Z"/><path d="M56.567,41.512a1.1,1.1,0,0,0,1.557-1.556l-2.209-2.21A1.1,1.1,0,0,0,54.358,39.3Z"/><path d="M68.175,60.587h-7.25a1.1,1.1,0,0,0,0,2.2h7.25a1.1,1.1,0,0,0,0-2.2Z"/></svg>
