<svg width="100" height="100" viewBox="0 0 100 100" fill="none" xmlns="http://www.w3.org/2000/svg">
<circle cx="50" cy="50" r="48.5" stroke="#00629B" stroke-width="3"/>
<path d="M75.9941 47.5112C73.6802 46.3544 69.3419 46.3409 69.1583 46.3409C68.6082 46.3409 68.1622 46.7869 68.1622 47.337C68.1622 47.8871 68.6082 48.3331 69.1583 48.3331C70.2778 48.3333 73.5281 48.5057 75.1032 49.2931C75.2462 49.3647 75.3981 49.3984 75.5478 49.3984C75.9132 49.3984 76.265 49.1965 76.4395 48.8476C76.6856 48.3556 76.4861 47.7573 75.9941 47.5112Z" fill="#00629B"/>
<path d="M80.9602 61.6929L76.8463 60.5175C76.6687 60.4668 76.5447 60.3024 76.5447 60.1176V58.7445C76.8794 58.5126 77.1987 58.2531 77.4971 57.9634C78.9434 56.5598 79.7399 54.6772 79.7399 52.6622V50.7674L80.1377 49.9719C80.5742 49.0987 80.8049 48.1211 80.8049 47.1449V42.0117C80.8049 41.4616 80.3589 41.0156 79.8088 41.0156H70.2234C66.7378 41.0156 63.902 43.8514 63.902 47.3369V47.3963C63.902 48.2081 64.0939 49.021 64.4569 49.747L64.967 50.7672V52.3942C64.967 54.9726 66.2377 57.2861 68.1622 58.6782L68.1625 60.1174C68.1625 60.3393 68.1625 60.4312 67.34 60.6663L65.3327 61.2397L59.526 59.1283C59.5468 58.8543 59.4544 58.5757 59.2545 58.3657L57.399 56.4163V53.1438C57.5951 52.9821 57.7885 52.8161 57.9759 52.6405C60.3167 50.4465 61.6592 47.3488 61.6592 44.1417V41.5283C62.366 39.9901 62.7242 38.3625 62.7242 36.6863V26.0361C62.7242 25.486 62.2782 25.04 61.7281 25.04H46.8174C41.57 25.04 37.301 29.3091 37.301 34.5564V36.6866C37.301 38.3628 37.6592 39.9904 38.366 41.5285V43.7772C38.366 47.5007 40.0217 50.8553 42.6262 53.0669V56.4164L40.7707 58.3658C40.5708 58.5758 40.4784 58.8544 40.4993 59.1284L34.3706 61.3569C33.9265 61.5184 33.5139 61.7371 33.1392 62.0021L32.1768 61.5209C35.0416 60.2739 35.9491 58.5201 35.9927 58.433C36.1329 58.1527 36.1329 57.8225 35.9927 57.5421C35.2745 56.1059 35.1876 53.4734 35.1177 51.3582C35.0945 50.6541 35.0724 49.9888 35.0303 49.3965C34.6907 44.6187 31.0585 41.0156 26.5814 41.0156C22.1043 41.0156 18.472 44.6185 18.1326 49.3965C18.0905 49.9889 18.0684 50.6542 18.0452 51.3585C17.9753 53.4735 17.8882 56.1057 17.1702 57.542C17.03 57.8224 17.03 58.1525 17.1702 58.4329C17.2138 58.52 18.1194 60.2702 20.9899 61.5187L18.3168 62.8551C16.8877 63.5702 16 65.0066 16 66.6042V73.9632C16 74.5133 16.446 74.9593 16.9961 74.9593C17.5462 74.9593 17.9922 74.5133 17.9922 73.9632V66.6042C17.9922 65.7659 18.458 65.0122 19.2077 64.6372L22.5364 62.973L23.6942 64.0733C24.5039 64.8427 25.5424 65.2272 26.5814 65.2272C27.6202 65.2272 28.6593 64.8424 29.4686 64.0733L30.6264 62.9731L31.7117 63.5158C31.2007 64.3335 30.9106 65.2924 30.9106 66.2969V73.9635C30.9106 74.5136 31.3566 74.9595 31.9067 74.9595C32.4568 74.9595 32.9028 74.5136 32.9028 73.9635V66.2969C32.9028 64.9294 33.7662 63.6966 35.0514 63.2293L41.513 60.8797L44.2029 64.9147C44.5467 65.4305 45.0978 65.7614 45.7147 65.8224C45.7835 65.8292 45.8519 65.8325 45.9201 65.8325C46.4644 65.8325 46.9857 65.6183 47.3754 65.2288L49.0164 63.5877V73.9636C49.0164 74.5137 49.4624 74.9597 50.0125 74.9597C50.5626 74.9597 51.0086 74.5137 51.0086 73.9636V63.5877L52.6496 65.2288C53.0392 65.6184 53.5604 65.8327 54.1048 65.8327C54.173 65.8327 54.2415 65.8294 54.3102 65.8226C54.9272 65.7615 55.4783 65.4306 55.8221 64.9148L58.5121 60.88L64.9735 63.2295C66.2586 63.6969 67.1222 64.9297 67.1222 66.2971V73.9637C67.1222 74.5138 67.5682 74.9598 68.1183 74.9598C68.6684 74.9598 69.1144 74.5138 69.1144 73.9637V66.2971C69.1144 64.9121 68.5641 63.6132 67.6411 62.6526L67.8872 62.5824C68.1354 62.5114 68.4741 62.4143 68.8141 62.2477L71.3573 64.7909V73.9637C71.3573 74.5138 71.8033 74.9598 72.3534 74.9598C72.9035 74.9598 73.3495 74.5138 73.3495 73.9637V64.7909L75.8751 62.2653C76.0093 62.3336 76.1504 62.3912 76.2989 62.4336L80.4129 63.609C81.3519 63.8773 82.0078 64.7468 82.0078 65.7235V73.9637C82.0078 74.5138 82.4538 74.9598 83.0039 74.9598C83.554 74.9598 84 74.5138 84 73.9637V65.7235C84 63.8617 82.75 62.2044 80.9602 61.6929ZM22.3903 59.9335C20.527 59.2631 19.5924 58.3693 19.1935 57.8812C19.4655 57.1701 19.6419 56.3557 19.7612 55.496C20.3106 56.8131 21.2306 57.9375 22.3903 58.7397V59.9335ZM28.0966 62.6294C27.247 63.4366 25.916 63.4365 25.0667 62.6292L24.1403 61.749C24.2967 61.4561 24.3826 61.1241 24.3826 60.7762V59.7145C25.0775 59.9317 25.8162 60.0488 26.5817 60.0488C27.3463 60.0488 28.0846 59.9311 28.7807 59.7152L28.7805 60.7761C28.7805 61.1241 28.8663 61.4562 29.0228 61.7492L28.0966 62.6294ZM26.582 58.0566C23.6075 58.0566 21.1878 55.6368 21.1878 52.6625C21.1878 52.1123 20.7418 51.6664 20.1917 51.6664C20.1359 51.6664 20.0815 51.6721 20.0282 51.681C20.0311 51.5953 20.0339 51.5095 20.0368 51.4246C20.059 50.7397 20.0804 50.0928 20.1198 49.5379C20.2471 47.7481 20.9623 46.0989 22.1337 44.8937C23.3156 43.6777 24.8953 43.008 26.5817 43.008C28.2682 43.008 29.8477 43.6777 31.0297 44.8937C32.2011 46.0989 32.9163 47.7481 33.0436 49.5379C33.0829 50.0927 33.1044 50.7395 33.127 51.4242C33.129 51.4831 33.131 51.5427 33.1329 51.6019C32.0492 49.9322 30.3755 48.7017 28.2129 48.0068C26.215 47.365 24.4967 47.4047 24.4242 47.4065C24.1633 47.4138 23.9158 47.523 23.7347 47.7108L21.9375 49.5747C21.5557 49.9707 21.5671 50.6013 21.9631 50.9832C22.3592 51.365 22.9898 51.3535 23.3716 50.9575L24.8671 49.4067C26.155 49.4696 30.2983 49.9515 31.9097 53.4998C31.5043 56.1146 29.2568 58.0566 26.582 58.0566ZM30.7726 59.9369L30.7727 58.7489C31.9315 57.951 32.8528 56.8288 33.4026 55.5017C33.522 56.3594 33.6982 57.172 33.9697 57.8815C33.573 58.3649 32.634 59.2667 30.7726 59.9369ZM40.3582 43.777V41.3057C40.3582 41.1557 40.3243 41.0076 40.2591 40.8726C39.6182 39.5452 39.2932 38.1369 39.2932 36.6866V34.5565C39.2932 30.4076 42.6686 27.0323 46.8174 27.0323H60.732V36.6867C60.732 38.137 60.4071 39.5454 59.7661 40.8727C59.7009 41.0078 59.667 41.1558 59.667 41.3058V44.142C59.667 46.8396 58.5826 49.3416 56.6135 51.1873C56.3677 51.4176 56.1126 51.6336 55.8488 51.8348C55.843 51.8388 55.8374 51.8431 55.8317 51.8472C53.987 53.2478 51.7276 53.9284 49.3681 53.7756C44.3158 53.4484 40.3582 49.0566 40.3582 43.777ZM45.9668 63.8199C45.9598 63.8268 45.9438 63.8431 45.9112 63.8397C45.8788 63.8365 45.8661 63.8175 45.8606 63.8093L42.7628 59.1624L43.7597 58.1149L48.4592 61.3273L45.9668 63.8199ZM50.0126 59.9759L44.6184 56.2888V54.4294C46.0142 55.1839 47.577 55.6558 49.2391 55.7634C49.5017 55.7804 49.7627 55.7887 50.0228 55.7887C51.9275 55.7887 53.7606 55.3334 55.4068 54.4692V56.2888L50.0126 59.9759ZM54.1646 63.8095C54.1592 63.8178 54.1464 63.8368 54.114 63.84C54.0815 63.8441 54.0655 63.8269 54.0585 63.8202L51.566 61.3277L56.2656 58.1152L57.2626 59.1627L54.1646 63.8095ZM72.3534 62.9691L70.0929 60.7088C70.1324 60.5296 70.1547 60.3334 70.1546 60.1171L70.1544 59.6967C70.7817 59.9026 71.4428 60.0248 72.127 60.0452C72.2037 60.0476 72.2798 60.0487 72.3563 60.0487C73.1123 60.0487 73.8502 59.9345 74.5525 59.7165V60.1176C74.5525 60.3163 74.5775 60.511 74.6245 60.6981L72.3534 62.9691ZM76.1097 56.5338C75.054 57.5583 73.6593 58.0994 72.1869 58.054C69.3043 57.9675 66.9592 55.4285 66.9592 52.3944V50.5323C66.9592 50.3775 66.9232 50.2251 66.854 50.0868L66.2387 48.8562C66.0133 48.4053 65.8942 47.9006 65.8942 47.3964V47.3371C65.8942 44.9499 67.8363 43.0079 70.2234 43.0079H78.8127V47.145C78.8127 47.8136 78.6547 48.4831 78.3557 49.0812L77.8529 50.0868C77.7837 50.2252 77.7477 50.3775 77.7477 50.5323V52.6623C77.7477 54.1339 77.166 55.5088 76.1097 56.5338Z" fill="#00629B"/>
<path d="M78.7435 66.5769C78.1934 66.5769 77.7474 67.0229 77.7474 67.573V73.9633C77.7474 74.5134 78.1934 74.9594 78.7435 74.9594C79.2936 74.9594 79.7396 74.5134 79.7396 73.9633V67.573C79.7396 67.023 79.2936 66.5769 78.7435 66.5769Z" fill="#00629B"/>
<path d="M21.2563 67.8936C20.7062 67.8936 20.2603 68.3395 20.2603 68.8896V73.9632C20.2603 74.5133 20.7062 74.9593 21.2563 74.9593C21.8065 74.9593 22.2524 74.5133 22.2524 73.9632V68.8896C22.2524 68.3397 21.8065 67.8936 21.2563 67.8936Z" fill="#00629B"/>
<path d="M58.1723 37.0474C54.4049 33.2801 46.5226 34.0003 43.3083 34.4848C42.2959 34.6374 41.5612 35.4942 41.5612 36.522V38.8167C41.5612 39.3668 42.0071 39.8128 42.5573 39.8128C43.1074 39.8128 43.5533 39.3668 43.5533 38.8167V36.5219C43.5533 36.488 43.5757 36.459 43.6054 36.4545C44.8893 36.261 47.4371 35.9625 50.0767 36.1384C53.1829 36.3452 55.4328 37.125 56.7637 38.456C57.1527 38.845 57.7834 38.845 58.1723 38.456C58.5613 38.067 58.5613 37.4363 58.1723 37.0474Z" fill="#00629B"/>
<path d="M38.297 68.707C37.7469 68.707 37.3009 69.153 37.3009 69.7031V73.9634C37.3009 74.5135 37.7469 74.9594 38.297 74.9594C38.8471 74.9594 39.2931 74.5135 39.2931 73.9634V69.7031C39.2931 69.1531 38.8471 68.707 38.297 68.707Z" fill="#00629B"/>
<path d="M61.7283 68.707C61.1782 68.707 60.7322 69.153 60.7322 69.7031V73.9634C60.7322 74.5135 61.1782 74.9594 61.7283 74.9594C62.2784 74.9594 62.7244 74.5135 62.7244 73.9634V69.7031C62.7244 69.1531 62.2784 68.707 61.7283 68.707Z" fill="#00629B"/>
</svg>
