<svg width="100" height="100" viewBox="0 0 100 100" fill="none" xmlns="http://www.w3.org/2000/svg">
<circle cx="50" cy="50" r="48.5" stroke="#00629B" stroke-width="3"/>
<path d="M78.99 57.3954C78.318 56.7221 77.5001 56.3858 76.5385 56.3858H61.1419C60.6375 57.7317 59.7899 58.8373 58.6001 59.7026C57.4097 60.5679 56.082 61.0009 54.616 61.0009H45.3843C43.9181 61.0009 42.5899 60.5678 41.4003 59.7026C40.2102 58.8373 39.3632 57.7319 38.8584 56.3858H23.4615C22.5001 56.3858 21.6829 56.7221 21.0096 57.3954C20.3365 58.0679 20 58.8852 20 59.8469V71.3854C20 72.3465 20.3365 73.1647 21.0096 73.8367C21.6828 74.5098 22.5 74.846 23.4615 74.846H76.539C77.5001 74.846 78.318 74.5098 78.9904 73.8367C79.6638 73.1638 80 72.3465 80 71.3854V59.8469C80 58.8852 79.6638 58.0688 78.99 57.3954ZM65.4694 69.5464C65.0121 70.0032 64.471 70.2319 63.846 70.2319C63.2209 70.2319 62.6807 70.0032 62.2235 69.5464C61.767 69.0901 61.5388 68.5489 61.5388 67.9239C61.5388 67.2988 61.767 66.7574 62.2235 66.3014C62.6807 65.845 63.2209 65.6158 63.846 65.6158C64.471 65.6158 65.0119 65.8449 65.4694 66.3014C65.9257 66.7573 66.154 67.2988 66.154 67.9239C66.154 68.5489 65.9257 69.0899 65.4694 69.5464ZM74.6995 69.5464C74.2431 70.0032 73.702 70.2319 73.0769 70.2319C72.452 70.2319 71.9113 70.0032 71.4544 69.5464C70.9981 69.0901 70.7698 68.5489 70.7698 67.9239C70.7698 67.2988 70.9981 66.7574 71.4544 66.3014C71.9112 65.845 72.4518 65.6158 73.0769 65.6158C73.7019 65.6158 74.243 65.8449 74.6995 66.3014C75.1563 66.7573 75.3849 67.2988 75.3849 67.9239C75.3849 68.5489 75.1567 69.0899 74.6995 69.5464Z" fill="#00629B"/>
<path d="M33.846 37.9236H43.0768V54.0779C43.0768 54.7028 43.3053 55.2438 43.7618 55.7004C44.2186 56.1567 44.7595 56.3858 45.3843 56.3858H54.616C55.2409 56.3858 55.7813 56.1568 56.2385 55.7004C56.6949 55.244 56.9231 54.7029 56.9231 54.0779V37.9236H66.1542C67.1642 37.9236 67.8734 37.4425 68.2815 36.4813C68.6903 35.5439 68.5217 34.7144 67.7767 33.9932L51.6224 17.8391C51.1893 17.3823 50.6492 17.1539 49.9999 17.1539C49.3512 17.1539 48.8103 17.3823 48.3774 17.8391L32.2236 33.9932C31.4782 34.7144 31.3101 35.5434 31.7186 36.4813C32.1276 37.443 32.8367 37.9236 33.846 37.9236Z" fill="#00629B"/>
</svg>
