<svg width="100" height="100" viewBox="0 0 100 100" fill="none" xmlns="http://www.w3.org/2000/svg">
<path d="M50 12C29.0081 12 12 29.0081 12 50C12 70.9919 29.0081 88 50 88C70.9919 88 88 70.9919 88 50C88 29.0081 70.9919 12 50 12ZM50 26.7097C57.4468 26.7097 63.4839 32.7468 63.4839 40.1935C63.4839 47.6403 57.4468 53.6774 50 53.6774C42.5532 53.6774 36.5161 47.6403 36.5161 40.1935C36.5161 32.7468 42.5532 26.7097 50 26.7097ZM50 79.4194C41.0056 79.4194 32.946 75.3435 27.5524 68.9694C30.4331 63.5452 36.0718 59.8065 42.6452 59.8065C43.0129 59.8065 43.3806 59.8677 43.7331 59.975C45.725 60.6186 47.8089 61.0323 50 61.0323C52.1911 61.0323 54.2903 60.6186 56.2669 59.975C56.6194 59.8677 56.9871 59.8065 57.3548 59.8065C63.9282 59.8065 69.5669 63.5452 72.4476 68.9694C67.054 75.3435 58.9944 79.4194 50 79.4194Z" fill="#00629B"/>
<circle cx="50" cy="50" r="48.5" stroke="#00629B" stroke-width="3"/>
</svg>
