<svg width="100" height="100" viewBox="0 0 100 100" fill="none" xmlns="http://www.w3.org/2000/svg">
<circle cx="50" cy="50" r="48.5" stroke="#00629B" stroke-width="3"/>
<g clip-path="url(#clip0)">
<path d="M49.3992 50.4116C57.8479 50.4111 60.8878 41.9517 61.6836 35.0028C62.6639 26.4426 58.6158 20 49.3992 20C40.1837 20 36.1336 26.4422 37.1147 35.0028C37.9112 41.9517 40.9503 50.4122 49.3992 50.4116Z" fill="#00629B"/>
<path d="M67.8732 53.9328C68.145 53.9328 68.4151 53.941 68.6834 53.9559C68.2813 53.3823 67.8159 52.8764 67.2713 52.4698C65.6479 51.2581 63.5453 50.8606 61.6866 50.1302C60.7818 49.7748 59.9716 49.4217 59.211 49.0198C56.644 51.835 53.2964 53.3076 49.3982 53.308C45.5012 53.308 42.154 51.8354 39.5872 49.0198C38.8266 49.4218 38.0162 49.7748 37.1116 50.1302C35.2529 50.8607 33.1504 51.2581 31.5269 52.4698C28.7193 54.5654 27.9937 59.2796 27.4236 62.4953C26.9531 65.1498 26.637 67.8587 26.5447 70.555C26.4733 72.6435 27.5045 72.9363 29.2517 73.5668C31.4395 74.3559 33.6984 74.9416 35.9725 75.4218C40.3644 76.3493 44.8914 77.0619 49.399 77.0938C51.5831 77.0782 53.7716 76.902 55.9472 76.62C54.3363 74.2859 53.3915 71.4587 53.3915 68.4146C53.3916 60.4292 59.888 53.9328 67.8732 53.9328Z" fill="#00629B"/>
<path d="M67.873 56.8292C61.4748 56.8292 56.2876 62.0164 56.2876 68.4146C56.2876 74.8129 61.4747 80 67.873 80C74.2713 80 79.4585 74.8129 79.4585 68.4146C79.4584 62.0163 74.2712 56.8292 67.873 56.8292ZM72.9416 70.4023H69.8607V73.4831C69.8607 74.5809 68.9708 75.4709 67.8731 75.4709C66.7752 75.4709 65.8852 74.5809 65.8852 73.4831V70.4023H62.8045C61.7066 70.4023 60.8166 69.5124 60.8166 68.4144C60.8166 67.3166 61.7065 66.4266 62.8045 66.4266H65.8852V63.3458C65.8852 62.248 66.7752 61.358 67.8731 61.358C68.9709 61.358 69.8607 62.248 69.8607 63.3458V66.4266H72.9416C74.0395 66.4266 74.9295 67.3166 74.9295 68.4144C74.9294 69.5125 74.0396 70.4023 72.9416 70.4023Z" fill="#00629B"/>
</g>
<defs>
<clipPath id="clip0">
<rect width="60" height="60" fill="white" transform="translate(23 20)"/>
</clipPath>
</defs>
</svg>
