<svg width="382" height="200" viewBox="0 0 382 200" fill="none" xmlns="http://www.w3.org/2000/svg">
<path d="M15.4418 37.8931C18.7026 37.8884 21.8784 36.853 24.5154 34.935C27.1524 33.017 29.1156 30.3145 30.1244 27.2137H51.0086C52.6581 27.2212 54.2561 27.7891 55.5404 28.8242C56.8247 29.8594 57.7191 31.3002 58.0768 32.9105C58.9056 36.641 60.9775 39.979 63.9528 42.3771C66.9281 44.7751 70.6301 46.0908 74.4515 46.1082H105.837C99.3418 56.2117 94.7316 67.4085 92.2293 79.1559H89.0182C86.7946 79.1597 84.6198 78.503 82.7699 77.2692C80.9199 76.0355 79.478 74.2801 78.6269 72.2257C77.055 68.4343 74.3928 65.1949 70.9778 62.9181C67.5628 60.6413 63.5487 59.4297 59.4443 59.4368H55.5903C54.4562 55.9385 52.1108 52.9599 48.9762 51.0368C45.8416 49.1138 42.1235 48.3726 38.4911 48.9467C34.8587 49.5208 31.5504 51.3724 29.1616 54.1684C26.7728 56.9644 25.4603 60.5212 25.4603 64.1987C25.4603 67.8762 26.7728 71.433 29.1616 74.229C31.5504 77.025 34.8587 78.8766 38.4911 79.4507C42.1235 80.0248 45.8416 79.2836 48.9762 77.3606C52.1108 75.4376 54.4562 72.4589 55.5903 68.9606H59.4443C61.6677 68.9568 63.8421 69.6131 65.6921 70.8464C67.542 72.0798 68.9841 73.8346 69.8356 75.8884C71.4074 79.6799 74.0695 82.9193 77.4846 85.196C80.8997 87.4727 84.9138 88.684 89.0182 88.6766H90.6849C90.2563 92.4371 90.0401 96.2187 90.0373 100.004C90.0373 100.523 90.0492 101.041 90.0571 101.559L71.2412 101.469C67.3118 101.466 63.4549 102.527 60.0798 104.54C56.7047 106.552 53.9373 109.44 52.0713 112.898C51.0209 114.845 49.4628 116.472 47.5624 117.605C45.662 118.738 43.4902 119.336 41.2776 119.334H33.6942C32.5062 115.86 30.1174 112.923 26.9576 111.053C23.7978 109.183 20.0744 108.502 16.4572 109.132C12.8399 109.762 9.56623 111.662 7.22505 114.491C4.88388 117.32 3.62886 120.891 3.68577 124.562C3.74267 128.233 5.10777 131.764 7.53548 134.518C9.96319 137.273 13.2942 139.071 16.9292 139.589C20.5643 140.107 24.2648 139.31 27.3651 137.343C30.4655 135.376 32.7621 132.367 33.8419 128.858H41.28C45.2097 128.86 49.0669 127.799 52.442 125.786C55.8171 123.773 58.5843 120.884 60.4499 117.425C61.4976 115.481 63.0516 113.857 64.9473 112.724C66.843 111.591 69.0098 110.992 71.2182 110.99L90.6539 111.083C91.9548 122.85 95.3506 134.289 100.681 144.859H88.788C83.5632 144.881 78.4838 146.582 74.3 149.712C70.1163 152.842 67.0502 157.234 65.5546 162.24C64.6476 165.278 62.7875 167.943 60.2491 169.843C57.7108 171.742 54.6288 172.774 51.4586 172.787H43.3704C42.2364 169.289 39.891 166.31 36.7563 164.387C33.6217 162.464 29.9036 161.723 26.2712 162.297C22.6388 162.871 19.3305 164.723 16.9417 167.519C14.5529 170.315 13.2404 173.872 13.2404 177.549C13.2404 181.227 14.5529 184.783 16.9417 187.579C19.3305 190.375 22.6388 192.227 26.2712 192.801C29.9036 193.375 33.6217 192.634 36.7563 190.711C39.891 188.788 42.2364 185.809 43.3704 182.311H51.4586C56.6834 182.29 61.7629 180.588 65.9466 177.459C70.1303 174.329 73.1964 169.936 74.692 164.93C75.599 161.892 77.4591 159.227 79.9974 157.327C82.5358 155.428 85.6178 154.395 88.788 154.382H106.157C115.221 168.382 127.645 179.89 142.296 187.858C156.947 195.826 173.36 200 190.037 200C206.715 200 223.127 195.826 237.778 187.858C252.429 179.89 264.853 168.382 273.917 154.382H292.52C295.691 154.395 298.773 155.428 301.311 157.327C303.849 159.227 305.709 161.892 306.616 164.93C308.112 169.936 311.178 174.329 315.362 177.459C319.546 180.588 324.625 182.29 329.85 182.311H337.938C339.072 185.809 341.417 188.788 344.552 190.711C347.687 192.634 351.405 193.375 355.037 192.801C358.67 192.227 361.978 190.375 364.367 187.579C366.756 184.783 368.068 181.227 368.068 177.549C368.068 173.872 366.756 170.315 364.367 167.519C361.978 164.723 358.67 162.871 355.037 162.297C351.405 161.723 347.687 162.464 344.552 164.387C341.417 166.31 339.072 169.289 337.938 172.787H329.85C326.68 172.774 323.598 171.742 321.059 169.843C318.521 167.943 316.661 165.278 315.754 162.24C314.258 157.234 311.192 152.842 307.008 149.712C302.825 146.582 297.745 144.881 292.52 144.859H279.393C284.723 134.291 288.119 122.853 289.42 111.089L310.067 110.99C312.28 110.988 314.451 111.585 316.352 112.718C318.252 113.851 319.81 115.478 320.861 117.425C322.727 120.884 325.494 123.773 328.869 125.786C332.244 127.799 336.101 128.86 340.031 128.858H347.469C348.549 132.379 350.851 135.4 353.959 137.376C357.068 139.351 360.78 140.152 364.427 139.635C368.074 139.117 371.417 137.314 373.853 134.551C376.289 131.788 377.659 128.247 377.716 124.563C377.773 120.88 376.514 117.298 374.164 114.461C371.815 111.624 368.53 109.718 364.901 109.088C361.272 108.457 357.537 109.143 354.368 111.021C351.199 112.899 348.805 115.847 347.617 119.334H340.031C337.818 119.336 335.646 118.738 333.746 117.605C331.846 116.472 330.288 114.845 329.237 112.898C327.369 109.437 324.598 106.547 321.218 104.535C317.839 102.523 313.978 101.463 310.045 101.469L290.018 101.565C290.026 101.045 290.038 100.526 290.038 100.004C290.036 96.2198 289.82 92.4392 289.393 88.6797H292.29C296.395 88.6872 300.409 87.4758 303.824 85.1992C307.239 82.9225 309.901 79.6831 311.473 75.8916C312.324 73.8377 313.766 72.0829 315.616 70.8496C317.466 69.6163 319.641 68.9599 321.864 68.9638H325.718C326.852 72.4621 329.198 75.4407 332.332 77.3638C335.467 79.2868 339.185 80.028 342.817 79.4539C346.45 78.8798 349.758 77.0282 352.147 74.2322C354.536 71.4362 355.848 67.8794 355.848 64.2019C355.848 60.5244 354.536 56.9676 352.147 54.1716C349.758 51.3756 346.45 49.524 342.817 48.9499C339.185 48.3758 335.467 49.117 332.332 51.04C329.198 52.963 326.852 55.9417 325.718 59.44H321.864C317.76 59.4324 313.746 60.6435 310.331 62.9198C306.917 65.196 304.254 68.4348 302.682 72.2257C301.831 74.2795 300.388 76.0341 298.538 77.2673C296.688 78.5005 294.514 79.1567 292.29 79.1527H287.846C285.343 67.4053 280.733 56.2085 274.239 46.105H306.858C310.679 46.0876 314.381 44.772 317.356 42.3739C320.332 39.9759 322.404 36.6378 323.232 32.9073C323.59 31.2971 324.485 29.8562 325.769 28.8211C327.053 27.7859 328.651 27.218 330.301 27.2105H351.185C352.319 30.7088 354.664 33.6874 357.799 35.6105C360.934 37.5335 364.652 38.2747 368.284 37.7006C371.916 37.1265 375.225 35.2749 377.614 32.4789C380.002 29.6829 381.315 26.1261 381.315 22.4486C381.315 18.7711 380.002 15.2143 377.614 12.4183C375.225 9.62232 371.916 7.77067 368.284 7.19659C364.652 6.6225 360.934 7.36366 357.799 9.28671C354.664 11.2098 352.319 14.1884 351.185 17.6867H330.3C326.479 17.7041 322.776 19.0197 319.801 21.4178C316.826 23.8158 314.754 27.1539 313.925 30.8843C313.567 32.4946 312.673 33.9355 311.389 34.9706C310.104 36.0057 308.506 36.5736 306.857 36.5812H267.297C257.929 25.1462 246.139 15.9333 232.779 9.60736C219.418 3.28138 204.82 0 190.037 0C175.255 0 160.656 3.28138 147.296 9.60736C133.935 15.9333 122.145 25.1462 112.777 36.5812H74.4515C72.802 36.5736 71.204 36.0057 69.9197 34.9706C68.6354 33.9355 67.741 32.4946 67.3832 30.8843C66.5545 27.1539 64.4826 23.8158 61.5072 21.4178C58.5319 19.0197 54.8299 17.7041 51.0086 17.6867H30.1244C29.2456 14.978 27.6348 12.565 25.4701 10.7148C23.3053 8.86458 20.6711 7.64911 17.8586 7.20281C15.046 6.75652 12.1649 7.09679 9.53373 8.186C6.90257 9.27521 4.62392 11.0709 2.94978 13.3745C1.27564 15.6782 0.271241 18.3999 0.0476633 21.2388C-0.175914 24.0777 0.39004 26.9232 1.68294 29.4605C2.97583 31.9977 4.94529 34.128 7.37351 35.6157C9.80173 37.1033 12.5941 37.8904 15.4418 37.8899V37.8931ZM40.9085 70.1154C39.7382 70.1154 38.5941 69.7683 37.621 69.1181C36.6478 68.4679 35.8894 67.5437 35.4415 66.4624C34.9936 65.3812 34.8764 64.1914 35.1048 63.0435C35.3331 61.8956 35.8967 60.8412 36.7243 60.0136C37.5518 59.186 38.6062 58.6225 39.7541 58.3941C40.902 58.1658 42.0918 58.283 43.1731 58.7309C44.2543 59.1788 45.1785 59.9372 45.8287 60.9103C46.479 61.8835 46.826 63.0275 46.826 64.1979C46.8252 65.7674 46.2016 67.2725 45.0921 68.3827C43.9827 69.4929 42.4781 70.1175 40.9085 70.1194V70.1154ZM19.0878 130.222C17.9172 130.222 16.7729 129.875 15.7995 129.225C14.8261 128.575 14.0675 127.65 13.6194 126.569C13.1714 125.487 13.0541 124.297 13.2825 123.149C13.5108 122.001 14.0745 120.947 14.9022 120.119C15.7299 119.291 16.7845 118.727 17.9326 118.499C19.0807 118.271 20.2708 118.388 21.3522 118.836C22.4337 119.284 23.358 120.043 24.0082 121.016C24.6585 121.99 25.0055 123.134 25.0053 124.304C25.0034 125.873 24.3794 127.377 23.27 128.487C22.1607 129.596 20.6567 130.22 19.0878 130.222ZM28.691 183.476C27.5207 183.476 26.3766 183.129 25.4035 182.479C24.4303 181.829 23.6719 180.904 23.224 179.823C22.7761 178.742 22.6589 177.552 22.8873 176.404C23.1156 175.256 23.6792 174.202 24.5068 173.374C25.3343 172.547 26.3887 171.983 27.5366 171.755C28.6845 171.526 29.8743 171.644 30.9556 172.092C32.0368 172.539 32.961 173.298 33.6112 174.271C34.2615 175.244 34.6085 176.388 34.6085 177.559C34.606 179.127 33.9813 180.631 32.8715 181.74C31.7617 182.849 30.2574 183.472 28.6887 183.473L28.691 183.476ZM352.622 171.641C353.793 171.641 354.937 171.988 355.91 172.638C356.883 173.289 357.641 174.213 358.089 175.294C358.537 176.375 358.654 177.565 358.426 178.713C358.198 179.861 357.634 180.915 356.806 181.743C355.979 182.57 354.924 183.134 353.777 183.362C352.629 183.591 351.439 183.473 350.358 183.026C349.276 182.578 348.352 181.819 347.702 180.846C347.052 179.873 346.705 178.729 346.705 177.559C346.706 175.99 347.329 174.485 348.438 173.375C349.547 172.265 351.051 171.64 352.62 171.638L352.622 171.641ZM362.225 118.387C363.396 118.387 364.54 118.734 365.514 119.384C366.487 120.034 367.246 120.958 367.694 122.04C368.142 123.121 368.259 124.311 368.031 125.459C367.803 126.607 367.239 127.662 366.411 128.49C365.584 129.318 364.529 129.881 363.381 130.11C362.233 130.338 361.043 130.221 359.962 129.773C358.88 129.325 357.956 128.567 357.305 127.593C356.655 126.62 356.308 125.476 356.308 124.305C356.309 122.737 356.933 121.233 358.041 120.124C359.149 119.014 360.652 118.389 362.221 118.386L362.225 118.387ZM340.405 58.2852C341.575 58.2852 342.719 58.6322 343.692 59.2825C344.665 59.9327 345.424 60.8569 345.872 61.9382C346.32 63.0194 346.437 64.2092 346.208 65.3571C345.98 66.505 345.417 67.5594 344.589 68.387C343.761 69.2145 342.707 69.7781 341.559 70.0065C340.411 70.2348 339.221 70.1176 338.14 69.6697C337.059 69.2218 336.135 68.4634 335.484 67.4902C334.834 66.5171 334.487 65.373 334.487 64.2027C334.489 62.6345 335.112 61.131 336.22 60.0216C337.329 58.9123 338.832 58.2876 340.4 58.2844L340.405 58.2852ZM365.871 16.5391C367.042 16.5392 368.186 16.8864 369.159 17.5367C370.132 18.187 370.89 19.1113 371.338 20.1925C371.786 21.2738 371.903 22.4636 371.674 23.6114C371.446 24.7593 370.882 25.8136 370.055 26.6411C369.227 27.4686 368.173 28.0321 367.025 28.2604C365.877 28.4886 364.687 28.3714 363.606 27.9235C362.525 27.4756 361.601 26.7171 360.95 25.744C360.3 24.7709 359.953 23.6269 359.953 22.4565C359.954 20.8875 360.576 19.3827 361.685 18.2724C362.794 17.1621 364.298 16.537 365.867 16.5343L365.871 16.5391ZM137.516 57.3741C133.523 69.6147 131.329 82.3704 131.002 95.2417H99.6857C100.671 76.2713 107.632 58.0986 119.571 43.324C124.987 48.688 131.009 53.4031 137.516 57.3741ZM119.571 156.683C107.632 141.908 100.671 123.736 99.6857 104.765H131.002C131.329 117.637 133.523 130.392 137.516 142.633C131.009 146.604 124.987 151.319 119.571 156.683ZM140.534 104.765H185.276V128.067C171.658 128.686 158.307 132.059 146.029 137.981C142.698 127.21 140.849 116.035 140.534 104.765ZM230.693 52.8669C219.522 58.5061 207.298 61.7553 194.801 62.4074V11.3692C210.782 20.3335 223.062 34.7399 230.692 52.8669H230.693ZM194.801 71.9384C208.417 71.2982 221.757 67.8703 233.996 61.867C237.361 72.6861 239.228 83.9155 239.543 95.2417H194.799L194.801 71.9384ZM239.543 104.765C239.228 116.092 237.362 127.321 233.997 138.14C221.759 132.137 208.419 128.709 194.803 128.069V104.765H239.543ZM194.799 188.638V137.6C207.296 138.252 219.52 141.501 230.692 147.14C223.062 165.267 210.782 179.674 194.799 188.638ZM185.276 137.597V188.638C169.244 179.647 156.942 165.186 149.315 146.985C160.532 141.423 172.772 138.228 185.276 137.597ZM239.016 151.92C244.4 155.409 249.391 159.469 253.902 164.03C242.601 175.323 228.512 183.423 213.066 187.506C224.106 178.172 232.883 166.078 239.016 151.92ZM242.49 142.845C246.527 130.54 248.745 117.712 249.073 104.765H280.389C279.397 123.852 272.358 142.128 260.29 156.948C254.92 151.577 248.947 146.845 242.49 142.845ZM249.073 95.2417C248.745 82.2956 246.527 69.4669 242.49 57.1622C248.947 53.1622 254.92 48.4297 260.29 43.059C272.358 57.8792 279.397 76.1552 280.389 95.2417H249.073ZM239.016 48.0868C232.883 33.9288 224.106 21.8351 213.064 12.5009C228.509 16.5846 242.599 24.6844 253.9 35.9772C249.389 40.5378 244.399 44.5978 239.016 48.0868ZM185.276 11.3692V62.4098C172.772 61.779 160.532 58.5838 149.315 53.0225C156.941 34.8216 169.246 20.3597 185.276 11.3692ZM185.276 71.94V95.2417H140.534C140.849 83.9717 142.698 72.7972 146.029 62.0265C158.307 67.9486 171.658 71.321 185.276 71.94ZM125.933 163.789C130.49 159.227 135.53 155.176 140.965 151.707C147.102 165.958 155.913 178.125 167.008 187.506C151.452 183.392 137.273 175.206 125.933 163.789ZM167.008 12.5009C155.913 21.8819 147.102 34.0494 140.965 48.3003C135.53 44.8315 130.49 40.78 125.933 36.2177C137.273 24.8016 151.452 16.6149 167.008 12.5009ZM15.4418 16.5343C16.6122 16.5343 17.7562 16.8813 18.7294 17.5316C19.7025 18.1818 20.461 19.106 20.9088 20.1872C21.3567 21.2685 21.4739 22.4583 21.2456 23.6062C21.0172 24.7541 20.4537 25.8085 19.6261 26.6361C18.7985 27.4636 17.7441 28.0272 16.5962 28.2555C15.4484 28.4839 14.2586 28.3667 13.1773 27.9188C12.096 27.4709 11.1718 26.7125 10.5216 25.7393C9.87137 24.7662 9.52432 23.6221 9.52432 22.4518C9.526 20.8829 10.15 19.3787 11.2594 18.2693C12.3687 17.16 13.8729 16.536 15.4418 16.5343Z" fill="#333333"/>
</svg>
