<svg width="100" height="100" viewBox="0 0 100 100" fill="none" xmlns="http://www.w3.org/2000/svg">
<circle cx="50" cy="50" r="48.5" stroke="#00629B" stroke-width="3"/>
<path d="M50 88C70.9868 88 88 70.9868 88 50C88 29.0132 70.9868 12 50 12C29.0132 12 12 29.0132 12 50C12 70.9868 29.0132 88 50 88Z" fill="#00629B"/>
<path d="M45.1543 56.463C45.1543 54.566 45.5738 52.9974 46.4129 51.7571C47.2884 50.5168 48.5469 49.1488 50.1885 47.6531C51.3924 46.5587 52.2679 45.6467 52.8151 44.9171C53.3988 44.151 53.6906 43.2937 53.6906 42.3452C53.6906 40.9955 53.1434 39.9376 52.049 39.1715C50.9911 38.3689 49.5684 37.9676 47.7809 37.9676C46.0663 37.9676 44.5341 38.3324 43.1844 39.062C41.8711 39.7552 40.7585 40.7401 39.8465 42.0169L33.2253 38.1318C34.7575 35.7971 36.8186 33.9913 39.4087 32.7145C42.0353 31.4377 45.1361 30.7993 48.7111 30.7993C52.9063 30.7993 56.2625 31.6931 58.7796 33.4806C61.3332 35.2681 62.61 37.7488 62.61 40.9225C62.61 42.4182 62.3546 43.7315 61.8439 44.8624C61.3697 45.9932 60.7677 46.96 60.0381 47.7625C59.345 48.5286 58.433 49.4224 57.3021 50.4438C55.9524 51.6476 54.9674 52.6691 54.3473 53.5081C53.7271 54.3107 53.417 55.2956 53.417 56.463H45.1543ZM49.313 70.1977C47.8173 70.1977 46.5588 69.7235 45.5373 68.775C44.5524 67.79 44.0599 66.6044 44.0599 65.2182C44.0599 63.832 44.5524 62.6828 45.5373 61.7708C46.5223 60.8224 47.7809 60.3481 49.313 60.3481C50.8452 60.3481 52.1037 60.8224 53.0887 61.7708C54.0737 62.6828 54.5661 63.832 54.5661 65.2182C54.5661 66.6044 54.0554 67.79 53.034 68.775C52.049 69.7235 50.8087 70.1977 49.313 70.1977Z" fill="white"/>
</svg>
