<svg width="100" height="100" viewBox="0 0 100 100" fill="none" xmlns="http://www.w3.org/2000/svg">
<circle cx="50" cy="50" r="50" fill="white"/>
<path d="M43.624 58.504C43.624 56.008 44.176 53.944 45.28 52.312C46.432 50.68 48.088 48.88 50.248 46.912C51.832 45.472 52.984 44.272 53.704 43.312C54.472 42.304 54.856 41.176 54.856 39.928C54.856 38.152 54.136 36.76 52.696 35.752C51.304 34.696 49.432 34.168 47.08 34.168C44.824 34.168 42.808 34.648 41.032 35.608C39.304 36.52 37.84 37.816 36.64 39.496L27.928 34.384C29.944 31.312 32.656 28.936 36.064 27.256C39.52 25.576 43.6 24.736 48.304 24.736C53.824 24.736 58.24 25.912 61.552 28.264C64.912 30.616 66.592 33.88 66.592 38.056C66.592 40.024 66.256 41.752 65.584 43.24C64.96 44.728 64.168 46 63.208 47.056C62.296 48.064 61.096 49.24 59.608 50.584C57.832 52.168 56.536 53.512 55.72 54.616C54.904 55.672 54.496 56.968 54.496 58.504H43.624ZM49.096 76.576C47.128 76.576 45.472 75.952 44.128 74.704C42.832 73.408 42.184 71.848 42.184 70.024C42.184 68.2 42.832 66.688 44.128 65.488C45.424 64.24 47.08 63.616 49.096 63.616C51.112 63.616 52.768 64.24 54.064 65.488C55.36 66.688 56.008 68.2 56.008 70.024C56.008 71.848 55.336 73.408 53.992 74.704C52.696 75.952 51.064 76.576 49.096 76.576Z" fill="#00629B"/>
</svg>
