<svg width="326" height="200" viewBox="0 0 326 200" fill="none" xmlns="http://www.w3.org/2000/svg">
<g clip-path="url(#clip0)">
<path d="M50.8656 44.5156C49.5473 43.1487 47.356 43.0947 45.9713 44.3963L45.7138 44.6403C44.3374 45.9504 44.2975 48.1144 45.6244 49.4733C46.3036 50.1689 47.2096 50.5189 48.1169 50.5189C48.9817 50.5189 49.8478 50.2007 50.5194 49.5612L50.7444 49.3479C52.1291 48.0463 52.1835 45.8831 50.8656 44.5156Z" fill="#4F4F4F"/>
<path d="M120.688 179.81C120.044 179.174 119.151 178.809 118.24 178.809C117.326 178.809 116.437 179.174 115.793 179.81C115.149 180.446 114.778 181.328 114.778 182.227C114.778 183.125 115.149 184.007 115.793 184.643C116.437 185.278 117.33 185.645 118.24 185.645C119.151 185.645 120.044 185.279 120.688 184.643C121.332 184.007 121.702 183.125 121.702 182.227C121.702 181.328 121.332 180.446 120.688 179.81Z" fill="#4F4F4F"/>
<path d="M118.24 118.647C111.749 118.647 106.469 123.86 106.469 130.268C106.469 135.487 109.972 139.913 114.778 141.375V168.669C114.778 170.556 116.328 172.087 118.24 172.087C120.151 172.087 121.701 170.556 121.701 168.669V141.375C126.507 139.913 130.01 135.487 130.01 130.268C130.01 123.86 124.73 118.647 118.24 118.647ZM118.24 135.053C115.567 135.053 113.393 132.907 113.393 130.268C113.393 127.629 115.567 125.483 118.24 125.483C120.912 125.483 123.086 127.629 123.086 130.268C123.086 132.907 120.912 135.053 118.24 135.053Z" fill="#4F4F4F"/>
<path d="M162.533 193.164H145.827V159.515C145.827 153.928 147.529 148.557 150.75 143.984C160.444 130.217 166.284 111.02 165.989 93.8841C165.666 75.1119 157.999 57.6283 144.402 44.6537C130.808 31.6825 112.849 24.7095 93.8307 25.0093C80.0739 25.2287 66.7869 29.3412 55.406 36.9035C53.8198 37.9572 53.3992 40.0812 54.4668 41.6473C55.5345 43.213 57.6853 43.6293 59.2714 42.5746C64.731 38.9471 70.6773 36.1997 76.9154 34.3919V86.5221L71.6971 91.6703C70.0538 90.8086 68.1817 90.3181 66.195 90.3181C59.7049 90.3181 54.425 95.5312 54.425 101.939C54.425 108.347 59.7049 113.56 66.195 113.56C72.6851 113.56 77.965 108.347 77.965 101.939C77.965 99.9763 77.4675 98.1265 76.5938 96.5033L82.8243 90.3567C83.4741 89.7155 83.8393 88.8457 83.8393 87.9389V32.7954C87.157 32.2198 90.5337 31.8989 93.9428 31.8449C95.7821 31.8155 97.6036 31.8674 99.4065 31.9895V63.1829C94.6009 64.6461 91.0983 69.0713 91.0983 74.2902C91.0983 80.6982 96.3782 85.9113 102.868 85.9113C109.358 85.9113 114.638 80.6982 114.638 74.2902C114.638 69.0713 111.136 64.6458 106.33 63.1829V32.8333C111.399 33.7319 116.267 35.2211 120.856 37.2285V87.9385C120.856 88.8453 121.221 89.7152 121.871 90.3564L128.101 96.5029C127.227 98.1261 126.73 99.9759 126.73 101.939C126.73 108.347 132.01 113.56 138.5 113.56C144.99 113.56 150.27 108.347 150.27 101.939C150.27 95.5309 144.99 90.3178 138.5 90.3178C136.513 90.3178 134.641 90.8083 132.998 91.6699L127.78 86.5218V40.7695C146.181 51.6312 158.677 71.3439 159.067 93.9996C159.334 109.535 153.838 127.623 145.066 140.081C141.035 145.805 138.904 152.525 138.904 159.515V193.164H106.33V163.77C106.33 162.863 105.965 161.993 105.315 161.352L99.0849 155.205C99.9587 153.582 100.456 151.732 100.456 149.769C100.456 143.361 95.1762 138.148 88.6861 138.148C82.196 138.148 76.9161 143.361 76.9161 149.769C76.9161 156.177 82.196 161.39 88.6861 161.39C90.6728 161.39 92.5449 160.9 94.1882 160.038L99.4065 165.186V193.164H87.2533V188.054C87.2533 180.704 81.1969 174.724 73.7527 174.724H51.9702C44.4765 174.724 38.38 168.705 38.38 161.306V136.637C38.38 134.75 36.8302 133.219 34.9182 133.219H19.3721L30.7727 96.0938C30.8714 95.7725 30.9216 95.4382 30.9216 95.1022C30.9216 83.2101 34.2809 71.6235 40.636 61.5945C41.1363 60.8053 41.6618 60.0154 42.1987 59.246C43.2836 57.6916 42.8865 55.5635 41.3121 54.4923C39.738 53.4211 37.5824 53.8128 36.4975 55.3677C35.9031 56.2194 35.3208 57.0944 34.7666 57.9688C27.8133 68.9418 24.0953 81.5941 23.9998 94.5895L11.392 135.646C11.0742 136.682 11.2716 137.805 11.9244 138.674C12.5773 139.543 13.6089 140.056 14.7049 140.056H31.4558V161.306C31.4558 172.474 40.6582 181.56 51.9695 181.56H73.752C77.3786 181.56 80.3291 184.473 80.3291 188.054V193.164H14.7049C12.793 193.164 11.2432 194.695 11.2432 196.582C11.2432 198.469 12.793 200 14.7049 200H162.533C164.445 200 165.994 198.469 165.994 196.582C165.994 194.695 164.445 193.164 162.533 193.164ZM66.195 106.724C63.5225 106.724 61.3485 104.578 61.3485 101.939C61.3485 99.3002 63.5225 97.1537 66.195 97.1537C68.8675 97.1537 71.0415 99.3002 71.0415 101.939C71.0415 104.578 68.8675 106.724 66.195 106.724ZM107.714 74.2899C107.714 76.9286 105.54 79.075 102.868 79.075C100.195 79.075 98.0211 76.9286 98.0211 74.2899C98.0211 71.6512 100.195 69.5047 102.868 69.5047C105.54 69.5047 107.714 71.6512 107.714 74.2899ZM138.499 97.1537C141.172 97.1537 143.346 99.3005 143.346 101.939C143.346 104.578 141.172 106.724 138.499 106.724C135.827 106.724 133.653 104.578 133.653 101.939C133.653 99.3002 135.827 97.1537 138.499 97.1537ZM88.6854 154.554C86.0129 154.554 83.8389 152.408 83.8389 149.769C83.8389 147.131 86.0129 144.984 88.6854 144.984C91.3579 144.984 93.5319 147.131 93.5319 149.769C93.5319 152.408 91.3579 154.554 88.6854 154.554Z" fill="#4F4F4F"/>
</g>
<g clip-path="url(#clip1)">
<path d="M251.28 196.609C251.28 198.483 247.847 200 247.847 200H165.449C163.553 200 162.017 198.483 162.017 196.609V152.542C162.017 146.233 159.659 140.144 155.379 135.394C140.951 119.386 133.588 98.7498 134.651 77.2816C136.679 36.3452 169.39 3.21973 210.739 0.226837C233.295 -1.40635 254.929 5.82081 271.706 20.5719C288.308 35.1659 298.058 55.187 299.215 77.0237L313.988 117.859C314.909 120.402 314.679 123.217 313.357 125.575C312.037 127.94 309.746 129.629 307.081 130.215L293.372 133.219L289.61 167.866C289.09 172.66 285.017 176.272 280.135 176.272H251.28V196.609Z" fill="white"/>
<path d="M165.449 200C167.347 200 168.883 198.483 168.883 196.609V152.542C168.883 144.572 165.909 136.882 160.506 130.886C147.283 116.215 140.535 97.2932 141.51 77.6135C143.368 40.0947 173.344 9.73128 211.242 6.98666C231.891 5.50089 251.76 12.1171 267.138 25.6345C282.548 39.1792 291.516 57.8193 292.396 78.1197C292.422 78.7191 292.606 79.2913 292.925 79.7878L307.523 120.142C307.874 121.114 307.564 121.913 307.346 122.299C307.128 122.687 306.611 123.372 305.592 123.595L289.475 127.129C288.037 127.447 286.964 128.632 286.807 130.079L282.784 167.144C282.634 168.483 281.499 169.491 280.134 169.491H247.847C245.949 169.491 244.415 171.008 244.415 172.882V196.609C244.415 198.483 245.949 200 247.847 200C249.744 200 251.281 198.483 251.281 196.609V176.272H280.136C285.017 176.272 289.09 172.661 289.61 167.866L293.372 133.22L307.081 130.215C309.747 129.629 312.037 127.94 313.357 125.575C314.68 123.217 314.909 120.402 313.988 117.859L299.215 77.0238C298.058 55.1871 288.308 35.166 271.706 20.572C254.929 5.82093 233.296 -1.40623 210.739 0.226959C169.39 3.21985 136.679 36.3453 134.651 77.2818C133.589 98.7499 140.952 119.386 155.379 135.394C159.66 140.144 162.017 146.233 162.017 152.542V196.609C162.017 198.483 163.553 200 165.449 200V200Z" fill="#333333"/>
<path d="M216.949 142.373C222.628 142.373 227.247 137.811 227.247 132.203V131.195C234.586 129.812 241.588 126.947 247.78 122.794L248.505 123.512C252.524 127.468 259.06 127.482 263.072 123.512C267.089 119.545 267.089 113.094 263.072 109.129L262.349 108.409C266.555 102.298 269.456 95.3827 270.857 88.1361H271.88C277.56 88.1361 282.178 83.5741 282.178 77.9665C282.178 72.359 277.56 67.7988 271.88 67.7988H270.857C269.456 60.5523 266.555 53.6354 262.349 47.5255L263.076 46.8059C267.089 42.8413 267.089 36.388 263.072 32.4234C259.066 28.4606 252.528 28.4568 248.509 32.4195L247.78 33.141C241.592 28.9882 234.586 26.1234 227.247 24.7404V23.7298C227.247 18.1223 222.628 13.5621 216.949 13.5621C211.269 13.5621 206.649 18.1223 206.649 23.7298V24.7404C199.309 26.1234 192.308 28.9882 186.116 33.141L185.391 32.4234C181.371 28.4665 174.837 28.4529 170.824 32.4234C166.806 36.388 166.806 42.8413 170.824 46.8059L171.547 47.5255C167.341 53.6354 164.439 60.5523 163.039 67.7988H162.017C156.338 67.7988 151.717 72.359 151.717 77.9665C151.717 83.5741 156.338 88.1361 162.017 88.1361H163.039C164.439 95.3827 167.341 102.298 171.547 108.409L170.82 109.129C166.806 113.094 166.806 119.545 170.824 123.512C174.83 127.474 181.367 127.478 185.389 123.515L186.116 122.794C192.308 126.947 199.309 129.812 206.649 131.195V132.203C206.649 137.811 211.269 142.373 216.949 142.373V142.373ZM248.145 114.967C247.414 114.967 246.68 115.196 246.063 115.662C239.442 120.651 231.594 123.865 223.359 124.951C221.656 125.176 220.381 126.613 220.381 128.31V132.203C220.381 134.075 218.843 135.594 216.949 135.594C215.053 135.594 213.515 134.075 213.515 132.203V128.31C213.515 126.613 212.242 125.176 210.537 124.951C202.303 123.865 194.455 120.651 187.833 115.662C186.471 114.632 184.54 114.756 183.32 115.961L180.531 118.719C179.195 120.036 177.02 120.036 175.678 118.719C174.34 117.394 174.34 115.245 175.678 113.922L178.472 111.164C179.686 109.961 179.812 108.058 178.77 106.708C173.718 100.176 170.462 92.4266 169.362 84.2975C169.134 82.6159 167.679 81.357 165.96 81.357H162.017C160.121 81.357 158.583 79.8383 158.583 77.9665C158.583 76.0967 160.121 74.5779 162.017 74.5779H165.96C167.679 74.5779 169.134 73.3191 169.362 71.6374C170.462 63.5083 173.714 55.7574 178.77 49.2266C179.814 47.8766 179.686 45.9719 178.472 44.7712L175.682 42.013C174.342 40.6902 174.342 38.541 175.678 37.2163C177.014 35.8992 179.193 35.8953 180.533 37.2201L183.32 39.9744C184.54 41.1732 186.471 41.305 187.833 40.2732C194.455 35.2844 202.303 32.0703 210.537 30.9841C212.24 30.7591 213.515 29.3218 213.515 27.6246V23.7298C213.515 21.86 215.053 20.3412 216.949 20.3412C218.843 20.3412 220.381 21.86 220.381 23.7298V27.6246C220.381 29.3218 221.656 30.7591 223.359 30.9841C231.594 32.0703 239.442 35.2844 246.057 40.2732C247.424 41.305 249.349 41.179 250.569 39.9744L253.363 37.2163C254.703 35.8992 256.876 35.8992 258.217 37.2163C259.555 38.541 259.555 40.6902 258.217 42.013L255.424 44.7712C254.21 45.9719 254.084 47.8766 255.125 49.2266C260.182 55.7574 263.433 63.5083 264.533 71.6374C264.761 73.3191 266.217 74.5779 267.936 74.5779H271.88C273.774 74.5779 275.312 76.0967 275.312 77.9665C275.312 79.8383 273.774 81.357 271.88 81.357H267.936C266.217 81.357 264.761 82.6139 264.533 84.2975C263.433 92.4266 260.178 100.176 255.125 106.708C254.082 108.058 254.21 109.961 255.424 111.164L258.213 113.922C259.555 115.245 259.555 117.394 258.217 118.719C256.883 120.036 254.703 120.04 253.363 118.715L250.577 115.961C249.909 115.305 249.027 114.967 248.145 114.967V114.967ZM216.949 105.085C232.093 105.085 244.415 92.9213 244.415 77.9665C244.415 63.0137 232.093 50.8482 216.949 50.8482C201.802 50.8482 189.483 63.0137 189.483 77.9665C189.483 92.9213 201.804 105.085 216.949 105.085ZM216.949 57.6292C228.308 57.6292 237.547 66.7514 237.547 77.9665C237.547 89.1816 228.308 98.3057 216.949 98.3057C205.59 98.3057 196.349 89.1816 196.349 77.9665C196.349 66.7514 205.59 57.6292 216.949 57.6292Z" fill="#333333"/>
<path d="M254.713 81.357C256.61 81.357 258.147 79.8402 258.147 77.9665C258.147 55.5363 239.667 37.2899 216.949 37.2899C215.051 37.2899 213.515 38.8067 213.515 40.6804C213.515 42.5541 215.051 44.069 216.949 44.069C235.879 44.069 251.281 59.2759 251.281 77.9665C251.281 79.8402 252.817 81.357 254.713 81.357Z" fill="#333333"/>
</g>
<defs>
<clipPath id="clip0">
<rect width="177.243" height="175" fill="white" transform="translate(0 25)"/>
</clipPath>
<clipPath id="clip1">
<rect width="202.563" height="200" fill="white" transform="matrix(-1 0 0 1 326 0)"/>
</clipPath>
</defs>
</svg>
