<svg width="390" height="218" viewBox="0 0 390 218" fill="none" xmlns="http://www.w3.org/2000/svg">
<path d="M181.669 78.0416C181.795 78.0416 181.922 77.9833 182.018 77.867C182.211 77.6348 182.211 77.2579 182.018 77.0256C177.903 72.0604 177.903 63.9811 182.018 59.0158C182.211 58.7835 182.211 58.4067 182.018 58.1744C181.826 57.9419 181.513 57.9419 181.321 58.1744C176.821 63.6035 176.821 72.4379 181.321 77.8673C181.417 77.9833 181.543 78.0416 181.669 78.0416Z" fill="#4F4F4F"/>
<path d="M196.943 77.0257C196.751 77.258 196.751 77.6349 196.943 77.8671C197.04 77.9834 197.166 78.0414 197.292 78.0414C197.418 78.0414 197.544 77.9834 197.641 77.8671C202.14 72.4377 202.14 63.6036 197.641 58.1742C197.448 57.9419 197.136 57.9419 196.943 58.1742C196.751 58.4067 196.751 58.7833 196.943 59.0159C201.058 63.9811 201.058 72.0602 196.943 77.0257V77.0257Z" fill="#4F4F4F"/>
<path d="M183.18 75.6229C183.277 75.7391 183.403 75.7971 183.529 75.7971C183.655 75.7971 183.781 75.7391 183.878 75.6229C184.07 75.3903 184.07 75.0134 183.878 74.7812C180.788 71.0535 180.788 64.9879 183.878 61.2602C184.07 61.0277 184.07 60.6511 183.878 60.4186C183.685 60.1863 183.373 60.1863 183.18 60.4186C179.707 64.6104 179.707 71.431 183.18 75.6229Z" fill="#4F4F4F"/>
<path d="M197.4 68.0207C197.4 70.5774 196.578 72.9785 195.084 74.7812C194.891 75.0137 194.891 75.3903 195.084 75.6229C195.18 75.7388 195.306 75.7971 195.432 75.7971C195.559 75.7971 195.685 75.7391 195.781 75.6229C197.461 73.5953 198.387 70.8954 198.387 68.0207C198.387 65.146 197.461 62.4461 195.781 60.4186C195.588 60.1863 195.276 60.1863 195.084 60.4186C194.891 60.6511 194.891 61.0277 195.084 61.2602C196.578 63.0629 197.4 65.4637 197.4 68.0207Z" fill="#4F4F4F"/>
<path d="M185.04 73.3788C185.137 73.4947 185.263 73.553 185.389 73.553C185.515 73.553 185.642 73.495 185.738 73.3788C185.93 73.1462 185.93 72.7693 185.738 72.5371C183.674 70.0469 183.674 65.9948 185.738 63.5043C185.93 63.2721 185.93 62.8952 185.738 62.6629C185.545 62.4304 185.233 62.4304 185.04 62.6629C182.592 65.6173 182.592 70.4244 185.04 73.3788Z" fill="#4F4F4F"/>
<path d="M194.771 68.0209C194.771 69.7289 194.222 71.3329 193.224 72.5371C193.031 72.7696 193.031 73.1462 193.224 73.3788C193.32 73.495 193.446 73.553 193.572 73.553C193.698 73.553 193.825 73.495 193.921 73.3788C195.105 71.9496 195.758 70.0469 195.758 68.0209C195.758 65.9948 195.105 64.0918 193.921 62.6629C193.728 62.4304 193.416 62.4304 193.224 62.6629C193.031 62.8952 193.031 63.2721 193.224 63.5043C194.222 64.7088 194.771 66.3125 194.771 68.0209V68.0209Z" fill="#4F4F4F"/>
<path d="M200.71 92.9888H197.829L193.301 78.3427C193.206 78.0348 192.922 77.8782 192.667 77.9933C192.412 78.108 192.282 78.4507 192.377 78.7587L196.776 92.9885H182.185L188.584 72.2895C188.871 72.3771 189.172 72.4241 189.481 72.4241C189.79 72.4241 190.09 72.3771 190.377 72.2892L191.664 76.453C191.739 76.6926 191.927 76.8406 192.127 76.8406C192.184 76.8406 192.242 76.8284 192.299 76.8028C192.554 76.688 192.684 76.3453 192.589 76.0374L191.291 71.8412C192.389 71.081 193.13 69.6537 193.13 68.0207C193.13 65.5924 191.493 63.6169 189.481 63.6169C187.468 63.6169 185.831 65.5924 185.831 68.0207C185.831 69.654 186.573 71.0813 187.67 71.8415L181.132 92.9888H178.077C176.931 92.9888 176 94.1128 176 95.4946C176 96.8762 176.931 98.0001 178.077 98.0001H179.223C179.495 98.0001 179.716 97.7337 179.716 97.405C179.716 97.0763 179.495 96.8099 179.223 96.8099H178.077C177.475 96.8099 176.986 96.2197 176.986 95.4946C176.986 94.7692 177.475 94.179 178.077 94.179H200.71C201.311 94.179 201.8 94.7692 201.8 95.4946C201.8 96.2197 201.311 96.8099 200.71 96.8099H181.196C180.923 96.8099 180.703 97.0763 180.703 97.405C180.703 97.7337 180.923 98.0001 181.196 98.0001H200.71C201.855 98.0001 202.786 96.8762 202.786 95.4946C202.786 94.1128 201.855 92.9888 200.71 92.9888V92.9888ZM186.817 68.0207C186.817 66.2488 188.012 64.8071 189.481 64.8071C190.949 64.8071 192.144 66.2488 192.144 68.0207C192.144 69.7925 190.949 71.2342 189.481 71.2342C188.012 71.2342 186.817 69.7925 186.817 68.0207Z" fill="#4F4F4F"/>
<path d="M189.48 76.1719C189.275 76.1719 189.09 76.3263 189.018 76.5591L184.801 90.2022C184.744 90.385 184.766 90.5895 184.858 90.7494C184.95 90.9096 185.101 91.0051 185.263 91.0051H193.698C193.86 91.0051 194.011 90.9096 194.103 90.7494C194.195 90.5895 194.217 90.385 194.16 90.2022L189.943 76.5591C189.871 76.3263 189.686 76.1719 189.48 76.1719V76.1719ZM189.48 78.4696L190.336 81.236L188.912 80.3095L189.48 78.4696ZM192.383 87.8593L187.591 86.3554L191.018 83.4416L192.383 87.8593ZM187.458 85.0132L188.564 81.4353L190.321 82.5782L187.458 85.0132ZM185.973 89.8149L186.745 87.3195L192.804 89.2211L192.988 89.8149H185.973Z" fill="#4F4F4F"/>
<path d="M208.196 121.562H200C199.676 121.562 199.414 121.825 199.414 122.148C199.414 122.472 199.676 122.734 200 122.734H208.196C208.545 122.734 208.828 123.018 208.828 123.367V145.93C208.828 146.279 208.545 146.562 208.196 146.562H171.804C171.455 146.562 171.172 146.279 171.172 145.93V123.367C171.172 123.018 171.455 122.734 171.804 122.734H184.678V123.906H172.93C172.606 123.906 172.344 124.168 172.344 124.492V139.974C172.344 140.298 172.606 140.56 172.93 140.56C173.253 140.56 173.516 140.298 173.516 139.974V125.078H184.678V128.221L182.169 129.42C181.969 129.516 181.836 129.723 181.836 129.949V139.504C181.836 139.73 181.966 139.936 182.169 140.033L189.747 143.654C189.911 143.731 190.097 143.727 190.253 143.654L194.513 141.618C194.805 141.479 194.929 141.129 194.789 140.837C194.65 140.545 194.299 140.421 194.008 140.561L190.586 142.196V133.939L196.992 130.878V139.135L196.122 139.551C195.83 139.69 195.706 140.04 195.846 140.332C195.985 140.624 196.335 140.748 196.627 140.608L197.831 140.033C198.034 139.936 198.164 139.73 198.164 139.504V129.949C198.164 129.725 198.034 129.517 197.831 129.42L195.322 128.221V125.078H206.484V144.219H173.516V142.474C173.516 142.15 173.253 141.888 172.93 141.888C172.606 141.888 172.344 142.15 172.344 142.474V144.805C172.344 145.128 172.606 145.391 172.93 145.391H207.07C207.394 145.391 207.656 145.128 207.656 144.805V124.492C207.656 124.168 207.394 123.906 207.07 123.906H195.322V122.734H197.5C197.824 122.734 198.086 122.472 198.086 122.148C198.086 121.825 197.824 121.562 197.5 121.562H195.322V120.391H200.576C200.9 120.391 201.162 120.128 201.162 119.805V118.415C201.844 118.173 202.334 117.522 202.334 116.758C202.334 115.789 201.545 115 200.576 115C199.607 115 198.818 115.789 198.818 116.758C198.818 117.522 199.308 118.173 199.99 118.415V119.219H194.736C194.413 119.219 194.15 119.481 194.15 119.805V121.562H190.586V118.415C191.268 118.173 191.758 117.522 191.758 116.758C191.758 115.789 190.969 115 190 115C189.031 115 188.242 115.789 188.242 116.758C188.242 117.522 188.732 118.173 189.414 118.415V121.562H185.85V119.805C185.85 119.481 185.587 119.219 185.264 119.219H180.01V118.415C180.692 118.173 181.182 117.522 181.182 116.758C181.182 115.789 180.393 115 179.424 115C178.455 115 177.666 115.789 177.666 116.758C177.666 117.522 178.156 118.173 178.838 118.415V119.805C178.838 120.128 179.1 120.391 179.424 120.391H184.678V121.562H171.804C170.809 121.562 170 122.372 170 123.367V145.93C170 146.925 170.809 147.734 171.804 147.734H184.507C184.281 149.884 182.859 151.139 182.411 151.484H179.922C178.953 151.484 178.164 152.273 178.164 153.242C178.164 154.211 178.953 155 179.922 155H200.078C201.047 155 201.836 154.211 201.836 153.242C201.836 152.273 201.047 151.484 200.078 151.484H197.59C197.148 151.14 195.722 149.874 195.493 147.734H208.196C209.191 147.734 210 146.925 210 145.93V123.367C210 122.372 209.191 121.562 208.196 121.562ZM200.576 116.172C200.899 116.172 201.162 116.435 201.162 116.758C201.162 117.081 200.899 117.344 200.576 117.344C200.253 117.344 199.99 117.081 199.99 116.758C199.99 116.435 200.253 116.172 200.576 116.172ZM190 116.172C190.323 116.172 190.586 116.435 190.586 116.758C190.586 117.081 190.323 117.344 190 117.344C189.677 117.344 189.414 117.081 189.414 116.758C189.414 116.435 189.677 116.172 190 116.172ZM179.424 116.172C179.747 116.172 180.01 116.435 180.01 116.758C180.01 117.081 179.747 117.344 179.424 117.344C179.101 117.344 178.838 117.081 178.838 116.758C178.838 116.435 179.101 116.172 179.424 116.172ZM185.85 125.078H189.414V125.959L185.85 127.662V125.078ZM196.219 129.949L190 132.92L183.781 129.949L190 126.978L196.219 129.949ZM183.008 130.878L189.414 133.939V142.196L183.008 139.135V130.878ZM194.15 127.662L190.586 125.959V125.078H194.15V127.662ZM194.15 122.734V123.906H190.586V122.734H194.15ZM189.414 122.734V123.906H185.85V122.734H189.414ZM200.664 153.242C200.664 153.565 200.401 153.828 200.078 153.828H179.922C179.599 153.828 179.336 153.565 179.336 153.242C179.336 152.919 179.599 152.656 179.922 152.656H200.078C200.401 152.656 200.664 152.919 200.664 153.242ZM195.909 151.484H184.091C184.778 150.682 185.54 149.432 185.686 147.734H194.314C194.46 149.432 195.222 150.682 195.909 151.484Z" fill="#BDBDBD"/>
<path d="M208.065 172H191.935C190.869 172 190 172.869 190 173.935V181.677H191.29V177.161H193.719C193.008 178.046 192.581 179.167 192.581 180.387C192.581 182.487 193.889 184.372 195.806 185.155V188.146C195.266 187.736 194.6 187.484 193.871 187.484C193.159 187.484 192.581 188.063 192.581 188.774V196.516H191.29V185.926L188.977 183.613H185.484V172H181.613V183.613H180.323V175.871H176.452V183.613H175.161V178.452H171.29V183.613H170V184.903H188.443L190 186.461V201.032C190 202.099 190.869 202.968 191.935 202.968H194.516V204.258H193.226V212H206.129V204.258H204.839V202.968H208.065C209.131 202.968 210 202.099 210 201.032V173.935C210 172.869 209.131 172 208.065 172ZM182.903 173.29H184.194V183.613H182.903V173.29ZM177.742 177.161H179.032V183.613H177.742V177.161ZM172.581 179.742H173.871V183.613H172.581V179.742ZM191.29 173.935C191.29 173.58 191.58 173.29 191.935 173.29H208.065C208.42 173.29 208.71 173.58 208.71 173.935V175.871H200.235C199.495 175.46 198.646 175.226 197.742 175.226C196.838 175.226 195.989 175.46 195.249 175.871H191.29V173.935ZM205.804 186.865C205.474 186.812 205.144 186.843 204.839 186.95V186.263C204.839 185.284 204.144 184.434 203.223 184.285C202.864 184.226 202.504 184.268 202.177 184.4C202.093 184.11 201.945 183.846 201.752 183.625C202.487 182.713 202.903 181.57 202.903 180.387C202.903 179.167 202.475 178.046 201.764 177.161H208.71V196.516H207.419V188.843C207.419 187.865 206.725 187.015 205.804 186.865ZM193.871 180.387C193.871 178.252 195.607 176.516 197.742 176.516C199.877 176.516 201.613 178.252 201.613 180.387C201.613 181.352 201.247 182.283 200.601 182.992C200.286 182.948 199.969 182.976 199.677 183.079V181.032C199.677 180.464 199.429 179.927 198.995 179.557C198.561 179.189 197.988 179.029 197.421 179.123C196.501 179.273 195.806 180.123 195.806 181.101V183.724C194.639 183.042 193.871 181.778 193.871 180.387V180.387ZM191.935 201.677C191.58 201.677 191.29 201.388 191.29 201.032V197.806H192.668C192.743 198.138 192.864 198.457 193.041 198.752L194.516 201.211V201.677H191.935ZM194.516 210.71V208.129H201.613V206.839H194.516V205.548H204.839V206.839H202.903V208.129H204.839V210.71H194.516ZM195.806 204.258V200.854L194.147 198.087C193.966 197.787 193.871 197.442 193.871 197.092V188.774C194.938 188.774 195.806 189.643 195.806 190.71V193.935H197.097V181.101C197.097 180.755 197.33 180.445 197.629 180.396C197.824 180.366 198.013 180.415 198.159 180.541C198.304 180.663 198.387 180.843 198.387 181.032V193.935H199.677V184.903C199.677 184.714 199.761 184.534 199.905 184.411C200.052 184.287 200.24 184.236 200.435 184.267C200.734 184.316 200.968 184.626 200.968 184.972V193.935H202.258V186.194C202.258 186.004 202.341 185.825 202.486 185.702C202.633 185.577 202.821 185.526 203.016 185.558C203.315 185.606 203.548 185.916 203.548 186.263V193.935H204.839V188.774C204.839 188.585 204.922 188.405 205.066 188.282C205.214 188.158 205.401 188.107 205.597 188.138C205.896 188.187 206.129 188.497 206.129 188.843V196.901C206.129 197.339 205.979 197.768 205.704 198.111L203.548 200.806V204.258H195.806ZM208.065 201.677H204.839V201.259L206.712 198.917C206.975 198.588 207.161 198.208 207.279 197.807H208.71V201.033C208.71 201.388 208.42 201.677 208.065 201.677V201.677Z" fill="#828282"/>
<path d="M177.742 201.032V202.323C177.742 203.39 178.61 204.258 179.677 204.258C180.744 204.258 181.613 203.39 181.613 202.323V198.452C181.613 197.385 180.744 196.516 179.677 196.516C178.61 196.516 177.742 197.385 177.742 198.452V199.742H179.032V198.452C179.032 198.096 179.321 197.806 179.677 197.806C180.033 197.806 180.323 198.096 180.323 198.452V202.323C180.323 202.678 180.033 202.968 179.677 202.968C179.321 202.968 179.032 202.678 179.032 202.323V201.032H177.742Z" fill="#828282"/>
<path d="M184.194 202.323V198.452C184.194 197.655 183.979 196.867 183.574 196.174L182.459 196.826C182.75 197.322 182.903 197.884 182.903 198.452V202.323C182.903 204.101 181.456 205.548 179.677 205.548C178.877 205.548 178.107 205.249 177.51 204.706L176.642 205.66C177.477 206.42 178.555 206.839 179.677 206.839C182.167 206.839 184.194 204.813 184.194 202.323V202.323Z" fill="#828282"/>
<path d="M182.567 194.982C181.758 194.307 180.732 193.936 179.678 193.936C177.188 193.936 175.161 195.961 175.161 198.452V202.323C175.161 203.046 175.339 203.768 175.675 204.41L176.817 203.812C176.575 203.347 176.452 202.846 176.452 202.323V198.452C176.452 196.673 177.899 195.226 179.678 195.226C180.43 195.226 181.163 195.491 181.74 195.973L182.567 194.982Z" fill="#828282"/>
<path d="M184.323 205.806L185.355 206.581C186.283 205.345 186.774 203.873 186.774 202.322V198.452C186.774 194.539 183.59 191.355 179.677 191.355C178.045 191.355 176.45 191.924 175.187 192.957L176.005 193.956C177.037 193.111 178.342 192.645 179.677 192.645C182.879 192.645 185.484 195.25 185.484 198.452V202.322C185.484 203.591 185.083 204.795 184.323 205.806V205.806Z" fill="#828282"/>
<path d="M179.677 208.129C176.475 208.129 173.871 205.524 173.871 202.323V198.452C173.871 197.116 174.337 195.811 175.182 194.778L174.184 193.961C173.15 195.224 172.581 196.819 172.581 198.452V202.323C172.581 206.235 175.764 209.419 179.677 209.419H182.479C184.661 209.419 186.711 210.268 188.253 211.811L189.166 210.899C187.379 209.112 185.005 208.129 182.479 208.129H179.677Z" fill="#828282"/>
<path d="M171.935 186.194H187.419V187.484H171.935V186.194Z" fill="#828282"/>
<path d="M179.032 188.774H180.323V190.064H179.032V188.774Z" fill="#828282"/>
<path d="M181.613 188.774H182.903V190.064H181.613V188.774Z" fill="#828282"/>
<path d="M176.452 188.774H177.742V190.064H176.452V188.774Z" fill="#828282"/>
<path d="M206.104 17.9647L195.205 14.8508V9.40924H202.12V10.6621H201.089C200.765 10.6621 200.502 10.9247 200.502 11.2489V13.6757C200.502 13.9999 200.765 14.2626 201.089 14.2626H204.325C204.649 14.2626 204.911 13.9999 204.911 13.6757V11.249C204.911 10.9248 204.649 10.6621 204.325 10.6621H203.293V9.40924H205.942C206.235 9.40924 206.483 9.19362 206.524 8.90377C206.564 8.61393 206.385 8.33853 206.104 8.25807L194.793 5.02664C194.792 5.02641 194.791 5.02625 194.791 5.02609L194.779 5.02273C194.774 5.02141 194.77 5.0207 194.765 5.01953C194.753 5.01625 194.74 5.01313 194.727 5.0107C194.718 5.00891 194.708 5.00773 194.699 5.00641C194.69 5.00508 194.681 5.00367 194.671 5.00281C194.658 5.00164 194.645 5.00117 194.632 5.00086C194.627 5.00063 194.623 5 194.618 5H194.605C194.605 5 194.604 5 194.604 5H184.926C184.925 5 184.924 5 184.923 5H184.911C184.907 5 184.903 5.00055 184.898 5.0007C184.885 5.00102 184.871 5.00148 184.858 5.00273C184.849 5.00352 184.84 5.00492 184.831 5.00617C184.821 5.00758 184.812 5.00875 184.802 5.01063C184.789 5.01305 184.777 5.01609 184.764 5.0193C184.76 5.02055 184.755 5.02125 184.75 5.02258L184.738 5.02609C184.737 5.02625 184.737 5.02633 184.737 5.02648L173.426 8.25807C173.144 8.33853 172.965 8.61393 173.006 8.90377C173.046 9.19362 173.294 9.40924 173.587 9.40924H176.236V10.6621H175.205C174.881 10.6621 174.618 10.9247 174.618 11.2489V13.6757C174.618 13.9999 174.881 14.2626 175.205 14.2626H178.44C178.764 14.2626 179.027 13.9999 179.027 13.6757V11.249C179.027 10.9248 178.764 10.6621 178.44 10.6621H177.409V9.40924H184.324V14.8508L173.426 17.9647C173.144 18.0452 172.965 18.3205 173.006 18.6104C173.046 18.9002 173.294 19.1159 173.587 19.1159H176.236V20.3687H175.205C174.881 20.3687 174.618 20.6313 174.618 20.9556V23.3823C174.618 23.7065 174.881 23.9692 175.205 23.9692H178.44C178.764 23.9692 179.027 23.7065 179.027 23.3823V20.9556C179.027 20.6313 178.764 20.3687 178.44 20.3687H177.409V19.1159H184.324V24.9179L181.924 33.3184C181.924 33.3187 181.924 33.3191 181.924 33.3194L181.919 33.3357C181.919 33.3359 181.919 33.3363 181.919 33.3365L181.918 33.3403C181.918 33.341 181.917 33.3417 181.917 33.3424L179.615 41.3994H178.44C178.116 41.3994 177.853 41.6621 177.853 41.9863V43.8262H176.654C176.33 43.8262 176.067 44.0889 176.067 44.4131C176.067 44.7373 176.33 45 176.654 45H178.44H201.089H202.875C203.199 45 203.462 44.7373 203.462 44.4131C203.462 44.0889 203.199 43.8262 202.875 43.8262H201.676V41.9863C201.676 41.6621 201.413 41.3994 201.089 41.3994H199.914L197.612 33.3429C197.612 33.3417 197.611 33.3405 197.611 33.3393L197.606 33.3206C197.605 33.3197 197.605 33.3188 197.605 33.3178L195.205 24.9178V19.1158H202.12V20.3686H201.089C200.765 20.3686 200.502 20.6313 200.502 20.9555V23.3822C200.502 23.7064 200.765 23.9691 201.089 23.9691H204.325C204.649 23.9691 204.911 23.7064 204.911 23.3822V20.9556C204.911 20.6313 204.649 20.3687 204.325 20.3687H203.294V19.1159H205.942C206.235 19.1159 206.483 18.9002 206.524 18.6104C206.564 18.3205 206.385 18.0452 206.104 17.9647ZM203.738 11.8359V13.0889H201.676V11.8359H203.738ZM195.205 6.36501L201.752 8.23557H195.205V6.36501ZM177.853 11.8359V13.0889H175.792V11.8359H177.853ZM177.853 21.5424V22.7953H175.792V21.5424H177.853ZM185.498 6.17376H194.031V8.23557H185.498V6.17376ZM194.031 9.40924V14.1969L186.849 9.40924H194.031V9.40924ZM185.498 9.91901L192.68 14.7065H185.498V9.91901ZM185.498 15.8803H194.031V17.9422H185.498V15.8803ZM184.346 32.9063L189.765 29.1137L195.183 32.9063H184.346ZM194.559 34.0801L189.765 36.4771L184.971 34.0801H194.559ZM186.773 25.5869H192.756L189.765 27.6808L186.773 25.5869ZM194.031 19.1159V23.9034L186.85 19.1159H194.031ZM185.498 19.6256L192.68 24.4132H185.498V19.6256ZM177.777 8.23549L184.324 6.36493V8.23549H177.777ZM177.777 17.9421L184.324 16.0714V17.9421H177.777ZM185.249 25.9531L188.741 28.3973L183.504 32.0636L185.249 25.9531ZM182.855 34.3343L188.452 37.1332L180.989 40.865L182.855 34.3343ZM199.471 42.5736H199.471C199.472 42.5736 199.472 42.5734 199.473 42.5734H200.502V43.8265H200.502H179.027V42.5734H180.056C180.057 42.5734 180.058 42.5736 180.058 42.5736C180.059 42.5736 180.06 42.5734 180.061 42.5734H180.07C180.071 42.5734 180.072 42.5734 180.073 42.5734H185.6C185.924 42.5734 186.187 42.3108 186.187 41.9865C186.187 41.6623 185.924 41.3997 185.6 41.3997H182.544L189.765 37.7893L196.985 41.3997H188.217C187.892 41.3997 187.63 41.6623 187.63 41.9865C187.63 42.3108 187.892 42.5734 188.217 42.5734H199.468C199.469 42.5734 199.47 42.5736 199.471 42.5736ZM198.54 40.865L191.077 37.1332L196.674 34.3343L198.54 40.865ZM196.026 32.0637L190.788 28.3973L194.28 25.9531L196.026 32.0637ZM195.205 17.9421V16.0715L201.752 17.9421H195.205ZM203.738 21.5424V22.7953H201.676V21.5424H203.738Z" fill="#BDBDBD"/>
<path d="M361.669 78.0416C361.795 78.0416 361.922 77.9833 362.018 77.867C362.211 77.6348 362.211 77.2579 362.018 77.0256C357.903 72.0604 357.903 63.9811 362.018 59.0158C362.211 58.7835 362.211 58.4067 362.018 58.1744C361.826 57.9419 361.513 57.9419 361.321 58.1744C356.821 63.6035 356.821 72.4379 361.321 77.8673C361.417 77.9833 361.543 78.0416 361.669 78.0416Z" fill="#4F4F4F"/>
<path d="M376.943 77.0257C376.751 77.258 376.751 77.6349 376.943 77.8671C377.04 77.9834 377.166 78.0414 377.292 78.0414C377.418 78.0414 377.544 77.9834 377.641 77.8671C382.14 72.4377 382.14 63.6036 377.641 58.1742C377.448 57.9419 377.136 57.9419 376.943 58.1742C376.751 58.4067 376.751 58.7833 376.943 59.0159C381.058 63.9811 381.058 72.0602 376.943 77.0257V77.0257Z" fill="#4F4F4F"/>
<path d="M363.18 75.6229C363.277 75.7391 363.403 75.7971 363.529 75.7971C363.655 75.7971 363.781 75.7391 363.878 75.6229C364.07 75.3903 364.07 75.0134 363.878 74.7812C360.788 71.0535 360.788 64.9879 363.878 61.2602C364.07 61.0277 364.07 60.6511 363.878 60.4186C363.685 60.1863 363.373 60.1863 363.18 60.4186C359.707 64.6104 359.707 71.431 363.18 75.6229Z" fill="#4F4F4F"/>
<path d="M377.4 68.0207C377.4 70.5774 376.578 72.9785 375.084 74.7812C374.891 75.0137 374.891 75.3903 375.084 75.6229C375.18 75.7388 375.306 75.7971 375.432 75.7971C375.559 75.7971 375.685 75.7391 375.781 75.6229C377.461 73.5953 378.387 70.8954 378.387 68.0207C378.387 65.146 377.461 62.4461 375.781 60.4186C375.588 60.1863 375.276 60.1863 375.084 60.4186C374.891 60.6511 374.891 61.0277 375.084 61.2602C376.578 63.0629 377.4 65.4637 377.4 68.0207Z" fill="#4F4F4F"/>
<path d="M365.04 73.3788C365.137 73.4947 365.263 73.553 365.389 73.553C365.515 73.553 365.642 73.495 365.738 73.3788C365.93 73.1462 365.93 72.7693 365.738 72.5371C363.674 70.0469 363.674 65.9948 365.738 63.5043C365.93 63.2721 365.93 62.8952 365.738 62.6629C365.545 62.4304 365.233 62.4304 365.04 62.6629C362.592 65.6173 362.592 70.4244 365.04 73.3788Z" fill="#4F4F4F"/>
<path d="M374.771 68.0209C374.771 69.7289 374.222 71.3329 373.224 72.5371C373.031 72.7696 373.031 73.1462 373.224 73.3788C373.32 73.495 373.446 73.553 373.572 73.553C373.698 73.553 373.825 73.495 373.921 73.3788C375.105 71.9496 375.758 70.0469 375.758 68.0209C375.758 65.9948 375.105 64.0918 373.921 62.6629C373.728 62.4304 373.416 62.4304 373.224 62.6629C373.031 62.8952 373.031 63.2721 373.224 63.5043C374.222 64.7088 374.771 66.3125 374.771 68.0209V68.0209Z" fill="#4F4F4F"/>
<path d="M380.71 92.9888H377.829L373.301 78.3427C373.206 78.0348 372.922 77.8782 372.667 77.9933C372.412 78.108 372.282 78.4507 372.377 78.7587L376.776 92.9885H362.185L368.584 72.2895C368.871 72.3771 369.172 72.4241 369.481 72.4241C369.79 72.4241 370.09 72.3771 370.377 72.2892L371.664 76.453C371.739 76.6926 371.927 76.8406 372.127 76.8406C372.184 76.8406 372.242 76.8284 372.299 76.8028C372.554 76.688 372.684 76.3453 372.589 76.0374L371.291 71.8412C372.389 71.081 373.13 69.6537 373.13 68.0207C373.13 65.5924 371.493 63.6169 369.481 63.6169C367.468 63.6169 365.831 65.5924 365.831 68.0207C365.831 69.654 366.573 71.0813 367.67 71.8415L361.132 92.9888H358.077C356.931 92.9888 356 94.1128 356 95.4946C356 96.8762 356.931 98.0001 358.077 98.0001H359.223C359.495 98.0001 359.716 97.7337 359.716 97.405C359.716 97.0763 359.495 96.8099 359.223 96.8099H358.077C357.475 96.8099 356.986 96.2197 356.986 95.4946C356.986 94.7692 357.475 94.179 358.077 94.179H380.71C381.311 94.179 381.8 94.7692 381.8 95.4946C381.8 96.2197 381.311 96.8099 380.71 96.8099H361.196C360.923 96.8099 360.703 97.0763 360.703 97.405C360.703 97.7337 360.923 98.0001 361.196 98.0001H380.71C381.855 98.0001 382.786 96.8762 382.786 95.4946C382.786 94.1128 381.855 92.9888 380.71 92.9888V92.9888ZM366.817 68.0207C366.817 66.2488 368.012 64.8071 369.481 64.8071C370.949 64.8071 372.144 66.2488 372.144 68.0207C372.144 69.7925 370.949 71.2342 369.481 71.2342C368.012 71.2342 366.817 69.7925 366.817 68.0207Z" fill="#4F4F4F"/>
<path d="M369.48 76.1719C369.275 76.1719 369.09 76.3263 369.018 76.5591L364.801 90.2022C364.744 90.385 364.766 90.5895 364.858 90.7494C364.95 90.9096 365.101 91.0051 365.263 91.0051H373.698C373.86 91.0051 374.011 90.9096 374.103 90.7494C374.195 90.5895 374.217 90.385 374.16 90.2022L369.943 76.5591C369.871 76.3263 369.686 76.1719 369.48 76.1719V76.1719ZM369.48 78.4696L370.336 81.236L368.912 80.3095L369.48 78.4696ZM372.383 87.8593L367.591 86.3554L371.018 83.4416L372.383 87.8593ZM367.458 85.0132L368.564 81.4353L370.321 82.5782L367.458 85.0132ZM365.973 89.8149L366.745 87.3195L372.804 89.2211L372.988 89.8149H365.973Z" fill="#4F4F4F"/>
<path d="M388.196 121.562H380C379.676 121.562 379.414 121.825 379.414 122.148C379.414 122.472 379.676 122.734 380 122.734H388.196C388.545 122.734 388.828 123.018 388.828 123.367V145.93C388.828 146.279 388.545 146.562 388.196 146.562H351.804C351.455 146.562 351.172 146.279 351.172 145.93V123.367C351.172 123.018 351.455 122.734 351.804 122.734H364.678V123.906H352.93C352.606 123.906 352.344 124.168 352.344 124.492V139.974C352.344 140.298 352.606 140.56 352.93 140.56C353.253 140.56 353.516 140.298 353.516 139.974V125.078H364.678V128.221L362.169 129.42C361.969 129.516 361.836 129.723 361.836 129.949V139.504C361.836 139.73 361.966 139.936 362.169 140.033L369.747 143.654C369.911 143.731 370.097 143.727 370.253 143.654L374.513 141.618C374.805 141.479 374.929 141.129 374.789 140.837C374.65 140.545 374.299 140.421 374.008 140.561L370.586 142.196V133.939L376.992 130.878V139.135L376.122 139.551C375.83 139.69 375.706 140.04 375.846 140.332C375.985 140.624 376.335 140.748 376.627 140.608L377.831 140.033C378.034 139.936 378.164 139.73 378.164 139.504V129.949C378.164 129.725 378.034 129.517 377.831 129.42L375.322 128.221V125.078H386.484V144.219H353.516V142.474C353.516 142.15 353.253 141.888 352.93 141.888C352.606 141.888 352.344 142.15 352.344 142.474V144.805C352.344 145.128 352.606 145.391 352.93 145.391H387.07C387.394 145.391 387.656 145.128 387.656 144.805V124.492C387.656 124.168 387.394 123.906 387.07 123.906H375.322V122.734H377.5C377.824 122.734 378.086 122.472 378.086 122.148C378.086 121.825 377.824 121.562 377.5 121.562H375.322V120.391H380.576C380.9 120.391 381.162 120.128 381.162 119.805V118.415C381.844 118.173 382.334 117.522 382.334 116.758C382.334 115.789 381.545 115 380.576 115C379.607 115 378.818 115.789 378.818 116.758C378.818 117.522 379.308 118.173 379.99 118.415V119.219H374.736C374.413 119.219 374.15 119.481 374.15 119.805V121.562H370.586V118.415C371.268 118.173 371.758 117.522 371.758 116.758C371.758 115.789 370.969 115 370 115C369.031 115 368.242 115.789 368.242 116.758C368.242 117.522 368.732 118.173 369.414 118.415V121.562H365.85V119.805C365.85 119.481 365.587 119.219 365.264 119.219H360.01V118.415C360.692 118.173 361.182 117.522 361.182 116.758C361.182 115.789 360.393 115 359.424 115C358.455 115 357.666 115.789 357.666 116.758C357.666 117.522 358.156 118.173 358.838 118.415V119.805C358.838 120.128 359.1 120.391 359.424 120.391H364.678V121.562H351.804C350.809 121.562 350 122.372 350 123.367V145.93C350 146.925 350.809 147.734 351.804 147.734H364.507C364.281 149.884 362.859 151.139 362.411 151.484H359.922C358.953 151.484 358.164 152.273 358.164 153.242C358.164 154.211 358.953 155 359.922 155H380.078C381.047 155 381.836 154.211 381.836 153.242C381.836 152.273 381.047 151.484 380.078 151.484H377.59C377.148 151.14 375.722 149.874 375.493 147.734H388.196C389.191 147.734 390 146.925 390 145.93V123.367C390 122.372 389.191 121.562 388.196 121.562ZM380.576 116.172C380.899 116.172 381.162 116.435 381.162 116.758C381.162 117.081 380.899 117.344 380.576 117.344C380.253 117.344 379.99 117.081 379.99 116.758C379.99 116.435 380.253 116.172 380.576 116.172ZM370 116.172C370.323 116.172 370.586 116.435 370.586 116.758C370.586 117.081 370.323 117.344 370 117.344C369.677 117.344 369.414 117.081 369.414 116.758C369.414 116.435 369.677 116.172 370 116.172ZM359.424 116.172C359.747 116.172 360.01 116.435 360.01 116.758C360.01 117.081 359.747 117.344 359.424 117.344C359.101 117.344 358.838 117.081 358.838 116.758C358.838 116.435 359.101 116.172 359.424 116.172ZM365.85 125.078H369.414V125.959L365.85 127.662V125.078ZM376.219 129.949L370 132.92L363.781 129.949L370 126.978L376.219 129.949ZM363.008 130.878L369.414 133.939V142.196L363.008 139.135V130.878ZM374.15 127.662L370.586 125.959V125.078H374.15V127.662ZM374.15 122.734V123.906H370.586V122.734H374.15ZM369.414 122.734V123.906H365.85V122.734H369.414ZM380.664 153.242C380.664 153.565 380.401 153.828 380.078 153.828H359.922C359.599 153.828 359.336 153.565 359.336 153.242C359.336 152.919 359.599 152.656 359.922 152.656H380.078C380.401 152.656 380.664 152.919 380.664 153.242ZM375.909 151.484H364.091C364.778 150.682 365.54 149.432 365.686 147.734H374.314C374.46 149.432 375.222 150.682 375.909 151.484Z" fill="#333333"/>
<path d="M388.065 172H371.935C370.869 172 370 172.869 370 173.935V181.677H371.29V177.161H373.719C373.008 178.046 372.581 179.167 372.581 180.387C372.581 182.487 373.889 184.372 375.806 185.155V188.146C375.266 187.736 374.6 187.484 373.871 187.484C373.159 187.484 372.581 188.063 372.581 188.774V196.516H371.29V185.926L368.977 183.613H365.484V172H361.613V183.613H360.323V175.871H356.452V183.613H355.161V178.452H351.29V183.613H350V184.903H368.443L370 186.461V201.032C370 202.099 370.869 202.968 371.935 202.968H374.516V204.258H373.226V212H386.129V204.258H384.839V202.968H388.065C389.131 202.968 390 202.099 390 201.032V173.935C390 172.869 389.131 172 388.065 172ZM362.903 173.29H364.194V183.613H362.903V173.29ZM357.742 177.161H359.032V183.613H357.742V177.161ZM352.581 179.742H353.871V183.613H352.581V179.742ZM371.29 173.935C371.29 173.58 371.58 173.29 371.935 173.29H388.065C388.42 173.29 388.71 173.58 388.71 173.935V175.871H380.235C379.495 175.46 378.646 175.226 377.742 175.226C376.838 175.226 375.989 175.46 375.249 175.871H371.29V173.935ZM385.804 186.865C385.474 186.812 385.144 186.843 384.839 186.95V186.263C384.839 185.284 384.144 184.434 383.223 184.285C382.864 184.226 382.504 184.268 382.177 184.4C382.093 184.11 381.945 183.846 381.752 183.625C382.487 182.713 382.903 181.57 382.903 180.387C382.903 179.167 382.475 178.046 381.764 177.161H388.71V196.516H387.419V188.843C387.419 187.865 386.725 187.015 385.804 186.865ZM373.871 180.387C373.871 178.252 375.607 176.516 377.742 176.516C379.877 176.516 381.613 178.252 381.613 180.387C381.613 181.352 381.247 182.283 380.601 182.992C380.286 182.948 379.969 182.976 379.677 183.079V181.032C379.677 180.464 379.429 179.927 378.995 179.557C378.561 179.189 377.988 179.029 377.421 179.123C376.501 179.273 375.806 180.123 375.806 181.101V183.724C374.639 183.042 373.871 181.778 373.871 180.387V180.387ZM371.935 201.677C371.58 201.677 371.29 201.388 371.29 201.032V197.806H372.668C372.743 198.138 372.864 198.457 373.041 198.752L374.516 201.211V201.677H371.935ZM374.516 210.71V208.129H381.613V206.839H374.516V205.548H384.839V206.839H382.903V208.129H384.839V210.71H374.516ZM375.806 204.258V200.854L374.147 198.087C373.966 197.787 373.871 197.442 373.871 197.092V188.774C374.938 188.774 375.806 189.643 375.806 190.71V193.935H377.097V181.101C377.097 180.755 377.33 180.445 377.629 180.396C377.824 180.366 378.013 180.415 378.159 180.541C378.304 180.663 378.387 180.843 378.387 181.032V193.935H379.677V184.903C379.677 184.714 379.761 184.534 379.905 184.411C380.052 184.287 380.24 184.236 380.435 184.267C380.734 184.316 380.968 184.626 380.968 184.972V193.935H382.258V186.194C382.258 186.004 382.341 185.825 382.486 185.702C382.633 185.577 382.821 185.526 383.016 185.558C383.315 185.606 383.548 185.916 383.548 186.263V193.935H384.839V188.774C384.839 188.585 384.922 188.405 385.066 188.282C385.214 188.158 385.401 188.107 385.597 188.138C385.896 188.187 386.129 188.497 386.129 188.843V196.901C386.129 197.339 385.979 197.768 385.704 198.111L383.548 200.806V204.258H375.806ZM388.065 201.677H384.839V201.259L386.712 198.917C386.975 198.588 387.161 198.208 387.279 197.807H388.71V201.033C388.71 201.388 388.42 201.677 388.065 201.677V201.677Z" fill="#4F4F4F"/>
<path d="M357.742 201.032V202.323C357.742 203.39 358.61 204.258 359.677 204.258C360.744 204.258 361.613 203.39 361.613 202.323V198.452C361.613 197.385 360.744 196.516 359.677 196.516C358.61 196.516 357.742 197.385 357.742 198.452V199.742H359.032V198.452C359.032 198.096 359.321 197.806 359.677 197.806C360.033 197.806 360.323 198.096 360.323 198.452V202.323C360.323 202.678 360.033 202.968 359.677 202.968C359.321 202.968 359.032 202.678 359.032 202.323V201.032H357.742Z" fill="#4F4F4F"/>
<path d="M364.194 202.323V198.452C364.194 197.655 363.979 196.867 363.574 196.174L362.459 196.826C362.75 197.322 362.903 197.884 362.903 198.452V202.323C362.903 204.101 361.456 205.548 359.677 205.548C358.877 205.548 358.107 205.249 357.51 204.706L356.642 205.66C357.477 206.42 358.555 206.839 359.677 206.839C362.167 206.839 364.194 204.813 364.194 202.323V202.323Z" fill="#4F4F4F"/>
<path d="M362.567 194.982C361.758 194.307 360.732 193.936 359.678 193.936C357.188 193.936 355.161 195.961 355.161 198.452V202.323C355.161 203.046 355.339 203.768 355.675 204.41L356.817 203.812C356.575 203.347 356.452 202.846 356.452 202.323V198.452C356.452 196.673 357.899 195.226 359.678 195.226C360.43 195.226 361.163 195.491 361.74 195.973L362.567 194.982Z" fill="#4F4F4F"/>
<path d="M364.323 205.806L365.355 206.581C366.283 205.345 366.774 203.873 366.774 202.322V198.452C366.774 194.539 363.59 191.355 359.677 191.355C358.045 191.355 356.45 191.924 355.187 192.957L356.005 193.956C357.037 193.111 358.342 192.645 359.677 192.645C362.879 192.645 365.484 195.25 365.484 198.452V202.322C365.484 203.591 365.083 204.795 364.323 205.806V205.806Z" fill="#4F4F4F"/>
<path d="M359.677 208.129C356.475 208.129 353.871 205.524 353.871 202.323V198.452C353.871 197.116 354.337 195.811 355.182 194.778L354.184 193.961C353.15 195.224 352.581 196.819 352.581 198.452V202.323C352.581 206.235 355.764 209.419 359.677 209.419H362.479C364.661 209.419 366.711 210.268 368.253 211.811L369.166 210.899C367.379 209.112 365.005 208.129 362.479 208.129H359.677Z" fill="#4F4F4F"/>
<path d="M351.935 186.194H367.419V187.484H351.935V186.194Z" fill="#4F4F4F"/>
<path d="M359.032 188.774H360.323V190.064H359.032V188.774Z" fill="#4F4F4F"/>
<path d="M361.613 188.774H362.903V190.064H361.613V188.774Z" fill="#4F4F4F"/>
<path d="M356.452 188.774H357.742V190.064H356.452V188.774Z" fill="#4F4F4F"/>
<path d="M386.104 17.9647L375.205 14.8508V9.40924H382.12V10.6621H381.089C380.765 10.6621 380.502 10.9247 380.502 11.2489V13.6757C380.502 13.9999 380.765 14.2626 381.089 14.2626H384.325C384.649 14.2626 384.911 13.9999 384.911 13.6757V11.249C384.911 10.9248 384.649 10.6621 384.325 10.6621H383.293V9.40924H385.942C386.235 9.40924 386.483 9.19362 386.524 8.90377C386.564 8.61393 386.385 8.33853 386.104 8.25807L374.793 5.02664C374.792 5.02641 374.791 5.02625 374.791 5.02609L374.779 5.02273C374.774 5.02141 374.77 5.0207 374.765 5.01953C374.753 5.01625 374.74 5.01313 374.727 5.0107C374.718 5.00891 374.708 5.00773 374.699 5.00641C374.69 5.00508 374.681 5.00367 374.671 5.00281C374.658 5.00164 374.645 5.00117 374.632 5.00086C374.627 5.00063 374.623 5 374.618 5H374.605C374.605 5 374.604 5 374.604 5H364.926C364.925 5 364.924 5 364.923 5H364.911C364.907 5 364.903 5.00055 364.898 5.0007C364.885 5.00102 364.871 5.00148 364.858 5.00273C364.849 5.00352 364.84 5.00492 364.831 5.00617C364.821 5.00758 364.812 5.00875 364.802 5.01063C364.789 5.01305 364.777 5.01609 364.764 5.0193C364.76 5.02055 364.755 5.02125 364.75 5.02258L364.738 5.02609C364.737 5.02625 364.737 5.02633 364.737 5.02648L353.426 8.25807C353.144 8.33853 352.965 8.61393 353.006 8.90377C353.046 9.19362 353.294 9.40924 353.587 9.40924H356.236V10.6621H355.205C354.881 10.6621 354.618 10.9247 354.618 11.2489V13.6757C354.618 13.9999 354.881 14.2626 355.205 14.2626H358.44C358.764 14.2626 359.027 13.9999 359.027 13.6757V11.249C359.027 10.9248 358.764 10.6621 358.44 10.6621H357.409V9.40924H364.324V14.8508L353.426 17.9647C353.144 18.0452 352.965 18.3205 353.006 18.6104C353.046 18.9002 353.294 19.1159 353.587 19.1159H356.236V20.3687H355.205C354.881 20.3687 354.618 20.6313 354.618 20.9556V23.3823C354.618 23.7065 354.881 23.9692 355.205 23.9692H358.44C358.764 23.9692 359.027 23.7065 359.027 23.3823V20.9556C359.027 20.6313 358.764 20.3687 358.44 20.3687H357.409V19.1159H364.324V24.9179L361.924 33.3184C361.924 33.3187 361.924 33.3191 361.924 33.3194L361.919 33.3357C361.919 33.3359 361.919 33.3363 361.919 33.3365L361.918 33.3403C361.918 33.341 361.917 33.3417 361.917 33.3424L359.615 41.3994H358.44C358.116 41.3994 357.853 41.6621 357.853 41.9863V43.8262H356.654C356.33 43.8262 356.067 44.0889 356.067 44.4131C356.067 44.7373 356.33 45 356.654 45H358.44H381.089H382.875C383.199 45 383.462 44.7373 383.462 44.4131C383.462 44.0889 383.199 43.8262 382.875 43.8262H381.676V41.9863C381.676 41.6621 381.413 41.3994 381.089 41.3994H379.914L377.612 33.3429C377.612 33.3417 377.611 33.3405 377.611 33.3393L377.606 33.3206C377.605 33.3197 377.605 33.3188 377.605 33.3178L375.205 24.9178V19.1158H382.12V20.3686H381.089C380.765 20.3686 380.502 20.6313 380.502 20.9555V23.3822C380.502 23.7064 380.765 23.9691 381.089 23.9691H384.325C384.649 23.9691 384.911 23.7064 384.911 23.3822V20.9556C384.911 20.6313 384.649 20.3687 384.325 20.3687H383.294V19.1159H385.942C386.235 19.1159 386.483 18.9002 386.524 18.6104C386.564 18.3205 386.385 18.0452 386.104 17.9647ZM383.738 11.8359V13.0889H381.676V11.8359H383.738ZM375.205 6.36501L381.752 8.23557H375.205V6.36501ZM357.853 11.8359V13.0889H355.792V11.8359H357.853ZM357.853 21.5424V22.7953H355.792V21.5424H357.853ZM365.498 6.17376H374.031V8.23557H365.498V6.17376ZM374.031 9.40924V14.1969L366.849 9.40924H374.031V9.40924ZM365.498 9.91901L372.68 14.7065H365.498V9.91901ZM365.498 15.8803H374.031V17.9422H365.498V15.8803ZM364.346 32.9063L369.765 29.1137L375.183 32.9063H364.346ZM374.559 34.0801L369.765 36.4771L364.971 34.0801H374.559ZM366.773 25.5869H372.756L369.765 27.6808L366.773 25.5869ZM374.031 19.1159V23.9034L366.85 19.1159H374.031ZM365.498 19.6256L372.68 24.4132H365.498V19.6256ZM357.777 8.23549L364.324 6.36493V8.23549H357.777ZM357.777 17.9421L364.324 16.0714V17.9421H357.777ZM365.249 25.9531L368.741 28.3973L363.504 32.0636L365.249 25.9531ZM362.855 34.3343L368.452 37.1332L360.989 40.865L362.855 34.3343ZM379.471 42.5736H379.471C379.472 42.5736 379.472 42.5734 379.473 42.5734H380.502V43.8265H380.502H359.027V42.5734H360.056C360.057 42.5734 360.058 42.5736 360.058 42.5736C360.059 42.5736 360.06 42.5734 360.061 42.5734H360.07C360.071 42.5734 360.072 42.5734 360.073 42.5734H365.6C365.924 42.5734 366.187 42.3108 366.187 41.9865C366.187 41.6623 365.924 41.3997 365.6 41.3997H362.544L369.765 37.7893L376.985 41.3997H368.217C367.892 41.3997 367.63 41.6623 367.63 41.9865C367.63 42.3108 367.892 42.5734 368.217 42.5734H379.468C379.469 42.5734 379.47 42.5736 379.471 42.5736ZM378.54 40.865L371.077 37.1332L376.674 34.3343L378.54 40.865ZM376.026 32.0637L370.788 28.3973L374.28 25.9531L376.026 32.0637ZM375.205 17.9421V16.0715L381.752 17.9421H375.205ZM383.738 21.5424V22.7953H381.676V21.5424H383.738Z" fill="#333333"/>
<path d="M330.714 192.286V176.571C330.714 174.602 329.112 173 327.143 173H295.714C293.745 173 292.143 174.602 292.143 176.571V187.286C290.961 187.286 290 188.247 290 189.429V210.857C290 212.039 290.961 213 292.143 213H307.857C309.039 213 310 212.039 310 210.857H315.986C316.66 210.857 317.281 210.55 317.689 210.015C318.098 209.48 318.231 208.8 318.054 208.151L316.649 203H320.714V210.857C320.714 212.039 321.676 213 322.857 213H330.714C331.896 213 332.857 212.039 332.857 210.857V194.429C332.857 193.247 331.896 192.286 330.714 192.286ZM308.571 210.857C308.571 211.251 308.251 211.571 307.857 211.571H292.143C291.749 211.571 291.429 211.251 291.429 210.857V209.429H308.571V210.857ZM308.571 208H291.429V192.286H308.571V208ZM308.571 190.857H291.429V189.429C291.429 189.035 291.749 188.714 292.143 188.714H307.857C308.251 188.714 308.571 189.035 308.571 189.429V190.857ZM316.676 208.526C316.735 208.743 316.691 208.969 316.554 209.148C316.418 209.326 316.211 209.429 315.986 209.429H310V208H316.532L316.676 208.526ZM310 206.571V203H315.169L316.143 206.571H310ZM320.714 201.571H310V197.286H320.714V201.571ZM320.714 194.429V195.857H310V189.429C310 188.247 309.039 187.286 307.857 187.286H293.571V176.571C293.571 175.39 294.533 174.429 295.714 174.429H327.143C328.324 174.429 329.286 175.39 329.286 176.571V192.286H322.857C321.676 192.286 320.714 193.247 320.714 194.429ZM331.429 210.857C331.429 211.251 331.108 211.571 330.714 211.571H322.857C322.464 211.571 322.143 211.251 322.143 210.857V209.429H331.429V210.857ZM331.429 208H322.143V197.286H331.429V208ZM331.429 195.857H322.143V194.429C322.143 194.035 322.464 193.714 322.857 193.714H330.714C331.108 193.714 331.429 194.035 331.429 194.429V195.857Z" fill="#828282"/>
<path d="M296.638 199.637L293.781 202.494L294.791 203.504L297.648 200.647L296.638 199.637Z" fill="#828282"/>
<path d="M305.209 196.066L296.637 204.637L297.648 205.648L306.219 197.076L305.209 196.066Z" fill="#828282"/>
<path d="M302.351 193.924L298.066 198.209L299.076 199.219L303.361 194.934L302.351 193.924Z" fill="#828282"/>
<path d="M327.35 198.925L323.779 202.495L324.789 203.506L328.36 199.935L327.35 198.925Z" fill="#828282"/>
<path d="M328.778 201.785L325.207 205.355L326.217 206.366L329.788 202.795L328.778 201.785Z" fill="#828282"/>
<path d="M313.065 181.066L308.78 185.352L309.79 186.362L314.075 182.076L313.065 181.066Z" fill="#828282"/>
<path d="M319.494 179.638L315.209 183.924L316.219 184.934L320.504 180.648L319.494 179.638Z" fill="#828282"/>
<path d="M313.78 185.353L310.922 188.21L311.933 189.22L314.79 186.363L313.78 185.353Z" fill="#828282"/>
<path d="M317.354 176.783L314.49 179.647L315.5 180.657L318.364 177.793L317.354 176.783Z" fill="#828282"/>
<path d="M296.429 175.857H295V177.286H296.429V175.857Z" fill="#828282"/>
<path d="M299.286 175.857H297.857V177.286H299.286V175.857Z" fill="#828282"/>
<path d="M302.143 175.857H300.714V177.286H302.143V175.857Z" fill="#828282"/>
<path d="M301.669 23.0416C301.795 23.0416 301.922 22.9833 302.018 22.867C302.211 22.6348 302.211 22.2579 302.018 22.0256C297.903 17.0604 297.903 8.98106 302.018 4.01579C302.211 3.78355 302.211 3.40665 302.018 3.17441C301.826 2.94186 301.513 2.94186 301.321 3.17441C296.821 8.60355 296.821 17.4379 301.321 22.8673C301.417 22.9833 301.543 23.0416 301.669 23.0416Z" fill="#4F4F4F"/>
<path d="M316.943 22.0257C316.751 22.258 316.751 22.6349 316.943 22.8671C317.04 22.9834 317.166 23.0414 317.292 23.0414C317.418 23.0414 317.544 22.9834 317.641 22.8671C322.14 17.4377 322.14 8.60363 317.641 3.17418C317.448 2.94194 317.136 2.94194 316.943 3.17418C316.751 3.40673 316.751 3.78332 316.943 4.01587C321.058 8.98114 321.058 17.0602 316.943 22.0257V22.0257Z" fill="#4F4F4F"/>
<path d="M303.18 20.6229C303.277 20.7391 303.403 20.7971 303.529 20.7971C303.655 20.7971 303.781 20.7391 303.878 20.6229C304.07 20.3903 304.07 20.0134 303.878 19.7812C300.788 16.0535 300.788 9.98791 303.878 6.26023C304.07 6.02769 304.07 5.6511 303.878 5.41856C303.685 5.18633 303.373 5.18633 303.18 5.41856C299.707 9.61041 299.707 16.431 303.18 20.6229Z" fill="#4F4F4F"/>
<path d="M317.4 13.0207C317.4 15.5774 316.578 17.9785 315.084 19.7812C314.891 20.0137 314.891 20.3903 315.084 20.6229C315.18 20.7388 315.306 20.7971 315.432 20.7971C315.559 20.7971 315.685 20.7391 315.781 20.6229C317.461 18.5953 318.387 15.8954 318.387 13.0207C318.387 10.146 317.461 7.44613 315.781 5.41856C315.588 5.18633 315.276 5.18633 315.084 5.41856C314.891 5.6511 314.891 6.02769 315.084 6.26023C316.578 8.06288 317.4 10.4637 317.4 13.0207Z" fill="#4F4F4F"/>
<path d="M305.04 18.3788C305.137 18.4947 305.263 18.553 305.389 18.553C305.515 18.553 305.642 18.495 305.738 18.3788C305.93 18.1462 305.93 17.7693 305.738 17.5371C303.674 15.0469 303.674 10.9948 305.738 8.50429C305.93 8.27206 305.93 7.89517 305.738 7.66293C305.545 7.43039 305.233 7.43039 305.04 7.66293C302.592 10.6173 302.592 15.4244 305.04 18.3788Z" fill="#4F4F4F"/>
<path d="M314.771 13.0209C314.771 14.7289 314.222 16.3329 313.224 17.5371C313.031 17.7696 313.031 18.1462 313.224 18.3788C313.32 18.495 313.446 18.553 313.572 18.553C313.698 18.553 313.825 18.495 313.921 18.3788C315.105 16.9496 315.758 15.0469 315.758 13.0209C315.758 10.9948 315.105 9.09175 313.921 7.66293C313.728 7.43039 313.416 7.43039 313.224 7.66293C313.031 7.89517 313.031 8.27206 313.224 8.50429C314.222 9.70881 314.771 11.3125 314.771 13.0209V13.0209Z" fill="#4F4F4F"/>
<path d="M320.71 37.9888H317.829L313.301 23.3427C313.206 23.0348 312.922 22.8782 312.667 22.9933C312.412 23.108 312.282 23.4507 312.377 23.7587L316.776 37.9885H302.185L308.584 17.2895C308.871 17.3771 309.172 17.4241 309.481 17.4241C309.79 17.4241 310.09 17.3771 310.377 17.2892L311.664 21.453C311.739 21.6926 311.927 21.8406 312.127 21.8406C312.184 21.8406 312.242 21.8284 312.299 21.8028C312.554 21.688 312.684 21.3453 312.589 21.0374L311.291 16.8412C312.389 16.081 313.13 14.6537 313.13 13.0207C313.13 10.5924 311.493 8.61694 309.481 8.61694C307.468 8.61694 305.831 10.5924 305.831 13.0207C305.831 14.654 306.573 16.0813 307.67 16.8415L301.132 37.9888H298.077C296.931 37.9888 296 39.1128 296 40.4946C296 41.8762 296.931 43.0001 298.077 43.0001H299.223C299.495 43.0001 299.716 42.7337 299.716 42.405C299.716 42.0763 299.495 41.8099 299.223 41.8099H298.077C297.475 41.8099 296.986 41.2197 296.986 40.4946C296.986 39.7692 297.475 39.179 298.077 39.179H320.71C321.311 39.179 321.8 39.7692 321.8 40.4946C321.8 41.2197 321.311 41.8099 320.71 41.8099H301.196C300.923 41.8099 300.703 42.0763 300.703 42.405C300.703 42.7337 300.923 43.0001 301.196 43.0001H320.71C321.855 43.0001 322.786 41.8762 322.786 40.4946C322.786 39.1128 321.855 37.9888 320.71 37.9888V37.9888ZM306.817 13.0207C306.817 11.2488 308.012 9.80714 309.481 9.80714C310.949 9.80714 312.144 11.2488 312.144 13.0207C312.144 14.7925 310.949 16.2342 309.481 16.2342C308.012 16.2342 306.817 14.7925 306.817 13.0207Z" fill="#4F4F4F"/>
<path d="M309.48 21.1719C309.275 21.1719 309.09 21.3263 309.018 21.5591L304.801 35.2022C304.744 35.385 304.766 35.5895 304.858 35.7494C304.95 35.9096 305.101 36.0051 305.263 36.0051H313.698C313.86 36.0051 314.011 35.9096 314.103 35.7494C314.195 35.5895 314.217 35.385 314.16 35.2022L309.943 21.5591C309.871 21.3263 309.686 21.1719 309.48 21.1719V21.1719ZM309.48 23.4696L310.336 26.236L308.912 25.3095L309.48 23.4696ZM312.383 32.8593L307.591 31.3554L311.018 28.4416L312.383 32.8593ZM307.458 30.0132L308.564 26.4353L310.321 27.5782L307.458 30.0132ZM305.973 34.8149L306.745 32.3195L312.804 34.2211L312.988 34.8149H305.973Z" fill="#4F4F4F"/>
<path d="M326.196 66.5625H318C317.676 66.5625 317.414 66.8246 317.414 67.1484C317.414 67.4722 317.676 67.7344 318 67.7344H326.196C326.545 67.7344 326.828 68.0179 326.828 68.3667V90.9302C326.828 91.279 326.545 91.5625 326.196 91.5625H289.804C289.455 91.5625 289.172 91.279 289.172 90.9302V68.3667C289.172 68.0179 289.455 67.7344 289.804 67.7344H302.678V68.9062H290.93C290.606 68.9062 290.344 69.1684 290.344 69.4922V84.9741C290.344 85.2975 290.606 85.56 290.93 85.56C291.253 85.56 291.516 85.2975 291.516 84.9741V70.0781H302.678V73.2214L300.169 74.4199C299.969 74.5157 299.836 74.7226 299.836 74.9487V84.5044C299.836 84.7302 299.966 84.9359 300.169 85.0333L307.747 88.6539C307.911 88.7311 308.097 88.7271 308.253 88.6539L312.513 86.6183C312.805 86.4789 312.929 86.1288 312.789 85.8371C312.65 85.545 312.299 85.4214 312.008 85.5609L308.586 87.1957V78.9386L314.992 75.878V84.1351L314.122 84.5508C313.83 84.6902 313.706 85.0403 313.846 85.332C313.985 85.6241 314.335 85.7477 314.627 85.6082L315.831 85.0333C316.034 84.9359 316.164 84.7302 316.164 84.5044V74.9487C316.164 74.7253 316.034 74.5172 315.831 74.4199L313.322 73.2214V70.0781H324.484V89.2188H291.516V87.4741C291.516 87.1503 291.253 86.8881 290.93 86.8881C290.606 86.8881 290.344 87.1503 290.344 87.4741V89.8047C290.344 90.1285 290.606 90.3906 290.93 90.3906H325.07C325.394 90.3906 325.656 90.1285 325.656 89.8047V69.4922C325.656 69.1684 325.394 68.9062 325.07 68.9062H313.322V67.7344H315.5C315.824 67.7344 316.086 67.4722 316.086 67.1484C316.086 66.8246 315.824 66.5625 315.5 66.5625H313.322V65.3906H318.576C318.9 65.3906 319.162 65.1285 319.162 64.8047V63.4149C319.844 63.1729 320.334 62.5217 320.334 61.7578C320.334 60.7886 319.545 60 318.576 60C317.607 60 316.818 60.7886 316.818 61.7578C316.818 62.5217 317.308 63.1729 317.99 63.4149V64.2188H312.736C312.413 64.2188 312.15 64.4809 312.15 64.8047V66.5625H308.586V63.4149C309.268 63.1729 309.758 62.5217 309.758 61.7578C309.758 60.7886 308.969 60 308 60C307.031 60 306.242 60.7886 306.242 61.7578C306.242 62.5217 306.732 63.1729 307.414 63.4149V66.5625H303.85V64.8047C303.85 64.4809 303.587 64.2188 303.264 64.2188H298.01V63.4149C298.692 63.1729 299.182 62.5217 299.182 61.7578C299.182 60.7886 298.393 60 297.424 60C296.455 60 295.666 60.7886 295.666 61.7578C295.666 62.5217 296.156 63.1729 296.838 63.4149V64.8047C296.838 65.1285 297.1 65.3906 297.424 65.3906H302.678V66.5625H289.804C288.809 66.5625 288 67.3718 288 68.3667V90.9302C288 91.925 288.809 92.7344 289.804 92.7344H302.507C302.281 94.8837 300.859 96.1389 300.411 96.4844H297.922C296.953 96.4844 296.164 97.2729 296.164 98.2422C296.164 99.2114 296.953 100 297.922 100H318.078C319.047 100 319.836 99.2114 319.836 98.2422C319.836 97.2729 319.047 96.4844 318.078 96.4844H315.59C315.148 96.1401 313.722 94.8737 313.493 92.7344H326.196C327.191 92.7344 328 91.925 328 90.9302V68.3667C328 67.3718 327.191 66.5625 326.196 66.5625ZM318.576 61.1719C318.899 61.1719 319.162 61.4346 319.162 61.7578C319.162 62.081 318.899 62.3438 318.576 62.3438C318.253 62.3438 317.99 62.081 317.99 61.7578C317.99 61.4346 318.253 61.1719 318.576 61.1719ZM308 61.1719C308.323 61.1719 308.586 61.4346 308.586 61.7578C308.586 62.081 308.323 62.3438 308 62.3438C307.677 62.3438 307.414 62.081 307.414 61.7578C307.414 61.4346 307.677 61.1719 308 61.1719ZM297.424 61.1719C297.747 61.1719 298.01 61.4346 298.01 61.7578C298.01 62.081 297.747 62.3438 297.424 62.3438C297.101 62.3438 296.838 62.081 296.838 61.7578C296.838 61.4346 297.101 61.1719 297.424 61.1719ZM303.85 70.0781H307.414V70.9586L303.85 72.6617V70.0781ZM314.219 74.9487L308 77.9196L301.781 74.9487L308 71.9775L314.219 74.9487ZM301.008 75.878L307.414 78.9386V87.1957L301.008 84.1351V75.878ZM312.15 72.6617L308.586 70.9586V70.0781H312.15V72.6617ZM312.15 67.7344V68.9062H308.586V67.7344H312.15ZM307.414 67.7344V68.9062H303.85V67.7344H307.414ZM318.664 98.2422C318.664 98.5654 318.401 98.8281 318.078 98.8281H297.922C297.599 98.8281 297.336 98.5654 297.336 98.2422C297.336 97.919 297.599 97.6562 297.922 97.6562H318.078C318.401 97.6562 318.664 97.919 318.664 98.2422ZM313.909 96.4844H302.091C302.778 95.6821 303.54 94.4318 303.686 92.7344H312.314C312.46 94.4318 313.222 95.6821 313.909 96.4844Z" fill="#828282"/>
<path d="M325.104 128.965L314.205 125.851V120.409H321.12V121.662H320.089C319.765 121.662 319.502 121.925 319.502 122.249V124.676C319.502 125 319.765 125.263 320.089 125.263H323.325C323.649 125.263 323.911 125 323.911 124.676V122.249C323.911 121.925 323.649 121.662 323.325 121.662H322.293V120.409H324.942C325.235 120.409 325.483 120.194 325.524 119.904C325.564 119.614 325.385 119.339 325.104 119.258L313.793 116.027C313.792 116.026 313.791 116.026 313.791 116.026L313.779 116.023C313.774 116.021 313.77 116.021 313.765 116.02C313.753 116.016 313.74 116.013 313.727 116.011C313.718 116.009 313.708 116.008 313.699 116.006C313.69 116.005 313.681 116.004 313.671 116.003C313.658 116.002 313.645 116.001 313.632 116.001C313.627 116.001 313.623 116 313.618 116H313.605C313.605 116 313.604 116 313.604 116H303.926C303.925 116 303.924 116 303.923 116H303.911C303.907 116 303.903 116.001 303.898 116.001C303.885 116.001 303.871 116.001 303.858 116.003C303.849 116.004 303.84 116.005 303.831 116.006C303.821 116.008 303.812 116.009 303.802 116.011C303.789 116.013 303.777 116.016 303.764 116.019C303.76 116.021 303.755 116.021 303.75 116.023L303.738 116.026C303.737 116.026 303.737 116.026 303.737 116.026L292.426 119.258C292.144 119.339 291.965 119.614 292.006 119.904C292.046 120.194 292.294 120.409 292.587 120.409H295.236V121.662H294.205C293.881 121.662 293.618 121.925 293.618 122.249V124.676C293.618 125 293.881 125.263 294.205 125.263H297.44C297.764 125.263 298.027 125 298.027 124.676V122.249C298.027 121.925 297.764 121.662 297.44 121.662H296.409V120.409H303.324V125.851L292.426 128.965C292.144 129.045 291.965 129.321 292.006 129.61C292.046 129.9 292.294 130.116 292.587 130.116H295.236V131.369H294.205C293.881 131.369 293.618 131.631 293.618 131.956V134.382C293.618 134.707 293.881 134.969 294.205 134.969H297.44C297.764 134.969 298.027 134.707 298.027 134.382V131.956C298.027 131.631 297.764 131.369 297.44 131.369H296.409V130.116H303.324V135.918L300.924 144.318C300.924 144.319 300.924 144.319 300.924 144.319L300.919 144.336C300.919 144.336 300.919 144.336 300.919 144.336L300.918 144.34C300.918 144.341 300.917 144.342 300.917 144.342L298.615 152.399H297.44C297.116 152.399 296.853 152.662 296.853 152.986V154.826H295.654C295.33 154.826 295.067 155.089 295.067 155.413C295.067 155.737 295.33 156 295.654 156H297.44H320.089H321.875C322.199 156 322.462 155.737 322.462 155.413C322.462 155.089 322.199 154.826 321.875 154.826H320.676V152.986C320.676 152.662 320.413 152.399 320.089 152.399H318.914L316.612 144.343C316.612 144.342 316.611 144.34 316.611 144.339L316.606 144.321C316.605 144.32 316.605 144.319 316.605 144.318L314.205 135.918V130.116H321.12V131.369H320.089C319.765 131.369 319.502 131.631 319.502 131.955V134.382C319.502 134.706 319.765 134.969 320.089 134.969H323.325C323.649 134.969 323.911 134.706 323.911 134.382V131.956C323.911 131.631 323.649 131.369 323.325 131.369H322.294V130.116H324.942C325.235 130.116 325.483 129.9 325.524 129.61C325.564 129.321 325.385 129.045 325.104 128.965ZM322.738 122.836V124.089H320.676V122.836H322.738ZM314.205 117.365L320.752 119.236H314.205V117.365ZM296.853 122.836V124.089H294.792V122.836H296.853ZM296.853 132.542V133.795H294.792V132.542H296.853ZM304.498 117.174H313.031V119.236H304.498V117.174ZM313.031 120.409V125.197L305.849 120.409H313.031V120.409ZM304.498 120.919L311.68 125.707H304.498V120.919ZM304.498 126.88H313.031V128.942H304.498V126.88ZM303.346 143.906L308.765 140.114L314.183 143.906H303.346ZM313.559 145.08L308.765 147.477L303.971 145.08H313.559ZM305.773 136.587H311.756L308.765 138.681L305.773 136.587ZM313.031 130.116V134.903L305.85 130.116H313.031ZM304.498 130.626L311.68 135.413H304.498V130.626ZM296.777 119.235L303.324 117.365V119.235H296.777ZM296.777 128.942L303.324 127.071V128.942H296.777ZM304.249 136.953L307.741 139.397L302.504 143.064L304.249 136.953ZM301.855 145.334L307.452 148.133L299.989 151.865L301.855 145.334ZM318.471 153.574H318.471C318.472 153.574 318.472 153.573 318.473 153.573H319.502V154.826H319.502H298.027V153.573H299.056C299.057 153.573 299.058 153.574 299.058 153.574C299.059 153.574 299.06 153.573 299.061 153.573H299.07C299.071 153.573 299.072 153.573 299.073 153.573H304.6C304.924 153.573 305.187 153.311 305.187 152.987C305.187 152.662 304.924 152.4 304.6 152.4H301.544L308.765 148.789L315.985 152.4H307.217C306.892 152.4 306.63 152.662 306.63 152.987C306.63 153.311 306.892 153.573 307.217 153.573H318.468C318.469 153.573 318.47 153.574 318.471 153.574ZM317.54 151.865L310.077 148.133L315.674 145.334L317.54 151.865ZM315.026 143.064L309.788 139.397L313.28 136.953L315.026 143.064ZM314.205 128.942V127.071L320.752 128.942H314.205ZM322.738 132.542V133.795H320.676V132.542H322.738Z" fill="#4F4F4F"/>
<path d="M267.714 76.2857V60.5714C267.714 58.6021 266.112 57 264.143 57H232.714C230.745 57 229.143 58.6021 229.143 60.5714V71.2857C227.961 71.2857 227 72.2471 227 73.4286V94.8571C227 96.0386 227.961 97 229.143 97H244.857C246.039 97 247 96.0386 247 94.8571H252.986C253.66 94.8571 254.281 94.55 254.689 94.015C255.098 93.48 255.231 92.8 255.054 92.1507L253.649 87H257.714V94.8571C257.714 96.0386 258.676 97 259.857 97H267.714C268.896 97 269.857 96.0386 269.857 94.8571V78.4286C269.857 77.2471 268.896 76.2857 267.714 76.2857ZM245.571 94.8571C245.571 95.2507 245.251 95.5714 244.857 95.5714H229.143C228.749 95.5714 228.429 95.2507 228.429 94.8571V93.4286H245.571V94.8571ZM245.571 92H228.429V76.2857H245.571V92ZM245.571 74.8571H228.429V73.4286C228.429 73.035 228.749 72.7143 229.143 72.7143H244.857C245.251 72.7143 245.571 73.035 245.571 73.4286V74.8571ZM253.676 92.5264C253.735 92.7429 253.691 92.9693 253.554 93.1479C253.418 93.3264 253.211 93.4286 252.986 93.4286H247V92H253.532L253.676 92.5264ZM247 90.5714V87H252.169L253.143 90.5714H247ZM257.714 85.5714H247V81.2857H257.714V85.5714ZM257.714 78.4286V79.8571H247V73.4286C247 72.2471 246.039 71.2857 244.857 71.2857H230.571V60.5714C230.571 59.39 231.533 58.4286 232.714 58.4286H264.143C265.324 58.4286 266.286 59.39 266.286 60.5714V76.2857H259.857C258.676 76.2857 257.714 77.2471 257.714 78.4286ZM268.429 94.8571C268.429 95.2507 268.108 95.5714 267.714 95.5714H259.857C259.464 95.5714 259.143 95.2507 259.143 94.8571V93.4286H268.429V94.8571ZM268.429 92H259.143V81.2857H268.429V92ZM268.429 79.8571H259.143V78.4286C259.143 78.035 259.464 77.7143 259.857 77.7143H267.714C268.108 77.7143 268.429 78.035 268.429 78.4286V79.8571Z" fill="#BDBDBD"/>
<path d="M233.638 83.637L230.781 86.4941L231.791 87.5043L234.648 84.6471L233.638 83.637Z" fill="#BDBDBD"/>
<path d="M242.209 80.0659L233.637 88.6375L234.648 89.6476L243.219 81.0761L242.209 80.0659Z" fill="#BDBDBD"/>
<path d="M239.351 77.9238L235.066 82.2092L236.076 83.2194L240.361 78.9339L239.351 77.9238Z" fill="#BDBDBD"/>
<path d="M264.35 82.9246L260.779 86.4954L261.789 87.5055L265.36 83.9347L264.35 82.9246Z" fill="#BDBDBD"/>
<path d="M265.778 85.7847L262.207 89.3555L263.217 90.3656L266.788 86.7948L265.778 85.7847Z" fill="#BDBDBD"/>
<path d="M250.065 65.0663L245.78 69.3518L246.79 70.3619L251.075 66.0765L250.065 65.0663Z" fill="#BDBDBD"/>
<path d="M256.494 63.6381L252.209 67.9236L253.219 68.9337L257.504 64.6483L256.494 63.6381Z" fill="#BDBDBD"/>
<path d="M250.78 69.3528L247.922 72.21L248.933 73.2201L251.79 70.3629L250.78 69.3528Z" fill="#BDBDBD"/>
<path d="M254.354 60.7827L251.49 63.647L252.5 64.6571L255.364 61.7929L254.354 60.7827Z" fill="#BDBDBD"/>
<path d="M233.429 59.8572H232V61.2857H233.429V59.8572Z" fill="#BDBDBD"/>
<path d="M236.286 59.8572H234.857V61.2857H236.286V59.8572Z" fill="#BDBDBD"/>
<path d="M239.143 59.8572H237.714V61.2857H239.143V59.8572Z" fill="#BDBDBD"/>
<path d="M240.669 137.042C240.795 137.042 240.922 136.983 241.018 136.867C241.211 136.635 241.211 136.258 241.018 136.026C236.903 131.06 236.903 122.981 241.018 118.016C241.211 117.784 241.211 117.407 241.018 117.174C240.826 116.942 240.513 116.942 240.321 117.174C235.821 122.604 235.821 131.438 240.321 136.867C240.417 136.983 240.543 137.042 240.669 137.042Z" fill="#828282"/>
<path d="M255.943 136.026C255.751 136.258 255.751 136.635 255.943 136.867C256.04 136.983 256.166 137.041 256.292 137.041C256.418 137.041 256.544 136.983 256.641 136.867C261.14 131.438 261.14 122.604 256.641 117.174C256.448 116.942 256.136 116.942 255.943 117.174C255.751 117.407 255.751 117.783 255.943 118.016C260.058 122.981 260.058 131.06 255.943 136.026V136.026Z" fill="#828282"/>
<path d="M242.18 134.623C242.277 134.739 242.403 134.797 242.529 134.797C242.655 134.797 242.781 134.739 242.878 134.623C243.07 134.39 243.07 134.013 242.878 133.781C239.788 130.054 239.788 123.988 242.878 120.26C243.07 120.028 243.07 119.651 242.878 119.419C242.685 119.186 242.373 119.186 242.18 119.419C238.707 123.61 238.707 130.431 242.18 134.623Z" fill="#828282"/>
<path d="M256.4 127.021C256.4 129.577 255.578 131.979 254.084 133.781C253.891 134.014 253.891 134.39 254.084 134.623C254.18 134.739 254.306 134.797 254.432 134.797C254.559 134.797 254.685 134.739 254.781 134.623C256.461 132.595 257.387 129.895 257.387 127.021C257.387 124.146 256.461 121.446 254.781 119.419C254.588 119.186 254.276 119.186 254.084 119.419C253.891 119.651 253.891 120.028 254.084 120.26C255.578 122.063 256.4 124.464 256.4 127.021Z" fill="#828282"/>
<path d="M244.04 132.379C244.137 132.495 244.263 132.553 244.389 132.553C244.515 132.553 244.642 132.495 244.738 132.379C244.93 132.146 244.93 131.769 244.738 131.537C242.674 129.047 242.674 124.995 244.738 122.504C244.93 122.272 244.93 121.895 244.738 121.663C244.545 121.43 244.233 121.43 244.04 121.663C241.592 124.617 241.592 129.424 244.04 132.379Z" fill="#828282"/>
<path d="M253.771 127.021C253.771 128.729 253.222 130.333 252.224 131.537C252.031 131.77 252.031 132.146 252.224 132.379C252.32 132.495 252.446 132.553 252.572 132.553C252.698 132.553 252.825 132.495 252.921 132.379C254.105 130.95 254.758 129.047 254.758 127.021C254.758 124.995 254.105 123.092 252.921 121.663C252.728 121.43 252.416 121.43 252.224 121.663C252.031 121.895 252.031 122.272 252.224 122.504C253.222 123.709 253.771 125.312 253.771 127.021V127.021Z" fill="#828282"/>
<path d="M259.71 151.989H256.829L252.301 137.343C252.206 137.035 251.922 136.878 251.667 136.993C251.412 137.108 251.282 137.451 251.377 137.759L255.776 151.988H241.185L247.584 131.289C247.871 131.377 248.172 131.424 248.481 131.424C248.79 131.424 249.09 131.377 249.377 131.289L250.664 135.453C250.739 135.693 250.927 135.841 251.127 135.841C251.184 135.841 251.242 135.828 251.299 135.803C251.554 135.688 251.684 135.345 251.589 135.037L250.291 130.841C251.389 130.081 252.13 128.654 252.13 127.021C252.13 124.592 250.493 122.617 248.481 122.617C246.468 122.617 244.831 124.592 244.831 127.021C244.831 128.654 245.573 130.081 246.67 130.841L240.132 151.989H237.077C235.931 151.989 235 153.113 235 154.495C235 155.876 235.931 157 237.077 157H238.223C238.495 157 238.716 156.734 238.716 156.405C238.716 156.076 238.495 155.81 238.223 155.81H237.077C236.475 155.81 235.986 155.22 235.986 154.495C235.986 153.769 236.475 153.179 237.077 153.179H259.71C260.311 153.179 260.8 153.769 260.8 154.495C260.8 155.22 260.311 155.81 259.71 155.81H240.196C239.923 155.81 239.703 156.076 239.703 156.405C239.703 156.734 239.923 157 240.196 157H259.71C260.855 157 261.786 155.876 261.786 154.495C261.786 153.113 260.855 151.989 259.71 151.989V151.989ZM245.817 127.021C245.817 125.249 247.012 123.807 248.481 123.807C249.949 123.807 251.144 125.249 251.144 127.021C251.144 128.793 249.949 130.234 248.481 130.234C247.012 130.234 245.817 128.793 245.817 127.021Z" fill="#828282"/>
<path d="M248.48 135.172C248.275 135.172 248.09 135.326 248.018 135.559L243.801 149.202C243.744 149.385 243.766 149.589 243.858 149.749C243.95 149.91 244.101 150.005 244.263 150.005H252.698C252.86 150.005 253.011 149.91 253.103 149.749C253.195 149.589 253.217 149.385 253.16 149.202L248.943 135.559C248.871 135.326 248.686 135.172 248.48 135.172V135.172ZM248.48 137.47L249.336 140.236L247.912 139.31L248.48 137.47ZM251.383 146.859L246.591 145.355L250.018 142.442L251.383 146.859ZM246.458 144.013L247.564 140.435L249.321 141.578L246.458 144.013ZM244.973 148.815L245.745 146.319L251.804 148.221L251.988 148.815H244.973Z" fill="#828282"/>
<path d="M267.065 3H250.935C249.869 3 249 3.86851 249 4.93548V12.6774H250.29V8.16129H252.719C252.008 9.04587 251.581 10.167 251.581 11.3871C251.581 13.487 252.889 15.3721 254.806 16.1549V19.1457C254.266 18.7362 253.6 18.4839 252.871 18.4839C252.159 18.4839 251.581 19.0626 251.581 19.7742V27.5161H250.29V16.9264L247.977 14.6129H244.484V3H240.613V14.6129H239.323V6.87097H235.452V14.6129H234.161V9.45161H230.29V14.6129H229V15.9032H247.443L249 17.4607V32.0323C249 33.0992 249.869 33.9677 250.935 33.9677H253.516V35.2581H252.226V43H265.129V35.2581H263.839V33.9677H267.065C268.131 33.9677 269 33.0992 269 32.0323V4.93548C269 3.86851 268.131 3 267.065 3ZM241.903 4.29032H243.194V14.6129H241.903V4.29032ZM236.742 8.16129H238.032V14.6129H236.742V8.16129ZM231.581 10.7419H232.871V14.6129H231.581V10.7419ZM250.29 4.93548C250.29 4.58014 250.58 4.29032 250.935 4.29032H267.065C267.42 4.29032 267.71 4.58014 267.71 4.93548V6.87097H259.235C258.495 6.4605 257.646 6.22581 256.742 6.22581C255.838 6.22581 254.989 6.4605 254.249 6.87097H250.29V4.93548ZM264.804 17.8652C264.474 17.8116 264.144 17.8431 263.839 17.9496V17.2625C263.839 16.2844 263.144 15.4342 262.223 15.2845C261.864 15.2259 261.504 15.2678 261.177 15.4001C261.093 15.1097 260.945 14.8463 260.752 14.6252C261.487 13.7129 261.903 12.5703 261.903 11.3871C261.903 10.167 261.475 9.04587 260.764 8.16129H267.71V27.5161H266.419V19.8432C266.419 18.865 265.725 18.0148 264.804 17.8652ZM252.871 11.3871C252.871 9.2522 254.607 7.51613 256.742 7.51613C258.877 7.51613 260.613 9.2522 260.613 11.3871C260.613 12.3523 260.247 13.2832 259.601 13.9923C259.286 13.9479 258.969 13.9762 258.677 14.0786V12.0323C258.677 11.464 258.429 10.9265 257.995 10.5573C257.561 10.1891 256.988 10.029 256.421 10.1226C255.501 10.2729 254.806 11.1231 254.806 12.1012V14.7244C253.639 14.0421 252.871 12.7779 252.871 11.3871V11.3871ZM250.935 32.6774C250.58 32.6774 250.29 32.3876 250.29 32.0323V28.8065H251.668C251.743 29.1375 251.864 29.4573 252.041 29.7515L253.516 32.2109V32.6774H250.935ZM253.516 41.7097V39.129H260.613V37.8387H253.516V36.5484H263.839V37.8387H261.903V39.129H263.839V41.7097H253.516ZM254.806 35.2581V31.8536L253.147 29.0871C252.966 28.7866 252.871 28.442 252.871 28.0917V19.7742C253.938 19.7742 254.806 20.6427 254.806 21.7097V24.9355H256.097V12.1012C256.097 11.7547 256.33 11.4451 256.629 11.3962C256.824 11.3657 257.013 11.4154 257.159 11.5405C257.304 11.6634 257.387 11.8426 257.387 12.0323V24.9355H258.677V15.9032C258.677 15.7136 258.761 15.5343 258.905 15.4115C259.052 15.287 259.24 15.236 259.435 15.2672C259.734 15.316 259.968 15.6257 259.968 15.9722V24.9355H261.258V17.1935C261.258 17.0039 261.341 16.8247 261.486 16.7018C261.633 16.5774 261.821 16.5263 262.016 16.5575C262.315 16.6064 262.548 16.916 262.548 17.2625V24.9355H263.839V19.7742C263.839 19.5846 263.922 19.4053 264.066 19.2824C264.214 19.158 264.401 19.107 264.597 19.1382C264.896 19.187 265.129 19.4967 265.129 19.8432V27.9014C265.129 28.3386 264.979 28.7683 264.704 29.1111L262.548 31.8058V35.2581H254.806ZM267.065 32.6774H263.839V32.2588L265.712 29.9169C265.975 29.5877 266.161 29.2078 266.279 28.8071H267.71V32.0329C267.71 32.3876 267.42 32.6774 267.065 32.6774V32.6774Z" fill="#828282"/>
<path d="M236.742 32.0322V33.3226C236.742 34.3895 237.61 35.258 238.677 35.258C239.744 35.258 240.613 34.3895 240.613 33.3226V29.4516C240.613 28.3846 239.744 27.5161 238.677 27.5161C237.61 27.5161 236.742 28.3846 236.742 29.4516V30.7419H238.032V29.4516C238.032 29.0963 238.321 28.8064 238.677 28.8064C239.033 28.8064 239.323 29.0963 239.323 29.4516V33.3226C239.323 33.6779 239.033 33.9677 238.677 33.9677C238.321 33.9677 238.032 33.6779 238.032 33.3226V32.0322H236.742Z" fill="#828282"/>
<path d="M243.194 33.3226V29.4516C243.194 28.6549 242.979 27.867 242.574 27.1743L241.459 27.8264C241.75 28.3219 241.903 28.8839 241.903 29.4516V33.3226C241.903 35.1012 240.456 36.5484 238.677 36.5484C237.877 36.5484 237.107 36.2491 236.51 35.7057L235.642 36.6599C236.477 37.42 237.555 37.8387 238.677 37.8387C241.167 37.8387 243.194 35.8128 243.194 33.3226V33.3226Z" fill="#828282"/>
<path d="M241.567 25.982C240.758 25.3073 239.732 24.9355 238.678 24.9355C236.188 24.9355 234.161 26.9614 234.161 29.4517V33.3226C234.161 34.0459 234.339 34.768 234.675 35.4097L235.817 34.8117C235.575 34.3471 235.452 33.8459 235.452 33.3226V29.4517C235.452 27.6731 236.899 26.2259 238.678 26.2259C239.43 26.2259 240.163 26.4911 240.74 26.9731L241.567 25.982Z" fill="#828282"/>
<path d="M243.323 36.8063L244.355 37.5812C245.283 36.3451 245.774 34.8727 245.774 33.3225V29.4515C245.774 25.5386 242.59 22.3547 238.677 22.3547C237.045 22.3547 235.45 22.9237 234.187 23.9572L235.005 24.9562C236.037 24.111 237.342 23.6451 238.677 23.6451C241.879 23.6451 244.484 26.2503 244.484 29.4515V33.3225C244.484 34.5907 244.083 35.7954 243.323 36.8063V36.8063Z" fill="#828282"/>
<path d="M238.677 39.129C235.475 39.129 232.871 36.5238 232.871 33.3226V29.4516C232.871 28.1163 233.337 26.8111 234.182 25.7782L233.184 24.9607C232.15 26.2239 231.581 27.8189 231.581 29.4516V33.3226C231.581 37.2355 234.764 40.4194 238.677 40.4194H241.479C243.661 40.4194 245.711 41.2683 247.253 42.811L248.166 41.8987C246.379 40.1122 244.005 39.129 241.479 39.129H238.677Z" fill="#828282"/>
<path d="M230.935 17.1936H246.419V18.4839H230.935V17.1936Z" fill="#828282"/>
<path d="M238.032 19.7742H239.323V21.0645H238.032V19.7742Z" fill="#828282"/>
<path d="M240.613 19.7742H241.903V21.0645H240.613V19.7742Z" fill="#828282"/>
<path d="M235.452 19.7742H236.742V21.0645H235.452V19.7742Z" fill="#828282"/>
<path d="M265.104 185.965L254.205 182.851V177.409H261.12V178.662H260.089C259.765 178.662 259.502 178.925 259.502 179.249V181.676C259.502 182 259.765 182.263 260.089 182.263H263.325C263.649 182.263 263.911 182 263.911 181.676V179.249C263.911 178.925 263.649 178.662 263.325 178.662H262.293V177.409H264.942C265.235 177.409 265.483 177.194 265.524 176.904C265.564 176.614 265.385 176.339 265.104 176.258L253.793 173.027C253.792 173.026 253.791 173.026 253.791 173.026L253.779 173.023C253.774 173.021 253.77 173.021 253.765 173.02C253.753 173.016 253.74 173.013 253.727 173.011C253.718 173.009 253.708 173.008 253.699 173.006C253.69 173.005 253.681 173.004 253.671 173.003C253.658 173.002 253.645 173.001 253.632 173.001C253.627 173.001 253.623 173 253.618 173H253.605C253.605 173 253.604 173 253.604 173H243.926C243.925 173 243.924 173 243.923 173H243.911C243.907 173 243.903 173.001 243.898 173.001C243.885 173.001 243.871 173.001 243.858 173.003C243.849 173.004 243.84 173.005 243.831 173.006C243.821 173.008 243.812 173.009 243.802 173.011C243.789 173.013 243.777 173.016 243.764 173.019C243.76 173.021 243.755 173.021 243.75 173.023L243.738 173.026C243.737 173.026 243.737 173.026 243.737 173.026L232.426 176.258C232.144 176.339 231.965 176.614 232.006 176.904C232.046 177.194 232.294 177.409 232.587 177.409H235.236V178.662H234.205C233.881 178.662 233.618 178.925 233.618 179.249V181.676C233.618 182 233.881 182.263 234.205 182.263H237.44C237.764 182.263 238.027 182 238.027 181.676V179.249C238.027 178.925 237.764 178.662 237.44 178.662H236.409V177.409H243.324V182.851L232.426 185.965C232.144 186.045 231.965 186.321 232.006 186.61C232.046 186.9 232.294 187.116 232.587 187.116H235.236V188.369H234.205C233.881 188.369 233.618 188.631 233.618 188.956V191.382C233.618 191.707 233.881 191.969 234.205 191.969H237.44C237.764 191.969 238.027 191.707 238.027 191.382V188.956C238.027 188.631 237.764 188.369 237.44 188.369H236.409V187.116H243.324V192.918L240.924 201.318C240.924 201.319 240.924 201.319 240.924 201.319L240.919 201.336C240.919 201.336 240.919 201.336 240.919 201.336L240.918 201.34C240.918 201.341 240.917 201.342 240.917 201.342L238.615 209.399H237.44C237.116 209.399 236.853 209.662 236.853 209.986V211.826H235.654C235.33 211.826 235.067 212.089 235.067 212.413C235.067 212.737 235.33 213 235.654 213H237.44H260.089H261.875C262.199 213 262.462 212.737 262.462 212.413C262.462 212.089 262.199 211.826 261.875 211.826H260.676V209.986C260.676 209.662 260.413 209.399 260.089 209.399H258.914L256.612 201.343C256.612 201.342 256.611 201.34 256.611 201.339L256.606 201.321C256.605 201.32 256.605 201.319 256.605 201.318L254.205 192.918V187.116H261.12V188.369H260.089C259.765 188.369 259.502 188.631 259.502 188.955V191.382C259.502 191.706 259.765 191.969 260.089 191.969H263.325C263.649 191.969 263.911 191.706 263.911 191.382V188.956C263.911 188.631 263.649 188.369 263.325 188.369H262.294V187.116H264.942C265.235 187.116 265.483 186.9 265.524 186.61C265.564 186.321 265.385 186.045 265.104 185.965ZM262.738 179.836V181.089H260.676V179.836H262.738ZM254.205 174.365L260.752 176.236H254.205V174.365ZM236.853 179.836V181.089H234.792V179.836H236.853ZM236.853 189.542V190.795H234.792V189.542H236.853ZM244.498 174.174H253.031V176.236H244.498V174.174ZM253.031 177.409V182.197L245.849 177.409H253.031V177.409ZM244.498 177.919L251.68 182.707H244.498V177.919ZM244.498 183.88H253.031V185.942H244.498V183.88ZM243.346 200.906L248.765 197.114L254.183 200.906H243.346ZM253.559 202.08L248.765 204.477L243.971 202.08H253.559ZM245.773 193.587H251.756L248.765 195.681L245.773 193.587ZM253.031 187.116V191.903L245.85 187.116H253.031ZM244.498 187.626L251.68 192.413H244.498V187.626ZM236.777 176.235L243.324 174.365V176.235H236.777ZM236.777 185.942L243.324 184.071V185.942H236.777ZM244.249 193.953L247.741 196.397L242.504 200.064L244.249 193.953ZM241.855 202.334L247.452 205.133L239.989 208.865L241.855 202.334ZM258.471 210.574H258.471C258.472 210.574 258.472 210.573 258.473 210.573H259.502V211.826H259.502H238.027V210.573H239.056C239.057 210.573 239.058 210.574 239.058 210.574C239.059 210.574 239.06 210.573 239.061 210.573H239.07C239.071 210.573 239.072 210.573 239.073 210.573H244.6C244.924 210.573 245.187 210.311 245.187 209.987C245.187 209.662 244.924 209.4 244.6 209.4H241.544L248.765 205.789L255.985 209.4H247.217C246.892 209.4 246.63 209.662 246.63 209.987C246.63 210.311 246.892 210.573 247.217 210.573H258.468C258.469 210.573 258.47 210.574 258.471 210.574ZM257.54 208.865L250.077 205.133L255.674 202.334L257.54 208.865ZM255.026 200.064L249.788 196.397L253.28 193.953L255.026 200.064ZM254.205 185.942V184.071L260.752 185.942H254.205ZM262.738 189.542V190.795H260.676V189.542H262.738Z" fill="#BDBDBD"/>
<rect width="241" height="218" fill="url(#paint0_linear)"/>
<path d="M197.069 106.07H149.898V99.4043H162.625C164.243 99.4043 165.555 98.0926 165.555 96.4746C165.555 94.8567 164.243 93.545 162.625 93.545H149.898V86.879H158.734C162.026 86.879 165.121 85.5974 167.448 83.2696L186.716 64.0017C187.972 64.6271 189.364 64.9599 190.807 64.9599C193.263 64.9599 195.571 64.0037 197.307 62.2678C199.044 60.5314 200 58.2232 200 55.7678C200 53.3123 199.044 51.0041 197.307 49.2678C195.571 47.5315 193.263 46.5752 190.807 46.5752C188.352 46.5752 186.044 47.5315 184.307 49.2674C182.571 51.0037 181.615 53.3119 181.615 55.7674C181.615 57.2111 181.948 58.6029 182.573 59.8584L163.305 79.1263C162.084 80.347 160.461 81.0196 158.734 81.0196H149.898V74.5556C149.898 66.0338 142.965 59.101 134.443 59.101H127.979V33.1655C131.615 31.9394 134.242 28.4991 134.242 24.4546C134.242 19.3859 130.118 15.2625 125.05 15.2625C119.981 15.2625 115.858 19.3863 115.858 24.4546C115.858 28.4991 118.484 31.939 122.12 33.1655V59.1006H115.454V46.3737C115.454 44.7557 114.143 43.444 112.525 43.444C110.907 43.444 109.595 44.7557 109.595 46.3737V59.1006H102.929V11.9297C102.929 10.3117 101.617 9 99.9995 9C98.3815 9 97.0698 10.3117 97.0698 11.9297V59.1006H90.4042V46.3737C90.4042 44.7557 89.0925 43.444 87.4745 43.444C85.8566 43.444 84.5448 44.7557 84.5448 46.3737V59.1006H77.8792V50.2651C77.8792 46.9733 76.5972 43.8784 74.2695 41.551L54.9949 22.2765C56.6977 18.8386 56.127 14.5519 53.268 11.6926C49.6836 8.1086 43.852 8.10899 40.2681 11.6926C36.6841 15.2765 36.6841 21.1082 40.2681 24.6925C42.0602 26.4843 44.4141 27.3804 46.768 27.3804C48.1696 27.3804 49.5688 27.055 50.852 26.4195L70.1265 45.6944C71.3476 46.9151 72.0199 48.5385 72.0199 50.2651V59.1006H65.5559C64.2492 59.1006 62.9496 59.2646 61.6934 59.5877C60.1266 59.9908 59.1832 61.5881 59.5863 63.1553C59.9895 64.7224 61.5871 65.6658 63.1539 65.2623C63.9332 65.0619 64.741 64.9599 65.5555 64.9599H134.443C139.734 64.9599 144.039 69.2646 144.039 74.5552V143.444C144.039 144.257 143.937 145.065 143.737 145.843C143.334 147.41 144.278 149.007 145.845 149.41C146.09 149.473 146.335 149.503 146.577 149.503C147.882 149.503 149.072 148.624 149.412 147.302C149.734 146.047 149.898 144.749 149.898 143.443V136.979H175.833C177.059 140.615 180.5 143.242 184.544 143.242C189.613 143.242 193.736 139.118 193.736 134.05C193.736 128.981 189.612 124.857 184.544 124.857C180.5 124.857 177.06 127.484 175.833 131.12H149.898V124.454H162.625C164.243 124.454 165.555 123.142 165.555 121.524C165.555 119.906 164.243 118.594 162.625 118.594H149.898V111.929H197.069C198.687 111.929 199.999 110.618 199.999 109C199.999 107.382 198.687 106.07 197.069 106.07ZM188.45 53.4112C189.08 52.7815 189.917 52.435 190.807 52.435C191.697 52.435 192.534 52.7815 193.164 53.4112C193.793 54.0408 194.14 54.8776 194.14 55.7678C194.14 56.658 193.793 57.4947 193.164 58.1244C192.534 58.7541 191.697 59.1006 190.807 59.1006C189.917 59.1006 189.08 58.7541 188.45 58.1244C187.821 57.4947 187.474 56.658 187.474 55.7678C187.474 54.8776 187.821 54.0404 188.45 53.4112ZM49.1243 20.5496C47.8251 21.8484 45.7106 21.8488 44.4106 20.5492C43.111 19.2496 43.111 17.1351 44.4106 15.8359C45.0606 15.1859 45.9137 14.8613 46.7676 14.8613C47.6212 14.8613 48.4747 15.1863 49.1243 15.8359C50.4239 17.1355 50.4239 19.25 49.1243 20.5496ZM125.05 27.7874C123.212 27.7874 121.717 26.2921 121.717 24.4546C121.717 22.6171 123.212 21.1218 125.05 21.1218C126.888 21.1218 128.383 22.6171 128.383 24.4546C128.383 26.2921 126.887 27.7874 125.05 27.7874ZM184.544 130.717C186.382 130.717 187.877 132.212 187.877 134.05C187.877 135.888 186.382 137.383 184.544 137.383C182.707 137.383 181.212 135.887 181.212 134.05C181.211 132.212 182.707 130.717 184.544 130.717Z" fill="#333333"/>
<path d="M159.731 193.307C156.872 190.448 152.585 189.877 149.147 191.58L129.873 172.305C128.652 171.084 127.98 169.461 127.98 167.734V158.899H134.444C135.75 158.899 137.049 158.734 138.305 158.411C139.872 158.008 140.815 156.411 140.412 154.844C140.009 153.277 138.413 152.334 136.845 152.737C136.066 152.937 135.258 153.039 134.444 153.039H65.5556C60.2646 153.039 55.9603 148.734 55.9603 143.444V74.5555C55.9603 73.741 56.0619 72.9332 56.2623 72.1547C56.6658 70.5879 55.7224 68.9907 54.1556 68.5872C52.5885 68.1836 50.9912 69.127 50.5881 70.6938C50.2646 71.9493 50.101 73.2485 50.101 74.5555V81.0195H24.1655C22.9394 77.3836 19.4991 74.7571 15.4546 74.7571C10.3859 74.7571 6.26247 78.8805 6.26247 83.9492C6.26247 89.0179 10.3863 93.1414 15.4546 93.1414C19.4991 93.1414 22.939 90.5148 24.1655 86.8789H50.1006V93.5449H37.3737C35.7557 93.5449 34.444 94.8566 34.444 96.4746C34.444 98.0925 35.7557 99.4042 37.3737 99.4042H50.1006V106.07H2.92968C1.31171 106.07 0 107.382 0 109C0 110.617 1.31171 111.929 2.92968 111.929H50.1006V118.595H37.3737C35.7557 118.595 34.444 119.906 34.444 121.524C34.444 123.142 35.7557 124.454 37.3737 124.454H50.1006V131.12H41.2647C37.9729 131.12 34.878 132.402 32.5507 134.729L13.2828 153.997C12.0273 153.372 10.6355 153.039 9.19176 153.039C6.7363 153.039 4.42811 153.995 2.69179 155.731C0.956246 157.468 0 159.776 0 162.231C0 164.686 0.956246 166.995 2.69257 168.731C4.4285 170.468 6.73708 171.423 9.19254 171.423C11.648 171.423 13.9562 170.467 15.6925 168.731C17.4288 166.995 18.3851 164.687 18.3851 162.231C18.3851 160.788 18.0523 159.396 17.4269 158.14L36.6948 138.872C37.9155 137.652 39.5389 136.979 41.2659 136.979H50.1018V143.443C50.1018 151.965 57.0349 158.898 65.5564 158.898H72.0204V184.833C68.3845 186.059 65.7579 189.499 65.7579 193.544C65.7579 198.612 69.8818 202.736 74.9501 202.736C80.0184 202.736 84.1422 198.612 84.1422 193.544C84.1422 189.499 81.5157 186.059 77.8798 184.833V158.898H84.5454V171.625C84.5454 173.243 85.8571 174.554 87.475 174.554C89.093 174.554 90.4047 173.243 90.4047 171.625V158.898H97.0699V206.069C97.0699 207.687 98.3816 208.999 99.9996 208.999C101.618 208.999 102.929 207.687 102.929 206.069V158.899H109.595V171.625C109.595 173.243 110.907 174.555 112.525 174.555C114.143 174.555 115.454 173.243 115.454 171.625V158.899H122.12V167.734C122.12 171.026 123.402 174.121 125.73 176.448L145.004 195.723C143.301 199.161 143.872 203.447 146.731 206.307C148.523 208.099 150.878 208.994 153.231 208.994C155.585 208.994 157.94 208.099 159.731 206.307C163.315 202.723 163.315 196.891 159.731 193.307ZM15.4546 87.282C13.6167 87.282 12.1218 85.7867 12.1218 83.9492C12.1218 82.1113 13.6171 80.6164 15.4546 80.6164C17.2921 80.6164 18.7874 82.1117 18.7874 83.9492C18.7878 85.7871 17.2925 87.282 15.4546 87.282ZM11.5488 164.588C10.9191 165.218 10.0824 165.564 9.19215 165.564C8.30192 165.564 7.4652 165.218 6.83552 164.588C6.20583 163.958 5.85935 163.122 5.85935 162.231C5.85935 161.341 6.20583 160.504 6.83552 159.875C7.4652 159.245 8.30192 158.899 9.19215 158.899C10.0824 158.899 10.9191 159.245 11.5488 159.875C12.1785 160.504 12.5249 161.341 12.5249 162.231C12.5249 163.122 12.1785 163.959 11.5488 164.588ZM78.2821 193.545C78.2821 195.382 76.7872 196.877 74.9493 196.877C73.1114 196.877 71.6165 195.382 71.6165 193.545C71.6165 191.707 73.1118 190.212 74.9493 190.212C76.7868 190.212 78.2821 191.707 78.2821 193.545ZM155.588 202.164C154.289 203.463 152.174 203.463 150.875 202.164C149.575 200.864 149.575 198.75 150.875 197.45C151.525 196.801 152.378 196.476 153.232 196.476C154.085 196.476 154.939 196.801 155.588 197.45C156.888 198.75 156.888 200.864 155.588 202.164Z" fill="#333333"/>
<path d="M131.111 101.172C131.111 94.9062 126.528 89.5988 120.254 87.8742C120.44 87.1082 120.543 86.3203 120.543 85.5152C120.543 79.5832 115.278 74.7571 108.807 74.7571C105.301 74.7571 102.152 76.1747 100 78.4153C97.8476 76.1747 94.6984 74.7571 91.1934 74.7571C84.7219 74.7571 79.4571 79.5832 79.4571 85.5152C79.4571 86.3203 79.5602 87.1082 79.7458 87.8742C73.472 89.5984 68.8892 94.9058 68.8892 101.172C68.8892 104.234 69.9728 107.123 71.9747 109.509C70.0173 112.043 68.8892 115.119 68.8892 118.394C68.8884 123.375 71.5501 128.026 75.9341 130.912C75.9341 130.914 75.9341 130.916 75.9341 130.919C75.9341 137.714 81.9891 143.242 89.4321 143.242C93.7094 143.242 97.5254 141.415 100 138.572C102.475 141.415 106.291 143.242 110.568 143.242C117.731 143.242 123.605 138.121 124.037 131.679C128.388 129.155 131.111 124.733 131.111 119.959C131.111 116.448 129.614 113.098 127.037 110.566C129.613 108.034 131.111 104.683 131.111 101.172ZM120.742 113.156C123.565 114.646 125.25 117.189 125.25 119.959C125.25 122.024 124.291 123.994 122.669 125.467C121.129 122.615 118.407 120.345 114.967 119.265C113.425 118.78 111.78 119.638 111.294 121.182C110.809 122.725 111.668 124.37 113.211 124.855C116.198 125.793 118.205 128.23 118.205 130.919C118.205 134.483 114.778 137.383 110.566 137.383C106.355 137.383 102.928 134.483 102.928 130.919V112.131C102.928 108.567 106.355 105.667 110.566 105.667C112.184 105.667 113.496 104.355 113.496 102.737C113.496 101.119 112.184 99.8078 110.566 99.8078C107.733 99.8078 105.102 100.611 102.928 101.978V98.2363C102.928 96.6183 101.616 95.3066 99.9984 95.3066C98.3805 95.3066 97.0687 96.6183 97.0687 98.2363V114.501C96.0828 113.882 95.0016 113.37 93.832 113.002C92.2875 112.517 90.6438 113.376 90.159 114.919C89.6738 116.462 90.5321 118.107 92.0754 118.592C95.0621 119.531 97.0687 121.968 97.0687 124.656V130.919C97.0687 134.483 93.6422 137.383 89.4305 137.383C85.2184 137.383 81.7918 134.483 81.7918 130.919C81.7918 129.391 82.4395 127.906 83.6153 126.737C84.7629 125.596 84.7684 123.741 83.6278 122.594C82.4872 121.446 80.6325 121.44 79.4848 122.581C78.7829 123.279 78.1786 124.042 77.6762 124.852C75.8262 123.102 74.7462 120.8 74.7462 118.393C74.7462 114.053 78.1528 110.239 83.0305 109.12C84.6075 108.759 85.5926 107.187 85.2309 105.61C84.8692 104.032 83.2969 103.048 81.7204 103.409C79.7567 103.86 77.9489 104.612 76.3458 105.599C75.3063 104.293 74.7466 102.764 74.7466 101.171C74.7477 96.7644 78.9251 93.1769 84.0746 93.143C84.1008 93.1437 84.127 93.1472 84.1528 93.1472C84.8215 93.1472 85.4938 92.9195 86.0442 92.4535C87.1672 91.5027 87.3926 89.8894 86.6387 88.6758C86.6164 88.6398 86.5961 88.6031 86.5727 88.5684C86.5606 88.5508 86.5461 88.534 86.5336 88.5164C86.4883 88.4527 86.4418 88.3902 86.3914 88.3301C86.3899 88.3281 86.3887 88.3262 86.3871 88.3246C85.8985 87.7469 85.3153 86.7906 85.3153 85.5149C85.3153 82.8137 87.952 80.616 91.1922 80.616C94.4324 80.616 97.0691 82.8137 97.0691 85.5149C97.0691 87.1328 98.3808 88.4445 99.9988 88.4445C101.617 88.4445 102.928 87.1328 102.928 85.5149C102.928 82.8137 105.565 80.616 108.805 80.616C112.046 80.616 114.682 82.8137 114.682 85.5149C114.682 86.2367 114.493 86.8524 114.243 87.3586C112.577 87.516 110.965 87.9188 109.435 88.5641C107.944 89.1926 107.245 90.9109 107.873 92.4019C108.502 93.8926 110.22 94.5922 111.711 93.9633C112.978 93.4293 114.34 93.1547 115.761 93.1437C115.789 93.1445 115.817 93.1472 115.845 93.1472C115.871 93.1472 115.897 93.1437 115.923 93.143C121.073 93.1765 125.25 96.7644 125.25 101.171C125.25 103.941 123.565 106.484 120.742 107.974C119.781 108.481 119.18 109.478 119.18 110.565C119.18 111.652 119.781 112.649 120.742 113.156Z" fill="#333333"/>
<defs>
<linearGradient id="paint0_linear" x1="-3.15593e-06" y1="100.28" x2="241" y2="100.28" gradientUnits="userSpaceOnUse">
<stop offset="0.740331" stop-color="white"/>
<stop offset="1" stop-color="white" stop-opacity="0"/>
</linearGradient>
</defs>
</svg>
