<svg width="305" height="227" viewBox="0 0 305 227" fill="none" xmlns="http://www.w3.org/2000/svg">
<path d="M0.00552281 117.097C-0.026659 116.446 0.194014 115.784 0.673064 115.287C1.15211 114.79 1.79 114.561 2.41731 114.595C2.45432 114.593 2.49088 114.589 2.52857 114.589H16.4357C17.7053 114.589 18.7344 115.657 18.7344 116.974C18.7344 118.291 17.7053 119.358 16.4357 119.358H7.84846L30.5727 142.931L39.1423 134.042C39.5733 133.595 40.1581 133.343 40.7677 133.343C41.3773 133.343 41.9621 133.595 42.3931 134.042L83.7167 176.909C84.6143 177.84 84.6143 179.35 83.7167 180.281C83.2677 180.746 82.6795 180.979 82.0912 180.979C81.503 180.979 80.9145 180.746 80.4658 180.281L40.7677 139.1L32.1982 147.989C31.3005 148.92 29.845 148.92 28.9471 147.989L4.59741 122.731V130.793C4.59741 132.11 3.56828 133.177 2.2987 133.177C1.02913 133.177 1.93949e-06 132.11 1.93949e-06 130.793V117.212C1.93949e-06 117.173 0.00391372 117.135 0.00552281 117.097Z" fill="#E0E0E0"/>
<path d="M29.0996 65.3214C29.2309 64.6842 29.6092 64.1043 30.1959 63.7529C30.7826 63.4015 31.4559 63.3514 32.0535 63.5523C32.0896 63.5606 32.1259 63.5665 32.1624 63.5766L45.5956 67.3105C46.822 67.6513 47.5497 68.9588 47.2211 70.2309C46.8925 71.503 45.6321 72.2579 44.4057 71.917L36.1111 69.6115L52.1795 98.4824L62.6751 92.1966C63.2029 91.8804 63.8305 91.7947 64.4194 91.9583C65.0082 92.122 65.5103 92.5218 65.8151 93.0694L95.0352 145.57C95.67 146.711 95.2932 148.169 94.1938 148.828C93.6441 149.157 93.0178 149.223 92.4496 149.066C91.8814 148.908 91.3711 148.525 91.0539 147.954L62.9831 97.5187L52.4876 103.805C51.3882 104.463 49.9822 104.072 49.3473 102.932L32.1294 71.9962L30.1178 79.7836C29.7893 81.0557 28.5288 81.8106 27.3025 81.4697C26.0762 81.1289 25.3485 79.8214 25.6771 78.5493L29.0655 65.4314C29.0752 65.3938 29.0884 65.3583 29.0996 65.3214Z" fill="#BDBDBD"/>
<path d="M70.4491 26.7115C70.7349 26.1312 71.245 25.6726 71.8994 25.4907C72.5538 25.3089 73.2167 25.4413 73.7437 25.7957C73.7766 25.8135 73.8102 25.8289 73.8428 25.8485L85.8868 33.0617C86.9863 33.7202 87.3629 35.1785 86.7282 36.3191C86.0934 37.4596 84.6876 37.8504 83.5881 37.1919L76.1513 32.7379L84.4688 64.9393L96.1751 61.6854C96.7638 61.5218 97.3914 61.6075 97.9194 61.9236C98.4473 62.2398 98.8326 62.7608 98.9904 63.3716L114.116 121.929C114.444 123.201 113.717 124.508 112.49 124.849C111.877 125.019 111.256 124.916 110.746 124.611C110.237 124.306 109.839 123.799 109.675 123.163L95.1447 66.9089L83.4385 70.1628C82.2123 70.5036 80.9517 69.7486 80.623 68.4765L71.7103 33.9723L67.8243 40.9543C67.1895 42.0949 65.7837 42.4856 64.6842 41.8271C63.5847 41.1686 63.208 39.7103 63.8428 38.5698L70.3887 26.8086C70.4075 26.7749 70.4291 26.7441 70.4491 26.7115Z" fill="#828282"/>
<path d="M304.384 117.097C304.417 116.446 304.196 115.784 303.717 115.287C303.238 114.79 302.6 114.561 301.973 114.595C301.936 114.593 301.899 114.589 301.861 114.589H287.954C286.685 114.589 285.655 115.657 285.655 116.974C285.655 118.291 286.685 119.358 287.954 119.358H296.541L273.817 142.931L265.248 134.042C264.817 133.595 264.232 133.343 263.622 133.343C263.013 133.343 262.428 133.595 261.997 134.042L220.673 176.909C219.776 177.84 219.776 179.35 220.673 180.281C221.122 180.746 221.71 180.979 222.299 180.979C222.887 180.979 223.475 180.746 223.924 180.281L263.622 139.1L272.192 147.989C273.089 148.92 274.545 148.92 275.443 147.989L299.792 122.731V130.793C299.792 132.11 300.822 133.177 302.091 133.177C303.361 133.177 304.39 132.11 304.39 130.793V117.212C304.39 117.173 304.386 117.135 304.384 117.097Z" fill="#E0E0E0"/>
<path d="M275.29 65.3214C275.159 64.6842 274.781 64.1043 274.194 63.7529C273.607 63.4015 272.934 63.3514 272.336 63.5523C272.3 63.5606 272.264 63.5665 272.228 63.5766L258.794 67.3105C257.568 67.6513 256.84 68.9588 257.169 70.2309C257.497 71.503 258.758 72.2579 259.984 71.9171L268.279 69.6115L252.21 98.4824L241.715 92.1966C241.187 91.8804 240.559 91.7947 239.971 91.9583C239.382 92.122 238.88 92.5218 238.575 93.0694L209.355 145.57C208.72 146.711 209.097 148.169 210.196 148.828C210.746 149.157 211.372 149.223 211.94 149.066C212.508 148.908 213.019 148.525 213.336 147.955L241.407 97.5187L251.902 103.805C253.002 104.463 254.408 104.072 255.043 102.932L272.261 71.9962L274.272 79.7836C274.601 81.0557 275.861 81.8106 277.087 81.4697C278.314 81.1289 279.041 79.8214 278.713 78.5493L275.324 65.4314C275.315 65.3938 275.301 65.3583 275.29 65.3214Z" fill="#BDBDBD"/>
<path d="M233.941 26.7115C233.655 26.1312 233.145 25.6726 232.491 25.4907C231.836 25.3089 231.173 25.4413 230.646 25.7957C230.613 25.8135 230.58 25.8289 230.547 25.8485L218.503 33.0617C217.404 33.7202 217.027 35.1785 217.662 36.3191C218.297 37.4596 219.702 37.8504 220.802 37.1919L228.239 32.7379L219.921 64.9393L208.215 61.6854C207.626 61.5218 206.998 61.6075 206.471 61.9236C205.943 62.2398 205.557 62.7608 205.4 63.3716L190.274 121.929C189.946 123.201 190.673 124.508 191.9 124.849C192.513 125.019 193.134 124.916 193.644 124.611C194.153 124.306 194.551 123.799 194.715 123.163L209.245 66.9089L220.951 70.1627C222.178 70.5036 223.438 69.7486 223.767 68.4765L232.68 33.9723L236.566 40.9543C237.2 42.0949 238.606 42.4856 239.706 41.8271C240.805 41.1686 241.182 39.7103 240.547 38.5698L234.001 26.8086C233.982 26.7749 233.961 26.7441 233.941 26.7115Z" fill="#828282"/>
<path d="M181.109 1.77746C180.688 1.29371 180.081 0.987674 179.404 0.987674C178.726 0.987674 178.119 1.29353 177.698 1.77745C177.671 1.80342 177.643 1.82736 177.616 1.85502L167.782 12.0561C166.884 12.9873 166.884 14.4971 167.782 15.4283C168.68 16.3596 170.135 16.3596 171.033 15.4283L177.105 9.12946L177.105 42.4667L164.986 42.4667C164.376 42.4667 163.792 42.7179 163.361 43.1651C162.93 43.6122 162.687 44.2189 162.687 44.8512L162.687 105.474C162.687 106.791 163.717 107.858 164.986 107.859C165.621 107.858 166.195 107.591 166.611 107.16C167.027 106.728 167.285 106.132 167.285 105.474L167.285 47.2355L179.404 47.2355C180.673 47.2355 181.702 46.1679 181.703 44.8509L181.703 9.12946L187.198 14.8302C188.096 15.7615 189.551 15.7615 190.449 14.8302C191.347 13.899 191.347 12.3892 190.449 11.458L181.192 1.85502C181.165 1.82753 181.137 1.80359 181.109 1.77746Z" fill="#4F4F4F"/>
<path d="M123.281 1.77721C123.701 1.29346 124.309 0.98743 124.986 0.98743C125.664 0.98743 126.271 1.29329 126.691 1.77721C126.719 1.80317 126.747 1.82712 126.774 1.85477L136.608 12.0558C137.506 12.9871 137.506 14.4968 136.608 15.4281C135.71 16.3593 134.255 16.3593 133.357 15.4281L127.285 9.12922L127.285 42.4664L139.404 42.4664C140.013 42.4664 140.598 42.7177 141.029 43.1648C141.46 43.612 141.703 44.2187 141.703 44.8509L141.702 105.474C141.702 106.791 140.673 107.858 139.404 107.858C138.769 107.858 138.194 107.591 137.778 107.16C137.363 106.728 137.105 106.132 137.105 105.474L137.105 47.2353L124.986 47.2353C123.717 47.2353 122.688 46.1676 122.687 44.8506L122.687 9.12922L117.192 14.83C116.294 15.7613 114.838 15.7613 113.941 14.83C113.043 13.8988 113.043 12.389 113.941 11.4578L123.198 1.85477C123.225 1.82729 123.253 1.80335 123.281 1.77721Z" fill="#4F4F4F"/>
<path d="M178.865 170.424C179.37 168.023 179.35 165.534 178.807 163.142C178.263 160.749 177.21 158.513 175.724 156.598C174.238 154.684 172.357 153.138 170.22 152.076C168.083 151.014 165.744 150.463 163.375 150.462H142.274C138.271 150.419 134.394 151.909 131.384 154.647C128.374 157.385 126.443 161.177 125.961 165.3C125.744 167.583 125.991 169.888 126.686 172.067C127.38 174.245 128.506 176.249 129.992 177.949C131.478 179.649 133.29 181.007 135.312 181.937C137.335 182.866 139.522 183.346 141.734 183.346C143.165 183.342 144.589 183.136 145.966 182.734C150.074 181.407 154.465 181.35 158.603 182.571C161.191 183.417 163.943 183.568 166.603 183.009C169.6 182.364 172.353 180.833 174.529 178.599C176.706 176.366 178.211 173.526 178.865 170.424ZM172.514 169.044C172.231 170.355 171.688 171.591 170.92 172.672C170.152 173.754 169.175 174.658 168.052 175.327C166.929 175.997 165.684 176.416 164.396 176.559C163.108 176.702 161.805 176.565 160.571 176.158C158.088 175.351 155.5 174.949 152.898 174.967C149.957 174.985 147.032 175.419 144.204 176.256C142.536 176.715 140.779 176.695 139.122 176.196C137.464 175.698 135.969 174.741 134.796 173.427C133.911 172.424 133.241 171.238 132.829 169.947C132.418 168.656 132.275 167.289 132.409 165.936C132.731 163.479 133.913 161.23 135.73 159.618C137.547 158.007 139.872 157.144 142.262 157.196H163.363C164.768 157.197 166.154 157.524 167.421 158.155C168.687 158.786 169.8 159.704 170.679 160.842C171.557 161.979 172.178 163.307 172.495 164.726C172.812 166.146 172.818 167.621 172.511 169.044H172.514Z" fill="#4F4F4F"/>
<path d="M205.625 194.979H186.03C190.45 190.976 193.442 185.547 194.523 179.565H202.113C202.974 179.565 203.8 179.21 204.408 178.579C205.017 177.947 205.359 177.091 205.359 176.198V160.438C205.359 159.545 205.017 158.689 204.408 158.057C203.8 157.426 202.974 157.071 202.113 157.071H194.31C192.996 151.08 189.761 145.729 185.135 141.892C180.509 138.055 174.765 135.96 168.843 135.948H136.26C130.337 135.961 124.594 138.056 119.969 141.893C115.343 145.73 112.109 151.081 110.795 157.071H103.004C102.143 157.071 101.317 157.426 100.709 158.057C100.1 158.689 99.7579 159.545 99.7579 160.438V176.192C99.7579 177.085 100.1 177.941 100.709 178.573C101.317 179.204 102.143 179.559 103.004 179.559H110.594C111.675 185.541 114.667 190.97 119.087 194.972H99.4775C94.0482 194.98 88.8433 197.22 85.0045 201.203C81.1656 205.186 79.0062 210.586 79 216.218V223.317C79 224.21 79.342 225.066 79.9508 225.698C80.5596 226.329 81.3853 226.684 82.2462 226.684C83.1071 226.684 83.9328 226.329 84.5416 225.698C85.1504 225.066 85.4924 224.21 85.4924 223.317V216.224C85.4963 212.377 86.9713 208.688 89.5937 205.968C92.2161 203.247 95.7718 201.717 99.4805 201.713H103.075V223.317C103.075 224.21 103.417 225.066 104.026 225.698C104.634 226.329 105.46 226.684 106.321 226.684C107.182 226.684 108.008 226.329 108.616 225.698C109.225 225.066 109.567 224.21 109.567 223.317V201.713H152.554H195.541V223.317C195.541 224.21 195.883 225.066 196.492 225.698C197.101 226.329 197.926 226.684 198.787 226.684C199.648 226.684 200.474 226.329 201.083 225.698C201.691 225.066 202.033 224.21 202.033 223.317V201.713H205.628C209.336 201.717 212.892 203.247 215.515 205.968C218.137 208.688 219.612 212.377 219.616 216.224V223.317C219.616 224.21 219.958 225.066 220.567 225.698C221.175 226.329 222.001 226.684 222.862 226.684C223.723 226.684 224.549 226.329 225.157 225.698C225.766 225.066 226.108 224.21 226.108 223.317V216.224C226.102 210.591 223.942 205.19 220.102 201.207C216.262 197.224 211.055 194.984 205.625 194.979ZM198.867 172.83H194.983V163.806H198.867V172.83ZM106.235 163.806H110.119V172.824H106.235V163.806ZM136.26 194.979C131.051 194.972 126.057 192.823 122.373 189.002C118.69 185.181 116.618 180 116.611 174.597V163.053C116.621 157.651 118.694 152.474 122.377 148.655C126.06 144.837 131.053 142.689 136.26 142.683H168.843C174.052 142.689 179.046 144.839 182.729 148.66C186.413 152.481 188.485 157.661 188.491 163.065V174.609C188.485 180.012 186.413 185.193 182.729 189.014C179.046 192.835 174.052 194.984 168.843 194.991L136.26 194.979Z" fill="#333333"/>
<path d="M140.609 112.852V112.826L140.608 112.801C140.478 107.708 139.077 102.732 136.536 98.3609C134.5 94.6197 133.736 90.2687 134.374 86.0127C135.019 81.8702 136.938 78.0671 139.831 75.1676C142.721 72.2697 146.428 70.4301 150.392 69.9086C153.739 69.4951 157.133 70.0467 160.203 71.5071C163.277 72.9689 165.911 75.2874 167.81 78.2162C169.709 81.1457 170.796 84.5687 170.943 88.108C171.09 91.6377 170.297 95.1374 168.656 98.2224C166.066 102.754 164.637 107.891 164.497 113.148L164.497 113.174V113.201V118.779C164.497 118.968 164.46 119.154 164.392 119.326C164.324 119.497 164.225 119.648 164.106 119.772C163.987 119.895 163.849 119.989 163.703 120.052C163.557 120.115 163.404 120.146 163.25 120.146H141.855C141.702 120.146 141.548 120.115 141.402 120.052C141.256 119.989 141.119 119.895 141 119.772C140.88 119.648 140.782 119.497 140.713 119.326C140.645 119.154 140.609 118.968 140.609 118.779V112.852Z" fill="white" stroke="#333333" stroke-width="4"/>
<path d="M152.553 60.351C153.414 60.351 154.239 59.9962 154.848 59.3647C155.457 58.7332 155.799 57.8766 155.799 56.9835V47.417C155.799 46.5239 155.457 45.6674 154.848 45.0359C154.239 44.4043 153.414 44.0496 152.553 44.0496C151.692 44.0496 150.866 44.4043 150.257 45.0359C149.648 45.6674 149.306 46.5239 149.306 47.417V56.9835C149.306 57.4258 149.39 57.8636 149.554 58.2722C149.717 58.6808 149.956 59.052 150.257 59.3647C150.559 59.6774 150.916 59.9254 151.31 60.0946C151.704 60.2639 152.126 60.351 152.553 60.351V60.351Z" fill="#333333"/>
<path d="M173.812 69.486C174.238 69.4861 174.661 69.3991 175.054 69.23C175.448 69.0609 175.806 68.8129 176.108 68.5002L182.627 61.7347C183.236 61.1027 183.578 60.2456 183.577 59.352C183.577 58.4584 183.235 57.6015 182.625 56.9698C182.016 56.3382 181.19 55.9835 180.328 55.9838C179.467 55.9841 178.641 56.3393 178.032 56.9714L171.513 63.7368C171.059 64.2078 170.75 64.8079 170.624 65.4613C170.499 66.1146 170.563 66.7919 170.809 67.4073C171.055 68.0228 171.471 68.5488 172.005 68.9188C172.539 69.2888 173.167 69.4862 173.809 69.486H173.812Z" fill="#333333"/>
<path d="M179.372 88.1718C179.372 89.0649 179.714 89.9214 180.323 90.5529C180.931 91.1844 181.757 91.5392 182.618 91.5392H191.84C192.701 91.5392 193.527 91.1844 194.136 90.5529C194.744 89.9214 195.086 89.0649 195.086 88.1718C195.086 87.2787 194.744 86.4222 194.136 85.7907C193.527 85.1592 192.701 84.8044 191.84 84.8044H182.615C181.755 84.8053 180.93 85.1604 180.322 85.7918C179.713 86.4232 179.372 87.2793 179.372 88.1718Z" fill="#333333"/>
<path d="M174.665 110.161C174.364 110.474 174.124 110.845 173.961 111.254C173.798 111.662 173.714 112.1 173.714 112.543C173.714 112.985 173.798 113.423 173.961 113.832C174.124 114.24 174.364 114.612 174.665 114.924L181.184 121.687C181.793 122.319 182.619 122.674 183.48 122.674C184.342 122.675 185.168 122.32 185.777 121.688C186.387 121.057 186.729 120.2 186.729 119.306C186.73 118.413 186.388 117.556 185.779 116.924L179.26 110.161C178.958 109.848 178.6 109.599 178.206 109.43C177.812 109.26 177.389 109.173 176.963 109.173C176.536 109.173 176.113 109.26 175.719 109.43C175.325 109.599 174.967 109.848 174.665 110.161V110.161Z" fill="#333333"/>
<path d="M125.845 110.161L119.329 116.923C119.028 117.236 118.789 117.608 118.626 118.017C118.462 118.426 118.379 118.864 118.379 119.306C118.379 119.749 118.463 120.187 118.626 120.595C118.79 121.004 119.029 121.376 119.331 121.688C119.632 122.001 119.991 122.249 120.385 122.418C120.779 122.588 121.201 122.675 121.628 122.674C122.054 122.674 122.477 122.587 122.871 122.418C123.265 122.248 123.623 122 123.924 121.687L130.443 114.924C131.052 114.292 131.394 113.434 131.393 112.54C131.393 111.647 131.05 110.79 130.44 110.158C129.83 109.526 129.004 109.172 128.142 109.172C127.28 109.173 126.454 109.528 125.845 110.161Z" fill="#333333"/>
<path d="M113.265 91.5392H122.487C123.348 91.5392 124.174 91.1844 124.782 90.5529C125.391 89.9214 125.733 89.0649 125.733 88.1718C125.733 87.2787 125.391 86.4222 124.782 85.7907C124.174 85.1592 123.348 84.8044 122.487 84.8044H113.265C112.404 84.8044 111.578 85.1592 110.97 85.7907C110.361 86.4222 110.019 87.2787 110.019 88.1718C110.019 89.0649 110.361 89.9214 110.97 90.5529C111.578 91.1844 112.404 91.5392 113.265 91.5392V91.5392Z" fill="#333333"/>
<path d="M128.994 68.5C129.603 69.132 130.429 69.4873 131.291 69.4876C132.152 69.4878 132.978 69.1332 133.588 68.5015C134.197 67.8699 134.539 67.013 134.54 66.1194C134.54 65.2258 134.198 64.3688 133.589 63.7367L127.07 56.9714C126.459 56.353 125.638 56.009 124.785 56.014C123.931 56.0189 123.114 56.3724 122.51 56.9979C121.906 57.6234 121.563 58.4705 121.557 59.3559C121.55 60.2413 121.88 61.0937 122.475 61.7285L128.994 68.5Z" fill="#333333"/>
<path d="M163.25 126.894H141.855C140.994 126.894 140.168 127.249 139.559 127.88C138.951 128.512 138.609 129.368 138.609 130.262C138.609 131.155 138.951 132.011 139.559 132.643C140.168 133.274 140.994 133.629 141.855 133.629H163.25C164.111 133.629 164.937 133.274 165.546 132.643C166.154 132.011 166.496 131.155 166.496 130.262C166.496 129.368 166.154 128.512 165.546 127.88C164.937 127.249 164.111 126.894 163.25 126.894V126.894Z" fill="#333333"/>
<path d="M60.4962 158.467C60.4677 158.538 60.4272 158.6 60.3793 158.649L60.3793 158.649C60.3315 158.699 60.2776 158.735 60.2218 158.759L60.8122 160.138L60.2218 158.759C60.1661 158.783 60.1083 158.794 60.0511 158.794H46.943C46.8858 158.794 46.828 158.783 46.7723 158.759C46.7165 158.735 46.6625 158.699 46.6148 158.649C46.5669 158.6 46.5264 158.538 46.4979 158.467C46.4694 158.396 46.4542 158.318 46.4542 158.238V154.62V154.601L46.4537 154.582C46.3729 151.426 45.5019 148.343 43.9225 145.634C42.7066 143.405 42.2498 140.813 42.631 138.277C43.0173 135.806 44.1658 133.539 45.8953 131.811C47.6237 130.085 49.839 128.989 52.2072 128.679C54.2063 128.433 56.2338 128.761 58.0682 129.631C59.9047 130.501 61.48 131.882 62.6156 133.628C63.7514 135.374 64.4015 137.414 64.4897 139.525C64.5775 141.628 64.1035 143.714 63.1233 145.552C61.515 148.358 60.6272 151.539 60.5405 154.793L60.5399 154.813V154.833V158.238C60.5399 158.318 60.5247 158.396 60.4962 158.467Z" fill="white" stroke="#4F4F4F" stroke-width="3"/>
<path d="M54 122.95C54.5304 122.95 55.0391 122.724 55.4142 122.322C55.7893 121.921 56 121.375 56 120.807V114.719C56 114.151 55.7893 113.606 55.4142 113.204C55.0391 112.802 54.5304 112.577 54 112.577C53.4696 112.577 52.9609 112.802 52.5858 113.204C52.2107 113.606 52 114.151 52 114.719V120.807C52 121.089 52.0517 121.367 52.1522 121.627C52.2528 121.887 52.4001 122.123 52.5858 122.322C52.7715 122.521 52.992 122.679 53.2346 122.787C53.4773 122.895 53.7374 122.95 54 122.95V122.95Z" fill="#4F4F4F"/>
<path d="M65.9977 128.137C66.2598 128.137 66.5193 128.083 66.7614 127.979C67.0035 127.875 67.2236 127.723 67.4089 127.531L71.4157 123.373C71.79 122.984 72.0002 122.457 72 121.908C71.9998 121.359 71.7893 120.832 71.4148 120.444C71.0403 120.056 70.5325 119.838 70.003 119.838C69.4735 119.838 68.9658 120.057 68.5915 120.445L64.5847 124.603C64.3056 124.893 64.1154 125.262 64.0384 125.663C63.9613 126.065 64.0009 126.481 64.1519 126.859C64.303 127.237 64.5588 127.561 64.8871 127.788C65.2153 128.016 65.6012 128.137 65.9959 128.137H65.9977Z" fill="#4F4F4F"/>
<path d="M70 139.547C70 140.098 70.1959 140.625 70.5445 141.014C70.8932 141.404 71.3661 141.622 71.8592 141.622H77.1408C77.6339 141.622 78.1068 141.404 78.4555 141.014C78.8041 140.625 79 140.098 79 139.547C79 138.997 78.8041 138.47 78.4555 138.081C78.1068 137.691 77.6339 137.473 77.1408 137.473H71.8575C71.3647 137.473 70.8922 137.692 70.5439 138.081C70.1956 138.47 70 138.998 70 139.547Z" fill="#4F4F4F"/>
<path d="M66.5847 152.603C66.3994 152.795 66.2523 153.024 66.152 153.275C66.0516 153.526 66 153.795 66 154.067C66 154.339 66.0516 154.608 66.152 154.859C66.2523 155.111 66.3994 155.339 66.5847 155.531L70.5915 159.687C70.9658 160.076 71.4735 160.294 72.003 160.294C72.5325 160.294 73.0403 160.076 73.4148 159.688C73.7893 159.3 73.9998 158.773 74 158.224C74.0002 157.675 73.79 157.148 73.4157 156.76L69.4089 152.603C69.2236 152.411 69.0035 152.258 68.7612 152.154C68.5189 152.049 68.2591 151.996 67.9968 151.996C67.7345 151.996 67.4748 152.049 67.2325 152.154C66.9902 152.258 66.77 152.411 66.5847 152.603V152.603Z" fill="#4F4F4F"/>
<path d="M37.5897 152.603L33.5843 156.76C33.399 156.952 33.252 157.18 33.1517 157.432C33.0515 157.683 32.9999 157.952 33 158.224C33.0001 158.496 33.0518 158.765 33.1522 159.017C33.2526 159.268 33.3998 159.496 33.5852 159.688C33.7707 159.88 33.9908 160.033 34.2331 160.137C34.4754 160.241 34.735 160.294 34.9972 160.294C35.2594 160.294 35.519 160.241 35.7612 160.136C36.0034 160.032 36.2234 159.88 36.4088 159.687L40.4159 155.531C40.7902 155.142 41.0003 154.615 41 154.066C40.9997 153.516 40.7889 152.99 40.4141 152.602C40.0393 152.213 39.5312 151.995 39.0015 151.996C38.4719 151.996 37.964 152.215 37.5897 152.603Z" fill="#4F4F4F"/>
<path d="M29.8592 141.622H35.1408C35.6339 141.622 36.1068 141.404 36.4555 141.014C36.8041 140.625 37 140.098 37 139.547C37 138.997 36.8041 138.47 36.4555 138.081C36.1068 137.691 35.6339 137.473 35.1408 137.473H29.8592C29.3661 137.473 28.8932 137.691 28.5445 138.081C28.1959 138.47 28 138.997 28 139.547C28 140.098 28.1959 140.625 28.5445 141.014C28.8932 141.404 29.3661 141.622 29.8592 141.622V141.622Z" fill="#4F4F4F"/>
<path d="M39.583 127.528C39.9582 127.918 40.4672 128.137 40.998 128.137C41.5288 128.137 42.0379 127.918 42.4134 127.529C42.7888 127.14 42.9998 126.613 43 126.062C43.0002 125.512 42.7895 124.984 42.4143 124.595L38.3974 120.428C38.021 120.047 37.515 119.835 36.9891 119.838C36.4631 119.841 35.9595 120.059 35.5872 120.444C35.215 120.829 35.004 121.351 35.0001 121.897C34.9961 122.442 35.1994 122.967 35.5661 123.358L39.583 127.528Z" fill="#4F4F4F"/>
<path d="M60.0212 162.369H46.9788C46.454 162.369 45.9507 162.588 45.5796 162.977C45.2085 163.366 45 163.893 45 164.444C45 164.994 45.2085 165.522 45.5796 165.911C45.9507 166.3 46.454 166.518 46.9788 166.518H60.0212C60.546 166.518 61.0493 166.3 61.4204 165.911C61.7915 165.522 62 164.994 62 164.444C62 163.893 61.7915 163.366 61.4204 162.977C61.0493 162.588 60.546 162.369 60.0212 162.369V162.369Z" fill="#4F4F4F"/>
<path d="M258.496 158.467C258.468 158.538 258.427 158.6 258.379 158.649L258.379 158.649C258.332 158.699 258.278 158.735 258.222 158.759L258.812 160.138L258.222 158.759C258.166 158.783 258.108 158.794 258.051 158.794H244.943C244.886 158.794 244.828 158.783 244.772 158.759C244.717 158.735 244.663 158.699 244.615 158.649C244.567 158.6 244.526 158.538 244.498 158.467C244.469 158.396 244.454 158.318 244.454 158.238V154.62V154.601L244.454 154.582C244.373 151.426 243.502 148.343 241.922 145.634C240.707 143.405 240.25 140.813 240.631 138.277C241.017 135.806 242.166 133.539 243.895 131.811C245.624 130.085 247.839 128.989 250.207 128.679C252.206 128.433 254.234 128.761 256.068 129.631C257.905 130.501 259.48 131.882 260.616 133.628C261.751 135.374 262.402 137.414 262.49 139.525C262.578 141.628 262.104 143.714 261.123 145.552C259.515 148.358 258.627 151.539 258.54 154.793L258.54 154.813V154.833V158.238C258.54 158.318 258.525 158.396 258.496 158.467Z" fill="white" stroke="#4F4F4F" stroke-width="3"/>
<path d="M252 122.95C252.53 122.95 253.039 122.724 253.414 122.322C253.789 121.921 254 121.375 254 120.807V114.719C254 114.151 253.789 113.606 253.414 113.204C253.039 112.802 252.53 112.577 252 112.577C251.47 112.577 250.961 112.802 250.586 113.204C250.211 113.606 250 114.151 250 114.719V120.807C250 121.089 250.052 121.367 250.152 121.627C250.253 121.887 250.4 122.123 250.586 122.322C250.772 122.521 250.992 122.679 251.235 122.787C251.477 122.895 251.737 122.95 252 122.95V122.95Z" fill="#4F4F4F"/>
<path d="M263.998 128.137C264.26 128.137 264.519 128.083 264.761 127.979C265.004 127.875 265.224 127.723 265.409 127.531L269.416 123.373C269.79 122.984 270 122.457 270 121.908C270 121.359 269.789 120.832 269.415 120.444C269.04 120.056 268.532 119.838 268.003 119.838C267.474 119.838 266.966 120.057 266.592 120.445L262.585 124.603C262.306 124.893 262.115 125.262 262.038 125.663C261.961 126.065 262.001 126.481 262.152 126.859C262.303 127.237 262.559 127.561 262.887 127.788C263.215 128.016 263.601 128.137 263.996 128.137H263.998Z" fill="#4F4F4F"/>
<path d="M268 139.547C268 140.098 268.196 140.625 268.545 141.014C268.893 141.404 269.366 141.622 269.859 141.622H275.141C275.634 141.622 276.107 141.404 276.455 141.014C276.804 140.625 277 140.098 277 139.547C277 138.997 276.804 138.47 276.455 138.081C276.107 137.691 275.634 137.473 275.141 137.473H269.857C269.365 137.473 268.892 137.692 268.544 138.081C268.196 138.47 268 138.998 268 139.547Z" fill="#4F4F4F"/>
<path d="M264.585 152.603C264.399 152.795 264.252 153.024 264.152 153.275C264.052 153.526 264 153.795 264 154.067C264 154.339 264.052 154.608 264.152 154.859C264.252 155.111 264.399 155.339 264.585 155.531L268.592 159.687C268.966 160.076 269.474 160.294 270.003 160.294C270.532 160.294 271.04 160.076 271.415 159.688C271.789 159.3 272 158.773 272 158.224C272 157.675 271.79 157.148 271.416 156.76L267.409 152.603C267.224 152.411 267.003 152.258 266.761 152.154C266.519 152.049 266.259 151.996 265.997 151.996C265.735 151.996 265.475 152.049 265.232 152.154C264.99 152.258 264.77 152.411 264.585 152.603V152.603Z" fill="#4F4F4F"/>
<path d="M235.59 152.603L231.584 156.76C231.399 156.952 231.252 157.18 231.152 157.432C231.051 157.683 231 157.952 231 158.224C231 158.496 231.052 158.765 231.152 159.017C231.253 159.268 231.4 159.496 231.585 159.688C231.771 159.88 231.991 160.033 232.233 160.137C232.475 160.241 232.735 160.294 232.997 160.294C233.259 160.294 233.519 160.241 233.761 160.136C234.003 160.032 234.223 159.88 234.409 159.687L238.416 155.531C238.79 155.142 239 154.615 239 154.066C239 153.516 238.789 152.99 238.414 152.602C238.039 152.213 237.531 151.995 237.002 151.996C236.472 151.996 235.964 152.215 235.59 152.603Z" fill="#4F4F4F"/>
<path d="M227.859 141.622H233.141C233.634 141.622 234.107 141.404 234.455 141.014C234.804 140.625 235 140.098 235 139.547C235 138.997 234.804 138.47 234.455 138.081C234.107 137.691 233.634 137.473 233.141 137.473H227.859C227.366 137.473 226.893 137.691 226.545 138.081C226.196 138.47 226 138.997 226 139.547C226 140.098 226.196 140.625 226.545 141.014C226.893 141.404 227.366 141.622 227.859 141.622V141.622Z" fill="#4F4F4F"/>
<path d="M237.583 127.528C237.958 127.918 238.467 128.137 238.998 128.137C239.529 128.137 240.038 127.918 240.413 127.529C240.789 127.14 241 126.613 241 126.062C241 125.512 240.789 124.984 240.414 124.595L236.397 120.428C236.021 120.047 235.515 119.835 234.989 119.838C234.463 119.841 233.959 120.059 233.587 120.444C233.215 120.829 233.004 121.351 233 121.897C232.996 122.442 233.199 122.967 233.566 123.358L237.583 127.528Z" fill="#4F4F4F"/>
<path d="M258.021 162.369H244.979C244.454 162.369 243.951 162.588 243.58 162.977C243.208 163.366 243 163.893 243 164.444C243 164.994 243.208 165.522 243.58 165.911C243.951 166.3 244.454 166.518 244.979 166.518H258.021C258.546 166.518 259.049 166.3 259.42 165.911C259.792 165.522 260 164.994 260 164.444C260 163.893 259.792 163.366 259.42 162.977C259.049 162.588 258.546 162.369 258.021 162.369V162.369Z" fill="#4F4F4F"/>
</svg>
