<svg width="186" height="183" viewBox="0 0 186 183" fill="none" xmlns="http://www.w3.org/2000/svg">
<path d="M93.599 0.00200033C96.171 0.93 97.725 2.923 99.235 5.086C108.009 17.667 117.844 29.365 128.462 40.442C137.405 49.774 146.584 58.832 156.505 67.125C164.086 73.462 171.941 79.438 180.091 85.022C181.068 85.691 182.209 86.211 182.984 87.065C186.088 90.489 185.619 94.336 181.662 96.794C169.42 104.404 158.488 113.691 147.772 123.235C128.834 140.103 112.011 158.891 97.312 179.569C95.199 182.544 93.404 183.153 89.889 182.131C88.728 181.793 87.783 181.201 87.158 180.137C83.297 173.568 78.521 167.659 73.777 161.734C53.494 136.396 29.764 114.767 3.161 96.245C1.639 95.185 0.712 93.785 0 92.16C0 91.44 0 90.72 0 90C0.642 88.047 2.033 86.711 3.65 85.559C4.659 84.841 5.65 84.098 6.668 83.393C24.743 70.875 41.053 56.328 56.181 40.41C67.072 28.95 76.996 16.69 86.422 4.017C87.77 2.204 89.251 0.697 91.44 0C92.158 0.002 92.879 0.00200033 93.599 0.00200033ZM161.362 92.024C161.008 90.579 160.897 89.389 160.424 88.367C159.691 86.784 158.831 85.226 157.813 83.811C146.921 68.679 134.748 54.689 120.625 42.465C115.156 37.733 109.683 33.002 104.041 28.482C101.957 26.813 99.488 25.511 97.015 24.467C93.098 22.813 89.277 23.252 85.852 25.979C85.102 26.576 84.307 27.117 83.528 27.676C73.956 34.546 65.257 42.434 56.762 50.566C46.902 60.005 37.542 69.901 29.329 80.826C27.778 82.89 26.433 85.137 25.214 87.417C23.419 90.775 23.976 94.066 26.043 97.14C32.668 106.994 40.284 116.054 48.727 124.369C55.984 131.517 63.528 138.381 71.065 145.238C76.571 150.25 82.458 154.786 89.019 158.384C90.991 159.466 93.053 159.802 95.143 159.103C96.866 158.526 98.622 157.827 100.11 156.808C103.534 154.458 106.896 151.997 110.122 149.382C124.915 137.39 138.331 123.991 150.553 109.392C153.919 105.371 157.221 101.304 159.572 96.581C160.317 95.076 160.812 93.441 161.362 92.024Z" fill="white"/>
<path d="M92.614 27.225C94.491 27.914 96.464 28.273 98.007 29.285C101.405 31.514 104.677 33.964 107.833 36.531C111.272 39.327 114.504 42.38 117.86 45.28C128.696 54.642 138.276 65.196 147.227 76.333C149.88 79.633 152.327 83.1 154.866 86.492C155.081 86.78 155.262 87.094 155.477 87.38C157.431 89.959 157.473 92.459 155.807 95.338C153.001 100.188 149.508 104.48 145.905 108.711C133.534 123.245 119.991 136.573 104.979 148.381C103.032 149.911 101.019 151.363 99.001 152.803C98.093 153.449 97.115 154.004 96.14 154.547C94.106 155.674 92.202 155.709 90.061 154.45C84.029 150.903 78.512 146.681 73.375 141.979C65.857 135.097 58.325 128.218 51.063 121.071C43.216 113.347 36.222 104.864 29.898 95.828C28.017 93.14 27.66 90.515 29.497 87.848C32.077 84.101 34.692 80.36 37.566 76.84C47.249 64.978 58.23 54.371 69.558 44.105C75.614 38.617 82.038 33.604 88.701 28.893C89.789 28.123 91.201 27.811 92.614 27.225ZM109.397 85.52C110.351 85.275 111.186 85.016 112.04 84.853C113.013 84.669 114.093 84.249 114.964 84.498C117.23 85.144 119.402 86.138 121.088 87.874C123.27 90.119 123.2 92.948 120.862 95.041C118.999 96.709 116.808 97.838 114.411 98.598C104.575 101.713 94.536 102.504 84.329 101.223C79.686 100.641 75.098 99.74 70.764 97.877C69.021 97.129 67.412 96.174 66.363 94.502C65.489 93.108 65.124 91.659 66.336 90.316C67.528 88.995 68.669 87.449 70.173 86.628C72.563 85.324 75.228 84.517 77.796 83.55C78.686 83.215 79.631 83.03 80.716 82.731C77.895 80.908 75.298 79.191 72.653 77.553C72.169 77.253 71.442 77.058 70.904 77.173C65.26 78.375 60.229 80.891 55.736 84.489C55.15 84.959 54.622 85.531 54.165 86.13C51.428 89.719 51.43 93.319 55.153 96.451C57.545 98.463 60.303 99.801 63.216 100.834C81.085 107.17 99.087 107.057 117.14 101.754C120.511 100.764 123.719 99.252 126.227 96.617C129.007 93.699 129.225 90.573 126.466 87.689C124.978 86.134 123.001 85.046 121.235 83.76C120.944 83.549 120.601 83.406 120.006 83.078C121.431 82.647 122.528 82.314 123.646 81.975C118.035 80.621 112.443 79.271 106.711 77.888C107.61 80.444 108.476 82.905 109.397 85.52ZM88.76 71.487C88.76 72.25 88.781 72.799 88.757 73.347C88.537 78.217 88.307 83.086 88.084 87.955C87.923 91.468 87.768 94.98 87.611 98.493C87.588 99.006 87.446 99.633 88.251 99.639C90.99 99.659 93.732 99.647 96.652 99.647C96.275 90.18 95.904 80.892 95.527 71.391C98.26 71.391 100.629 71.391 103.092 71.391C99.45 61.392 95.889 51.608 92.288 41.72C88.85 51.659 85.463 61.449 81.99 71.488C84.333 71.487 86.502 71.487 88.76 71.487ZM98.395 135.92C97.954 126.295 97.52 116.827 97.085 107.364C93.708 107.364 90.61 107.364 87.412 107.364C86.994 116.816 86.577 126.254 86.149 135.92C90.251 135.92 94.256 135.92 98.395 135.92Z" fill="white"/>
</svg>
