<svg width="100" height="100" viewBox="0 0 100 100" fill="none" xmlns="http://www.w3.org/2000/svg">
<rect width="100" height="100" fill="#C4C4C4"/>
<path d="M14.1465 50.417C14.1465 51.221 13.9626 51.8688 13.5947 52.3604C13.2269 52.8519 12.7288 53.0977 12.1006 53.0977C11.4593 53.0977 10.9548 52.8942 10.5869 52.4873V55.0312H9.68359V47.7168H10.5088L10.5527 48.3027C10.9206 47.847 11.4316 47.6191 12.0859 47.6191C12.7207 47.6191 13.222 47.8584 13.5898 48.3369C13.9609 48.8154 14.1465 49.4811 14.1465 50.334V50.417ZM13.2432 50.3145C13.2432 49.7188 13.1162 49.2484 12.8623 48.9033C12.6084 48.5583 12.2601 48.3857 11.8174 48.3857C11.2705 48.3857 10.8604 48.6283 10.5869 49.1133V51.6377C10.8571 52.1195 11.2705 52.3604 11.8271 52.3604C12.2601 52.3604 12.6035 52.1895 12.8574 51.8477C13.1146 51.5026 13.2432 50.9915 13.2432 50.3145ZM16.2803 53H15.377V45.5H16.2803V53ZM20.9922 53C20.9401 52.8958 20.8978 52.7103 20.8652 52.4434C20.4453 52.8796 19.944 53.0977 19.3613 53.0977C18.8405 53.0977 18.4124 52.9512 18.0771 52.6582C17.7451 52.362 17.5791 51.9876 17.5791 51.5352C17.5791 50.985 17.7874 50.5586 18.2041 50.2559C18.624 49.9499 19.2132 49.7969 19.9717 49.7969H20.8506V49.3818C20.8506 49.0661 20.7562 48.8154 20.5674 48.6299C20.3786 48.4411 20.1003 48.3467 19.7324 48.3467C19.4102 48.3467 19.14 48.4281 18.9219 48.5908C18.7038 48.7536 18.5947 48.9505 18.5947 49.1816H17.6865C17.6865 48.918 17.7793 48.6641 17.9648 48.4199C18.1536 48.1725 18.4076 47.9772 18.7266 47.834C19.0488 47.6908 19.402 47.6191 19.7861 47.6191C20.3949 47.6191 20.8717 47.7721 21.2168 48.0781C21.5618 48.3809 21.7409 48.7992 21.7539 49.333V51.7646C21.7539 52.2497 21.8158 52.6354 21.9395 52.9219V53H20.9922ZM19.4932 52.3115C19.7764 52.3115 20.0449 52.2383 20.2988 52.0918C20.5527 51.9453 20.7367 51.7549 20.8506 51.5205V50.4365H20.1426C19.0358 50.4365 18.4824 50.7604 18.4824 51.4082C18.4824 51.6914 18.5768 51.9128 18.7656 52.0723C18.9544 52.2318 19.1969 52.3115 19.4932 52.3115ZM25.2891 52.3604C25.6113 52.3604 25.8929 52.2627 26.1338 52.0674C26.3747 51.8721 26.5081 51.6279 26.5342 51.335H27.3887C27.3724 51.6377 27.2682 51.9258 27.0762 52.1992C26.8841 52.4727 26.627 52.6908 26.3047 52.8535C25.9857 53.0163 25.6471 53.0977 25.2891 53.0977C24.5697 53.0977 23.9967 52.8584 23.5703 52.3799C23.1471 51.8981 22.9355 51.2406 22.9355 50.4072V50.2559C22.9355 49.7415 23.0299 49.2842 23.2188 48.8838C23.4076 48.4834 23.6777 48.1725 24.0293 47.9512C24.3841 47.7298 24.8024 47.6191 25.2842 47.6191C25.8766 47.6191 26.3682 47.7965 26.7588 48.1514C27.1527 48.5062 27.3626 48.9668 27.3887 49.5332H26.5342C26.5081 49.1914 26.3779 48.9115 26.1436 48.6934C25.9124 48.472 25.626 48.3613 25.2842 48.3613C24.8252 48.3613 24.4688 48.5273 24.2148 48.8594C23.9642 49.1882 23.8389 49.665 23.8389 50.29V50.4609C23.8389 51.0697 23.9642 51.5384 24.2148 51.8672C24.4655 52.196 24.8236 52.3604 25.2891 52.3604ZM30.5967 53.0977C29.8805 53.0977 29.2979 52.8633 28.8486 52.3945C28.3994 51.9225 28.1748 51.2926 28.1748 50.5049V50.3389C28.1748 49.8148 28.2741 49.3477 28.4727 48.9375C28.6745 48.5241 28.9544 48.2018 29.3125 47.9707C29.6738 47.7363 30.0645 47.6191 30.4844 47.6191C31.1712 47.6191 31.7051 47.8454 32.0859 48.2979C32.4668 48.7503 32.6572 49.3981 32.6572 50.2412V50.6172H29.0781C29.0911 51.138 29.2425 51.5596 29.5322 51.8818C29.8252 52.2008 30.1963 52.3604 30.6455 52.3604C30.9645 52.3604 31.2347 52.2952 31.4561 52.165C31.6774 52.0348 31.8711 51.8623 32.0371 51.6475L32.5889 52.0771C32.1462 52.7575 31.4821 53.0977 30.5967 53.0977ZM30.4844 48.3613C30.1198 48.3613 29.8138 48.4948 29.5664 48.7617C29.319 49.0254 29.166 49.3965 29.1074 49.875H31.7539V49.8066C31.7279 49.3477 31.6042 48.9928 31.3828 48.7422C31.1615 48.4883 30.862 48.3613 30.4844 48.3613ZM34.6104 48.3564C35.0107 47.8649 35.5316 47.6191 36.1729 47.6191C37.2894 47.6191 37.8525 48.249 37.8623 49.5088V53H36.959V49.5039C36.9557 49.123 36.8678 48.8415 36.6953 48.6592C36.526 48.4769 36.2607 48.3857 35.8994 48.3857C35.6064 48.3857 35.3493 48.4639 35.1279 48.6201C34.9066 48.7764 34.734 48.9814 34.6104 49.2354V53H33.707V45.5H34.6104V48.3564ZM38.9756 50.3096C38.9756 49.792 39.0765 49.3265 39.2783 48.9131C39.4834 48.4997 39.7666 48.1807 40.1279 47.9561C40.4925 47.7314 40.9076 47.6191 41.373 47.6191C42.0924 47.6191 42.6735 47.8682 43.1162 48.3662C43.5622 48.8643 43.7852 49.5267 43.7852 50.3535V50.417C43.7852 50.9313 43.6859 51.3936 43.4873 51.8037C43.292 52.2106 43.0104 52.528 42.6426 52.7559C42.278 52.9837 41.8581 53.0977 41.3828 53.0977C40.6667 53.0977 40.0856 52.8486 39.6396 52.3506C39.1969 51.8525 38.9756 51.1934 38.9756 50.373V50.3096ZM39.8838 50.417C39.8838 51.0029 40.0189 51.4733 40.2891 51.8281C40.5625 52.1829 40.9271 52.3604 41.3828 52.3604C41.8418 52.3604 42.2064 52.1813 42.4766 51.8232C42.7467 51.4619 42.8818 50.9574 42.8818 50.3096C42.8818 49.7301 42.7435 49.2614 42.4668 48.9033C42.1934 48.542 41.8288 48.3613 41.373 48.3613C40.9271 48.3613 40.5674 48.5387 40.2939 48.8936C40.0205 49.2484 39.8838 49.7562 39.8838 50.417ZM45.8994 53H44.9961V45.5H45.8994V53ZM47.1299 50.3145C47.1299 49.5039 47.3219 48.8529 47.7061 48.3613C48.0902 47.8665 48.5931 47.6191 49.2148 47.6191C49.8333 47.6191 50.3232 47.8307 50.6846 48.2539V45.5H51.5879V53H50.7578L50.7139 52.4336C50.3525 52.8763 49.8496 53.0977 49.2051 53.0977C48.5931 53.0977 48.0934 52.847 47.7061 52.3457C47.3219 51.8444 47.1299 51.1901 47.1299 50.3828V50.3145ZM48.0332 50.417C48.0332 51.016 48.1569 51.4847 48.4043 51.8232C48.6517 52.1618 48.9935 52.3311 49.4297 52.3311C50.0026 52.3311 50.4209 52.0739 50.6846 51.5596V49.1328C50.4144 48.6348 49.9993 48.3857 49.4395 48.3857C48.9967 48.3857 48.6517 48.5566 48.4043 48.8984C48.1569 49.2402 48.0332 49.7464 48.0332 50.417ZM55.1865 53.0977C54.4704 53.0977 53.8877 52.8633 53.4385 52.3945C52.9893 51.9225 52.7646 51.2926 52.7646 50.5049V50.3389C52.7646 49.8148 52.8639 49.3477 53.0625 48.9375C53.2643 48.5241 53.5443 48.2018 53.9023 47.9707C54.2637 47.7363 54.6543 47.6191 55.0742 47.6191C55.7611 47.6191 56.2949 47.8454 56.6758 48.2979C57.0566 48.7503 57.2471 49.3981 57.2471 50.2412V50.6172H53.668C53.681 51.138 53.8324 51.5596 54.1221 51.8818C54.415 52.2008 54.7861 52.3604 55.2354 52.3604C55.5544 52.3604 55.8245 52.2952 56.0459 52.165C56.2673 52.0348 56.4609 51.8623 56.627 51.6475L57.1787 52.0771C56.736 52.7575 56.0719 53.0977 55.1865 53.0977ZM55.0742 48.3613C54.7096 48.3613 54.4036 48.4948 54.1562 48.7617C53.9089 49.0254 53.7559 49.3965 53.6973 49.875H56.3438V49.8066C56.3177 49.3477 56.194 48.9928 55.9727 48.7422C55.7513 48.4883 55.4518 48.3613 55.0742 48.3613ZM60.8506 48.5273C60.7139 48.5046 60.5658 48.4932 60.4062 48.4932C59.8138 48.4932 59.4118 48.7454 59.2002 49.25V53H58.2969V47.7168H59.1758L59.1904 48.3271C59.4867 47.8551 59.9066 47.6191 60.4502 47.6191C60.626 47.6191 60.7594 47.6419 60.8506 47.6875V48.5273ZM65.1475 53H64.2441V47.7168H65.1475V53ZM64.1709 46.3154C64.1709 46.1689 64.2148 46.0452 64.3027 45.9443C64.3939 45.8434 64.5273 45.793 64.7031 45.793C64.8789 45.793 65.0124 45.8434 65.1035 45.9443C65.1947 46.0452 65.2402 46.1689 65.2402 46.3154C65.2402 46.4619 65.1947 46.584 65.1035 46.6816C65.0124 46.7793 64.8789 46.8281 64.7031 46.8281C64.5273 46.8281 64.3939 46.7793 64.3027 46.6816C64.2148 46.584 64.1709 46.4619 64.1709 46.3154ZM67.4473 47.7168L67.4717 48.3027C67.859 47.847 68.3815 47.6191 69.0391 47.6191C69.778 47.6191 70.2809 47.9023 70.5479 48.4688C70.7236 48.2148 70.9515 48.0098 71.2314 47.8535C71.5146 47.6973 71.8483 47.6191 72.2324 47.6191C73.3913 47.6191 73.9805 48.2327 74 49.46V53H73.0967V49.5137C73.0967 49.1361 73.0104 48.8545 72.8379 48.6689C72.6654 48.4801 72.3757 48.3857 71.9688 48.3857C71.6335 48.3857 71.3551 48.4867 71.1338 48.6885C70.9124 48.887 70.7839 49.1556 70.748 49.4941V53H69.8398V49.5381C69.8398 48.7699 69.4639 48.3857 68.7119 48.3857C68.1195 48.3857 67.7142 48.638 67.4961 49.1426V53H66.5928V47.7168H67.4473ZM78.6289 53C78.5768 52.8958 78.5345 52.7103 78.502 52.4434C78.082 52.8796 77.5807 53.0977 76.998 53.0977C76.4772 53.0977 76.0492 52.9512 75.7139 52.6582C75.3818 52.362 75.2158 51.9876 75.2158 51.5352C75.2158 50.985 75.4242 50.5586 75.8408 50.2559C76.2607 49.9499 76.8499 49.7969 77.6084 49.7969H78.4873V49.3818C78.4873 49.0661 78.3929 48.8154 78.2041 48.6299C78.0153 48.4411 77.737 48.3467 77.3691 48.3467C77.0469 48.3467 76.7767 48.4281 76.5586 48.5908C76.3405 48.7536 76.2314 48.9505 76.2314 49.1816H75.3232C75.3232 48.918 75.416 48.6641 75.6016 48.4199C75.7904 48.1725 76.0443 47.9772 76.3633 47.834C76.6855 47.6908 77.0387 47.6191 77.4229 47.6191C78.0316 47.6191 78.5085 47.7721 78.8535 48.0781C79.1986 48.3809 79.3776 48.7992 79.3906 49.333V51.7646C79.3906 52.2497 79.4525 52.6354 79.5762 52.9219V53H78.6289ZM77.1299 52.3115C77.4131 52.3115 77.6816 52.2383 77.9355 52.0918C78.1895 51.9453 78.3734 51.7549 78.4873 51.5205V50.4365H77.7793C76.6725 50.4365 76.1191 50.7604 76.1191 51.4082C76.1191 51.6914 76.2135 51.9128 76.4023 52.0723C76.5911 52.2318 76.8337 52.3115 77.1299 52.3115ZM80.5918 50.3145C80.5918 49.4909 80.7822 48.8366 81.1631 48.3516C81.5439 47.8633 82.0485 47.6191 82.6768 47.6191C83.3213 47.6191 83.8242 47.847 84.1855 48.3027L84.2295 47.7168H85.0547V52.873C85.0547 53.5566 84.8512 54.0954 84.4443 54.4893C84.0407 54.8831 83.4971 55.0801 82.8135 55.0801C82.4326 55.0801 82.0599 54.9987 81.6953 54.8359C81.3307 54.6732 81.0524 54.4502 80.8604 54.167L81.3291 53.625C81.7165 54.1035 82.1901 54.3428 82.75 54.3428C83.1895 54.3428 83.5312 54.2191 83.7754 53.9717C84.0228 53.7243 84.1465 53.376 84.1465 52.9268V52.4727C83.7852 52.8893 83.292 53.0977 82.667 53.0977C82.0485 53.0977 81.5472 52.8486 81.1631 52.3506C80.7822 51.8525 80.5918 51.1738 80.5918 50.3145ZM81.5 50.417C81.5 51.0127 81.6221 51.4814 81.8662 51.8232C82.1104 52.1618 82.4521 52.3311 82.8916 52.3311C83.4613 52.3311 83.8796 52.0723 84.1465 51.5547V49.1426C83.8698 48.638 83.4548 48.3857 82.9014 48.3857C82.4619 48.3857 82.1185 48.5566 81.8711 48.8984C81.6237 49.2402 81.5 49.7464 81.5 50.417ZM88.6143 53.0977C87.8981 53.0977 87.3154 52.8633 86.8662 52.3945C86.417 51.9225 86.1924 51.2926 86.1924 50.5049V50.3389C86.1924 49.8148 86.2917 49.3477 86.4902 48.9375C86.6921 48.5241 86.972 48.2018 87.3301 47.9707C87.6914 47.7363 88.082 47.6191 88.502 47.6191C89.1888 47.6191 89.7227 47.8454 90.1035 48.2979C90.4844 48.7503 90.6748 49.3981 90.6748 50.2412V50.6172H87.0957C87.1087 51.138 87.2601 51.5596 87.5498 51.8818C87.8428 52.2008 88.2139 52.3604 88.6631 52.3604C88.9821 52.3604 89.2523 52.2952 89.4736 52.165C89.695 52.0348 89.8887 51.8623 90.0547 51.6475L90.6064 52.0771C90.1637 52.7575 89.4997 53.0977 88.6143 53.0977ZM88.502 48.3613C88.1374 48.3613 87.8314 48.4948 87.584 48.7617C87.3366 49.0254 87.1836 49.3965 87.125 49.875H89.7715V49.8066C89.7454 49.3477 89.6217 48.9928 89.4004 48.7422C89.179 48.4883 88.8796 48.3613 88.502 48.3613Z" fill="#FBFBFB"/>
</svg>
