<svg xmlns="http://www.w3.org/2000/svg" viewBox="0 0 977.23 977.23"><defs><style>.cls-1,.cls-10,.cls-11,.cls-12,.cls-13,.cls-14,.cls-15,.cls-16,.cls-17,.cls-18,.cls-19,.cls-2,.cls-20,.cls-21,.cls-22,.cls-23,.cls-24,.cls-25,.cls-26,.cls-27,.cls-28,.cls-29,.cls-3,.cls-30,.cls-31,.cls-32,.cls-33,.cls-4,.cls-5,.cls-6,.cls-7,.cls-8,.cls-9{fill:none;stroke:#88b5d8;stroke-miterlimit:10;}.cls-1{stroke-width:1.95px;}.cls-2{stroke-width:1.92px;}.cls-3{stroke-width:1.88px;}.cls-4{stroke-width:1.84px;}.cls-5{stroke-width:1.81px;}.cls-6{stroke-width:1.77px;}.cls-7{stroke-width:1.74px;}.cls-8{stroke-width:1.7px;}.cls-9{stroke-width:1.67px;}.cls-10{stroke-width:1.64px;}.cls-11{stroke-width:1.6px;}.cls-12{stroke-width:1.57px;}.cls-13{stroke-width:1.54px;}.cls-14{stroke-width:1.51px;}.cls-15{stroke-width:1.48px;}.cls-16{stroke-width:1.45px;}.cls-17{stroke-width:1.42px;}.cls-18{stroke-width:1.4px;}.cls-19{stroke-width:1.37px;}.cls-20{stroke-width:1.34px;}.cls-21{stroke-width:1.32px;}.cls-22{stroke-width:1.29px;}.cls-23{stroke-width:1.26px;}.cls-24{stroke-width:1.24px;}.cls-25{stroke-width:1.22px;}.cls-26{stroke-width:1.19px;}.cls-27{stroke-width:1.17px;}.cls-28{stroke-width:1.15px;}.cls-29{stroke-width:1.12px;}.cls-30{stroke-width:1.1px;}.cls-31{stroke-width:1.08px;}.cls-32{stroke-width:1.06px;}.cls-33{stroke-width:1.04px;}</style></defs><title>rectangle_turtle1</title><g id="Layer_2" data-name="Layer 2"><g id="Layer_4" data-name="Layer 4"><g id="_Group_" data-name="&lt;Group&gt;"><g id="_Group_2" data-name="&lt;Group&gt;"><rect id="_Path_" data-name="&lt;Path&gt;" class="cls-1" x="135" y="135" width="707.23" height="707.23" transform="translate(-184.68 333.17) rotate(-32)"/></g><g id="_Group_3" data-name="&lt;Group&gt;"><rect id="_Path_2" data-name="&lt;Path&gt;" class="cls-2" x="141.93" y="141.93" width="693.36" height="693.36" transform="translate(-103.69 844.51) rotate(-76)"/></g><g id="_Group_4" data-name="&lt;Group&gt;"><rect id="_Path_3" data-name="&lt;Path&gt;" class="cls-3" x="148.73" y="148.73" width="679.77" height="679.77" transform="translate(-178.85 309.77) rotate(-30)"/></g><g id="_Group_5" data-name="&lt;Group&gt;"><rect id="_Path_4" data-name="&lt;Path&gt;" class="cls-4" x="155.4" y="155.4" width="666.44" height="666.44" transform="translate(-115.75 823.62) rotate(-74)"/></g><g id="_Group_6" data-name="&lt;Group&gt;"><rect id="_Path_5" data-name="&lt;Path&gt;" class="cls-5" x="161.93" y="161.93" width="653.37" height="653.37" transform="translate(-172.2 286.58) rotate(-28)"/></g><g id="_Group_7" data-name="&lt;Group&gt;"><rect id="_Path_6" data-name="&lt;Path&gt;" class="cls-6" x="168.34" y="168.34" width="640.56" height="640.56" transform="translate(-127.08 802.33) rotate(-72)"/></g><g id="_Group_8" data-name="&lt;Group&gt;"><rect id="_Path_7" data-name="&lt;Path&gt;" class="cls-7" x="174.62" y="174.62" width="628" height="628" transform="translate(-164.74 263.65) rotate(-26)"/></g><g id="_Group_9" data-name="&lt;Group&gt;"><rect id="_Path_8" data-name="&lt;Path&gt;" class="cls-8" x="180.77" y="180.77" width="615.69" height="615.69" transform="translate(-137.65 780.65) rotate(-70)"/></g><g id="_Group_10" data-name="&lt;Group&gt;"><rect id="_Path_9" data-name="&lt;Path&gt;" class="cls-9" x="186.81" y="186.81" width="603.61" height="603.61" transform="translate(-156.49 240.98) rotate(-24)"/></g><g id="_Group_11" data-name="&lt;Group&gt;"><rect id="_Path_10" data-name="&lt;Path&gt;" class="cls-10" x="192.73" y="192.73" width="591.78" height="591.78" transform="translate(-147.46 758.61) rotate(-68)"/></g><g id="_Group_12" data-name="&lt;Group&gt;"><rect id="_Path_11" data-name="&lt;Path&gt;" class="cls-11" x="198.53" y="198.53" width="580.17" height="580.17" transform="translate(-147.46 218.62) rotate(-22)"/></g><g id="_Group_13" data-name="&lt;Group&gt;"><rect id="_Path_12" data-name="&lt;Path&gt;" class="cls-12" x="204.22" y="204.22" width="568.8" height="568.8" transform="translate(-156.49 736.25) rotate(-66)"/></g><g id="_Group_14" data-name="&lt;Group&gt;"><rect id="_Path_13" data-name="&lt;Path&gt;" class="cls-13" x="209.79" y="209.79" width="557.65" height="557.65" transform="translate(-137.65 196.58) rotate(-20)"/></g><g id="_Group_15" data-name="&lt;Group&gt;"><rect id="_Path_14" data-name="&lt;Path&gt;" class="cls-14" x="215.26" y="215.26" width="546.71" height="546.71" transform="translate(-164.74 713.59) rotate(-64)"/></g><g id="_Group_16" data-name="&lt;Group&gt;"><rect id="_Path_15" data-name="&lt;Path&gt;" class="cls-15" x="220.62" y="220.62" width="535.99" height="535.99" transform="translate(-127.08 174.91) rotate(-18)"/></g><g id="_Group_17" data-name="&lt;Group&gt;"><rect id="_Path_16" data-name="&lt;Path&gt;" class="cls-16" x="225.88" y="225.88" width="525.48" height="525.48" transform="translate(-172.2 690.65) rotate(-62)"/></g><g id="_Group_18" data-name="&lt;Group&gt;"><rect id="_Path_17" data-name="&lt;Path&gt;" class="cls-17" x="231.03" y="231.03" width="515.18" height="515.18" transform="translate(-115.75 153.61) rotate(-16)"/></g><g id="_Group_19" data-name="&lt;Group&gt;"><rect id="_Path_18" data-name="&lt;Path&gt;" class="cls-18" x="236.08" y="236.08" width="505.08" height="505.08" transform="translate(-178.85 667.46) rotate(-60)"/></g><g id="_Group_20" data-name="&lt;Group&gt;"><rect id="_Path_19" data-name="&lt;Path&gt;" class="cls-19" x="241.03" y="241.03" width="495.17" height="495.17" transform="translate(-103.69 132.72) rotate(-14)"/></g><g id="_Group_21" data-name="&lt;Group&gt;"><rect id="_Path_20" data-name="&lt;Path&gt;" class="cls-20" x="245.88" y="245.88" width="485.46" height="485.46" transform="translate(-184.68 644.06) rotate(-58)"/></g><g id="_Group_22" data-name="&lt;Group&gt;"><rect id="_Path_21" data-name="&lt;Path&gt;" class="cls-21" x="250.64" y="250.64" width="475.94" height="475.94" transform="translate(-90.91 112.27) rotate(-12)"/></g><g id="_Group_23" data-name="&lt;Group&gt;"><rect id="_Path_22" data-name="&lt;Path&gt;" class="cls-22" x="255.31" y="255.31" width="466.61" height="466.61" transform="translate(-189.7 620.47) rotate(-56)"/></g><g id="_Group_24" data-name="&lt;Group&gt;"><rect id="_Path_23" data-name="&lt;Path&gt;" class="cls-23" x="259.88" y="259.88" width="457.46" height="457.46" transform="translate(-77.42 92.27) rotate(-10)"/></g><g id="_Group_25" data-name="&lt;Group&gt;"><rect id="_Path_24" data-name="&lt;Path&gt;" class="cls-24" x="264.37" y="264.37" width="448.49" height="448.49" transform="translate(-193.88 596.71) rotate(-54)"/></g><g id="_Group_26" data-name="&lt;Group&gt;"><rect id="_Path_25" data-name="&lt;Path&gt;" class="cls-25" x="268.77" y="268.77" width="439.7" height="439.7" transform="translate(-63.25 72.76) rotate(-8)"/></g><g id="_Group_27" data-name="&lt;Group&gt;"><rect id="_Path_26" data-name="&lt;Path&gt;" class="cls-26" x="273.08" y="273.08" width="431.08" height="431.08" transform="translate(-197.24 572.83) rotate(-52)"/></g><g id="_Group_28" data-name="&lt;Group&gt;"><rect id="_Path_27" data-name="&lt;Path&gt;" class="cls-27" x="277.3" y="277.3" width="422.63" height="422.63" transform="translate(-48.4 53.75) rotate(-6)"/></g><g id="_Group_29" data-name="&lt;Group&gt;"><rect id="_Path_28" data-name="&lt;Path&gt;" class="cls-28" x="281.45" y="281.45" width="414.34" height="414.34" transform="translate(-199.76 548.84) rotate(-50)"/></g><g id="_Group_30" data-name="&lt;Group&gt;"><rect id="_Path_29" data-name="&lt;Path&gt;" class="cls-29" x="285.51" y="285.51" width="406.21" height="406.21" transform="translate(-32.89 35.27) rotate(-4)"/></g><g id="_Group_31" data-name="&lt;Group&gt;"><rect id="_Path_30" data-name="&lt;Path&gt;" class="cls-30" x="289.49" y="289.49" width="398.25" height="398.25" transform="translate(-201.44 524.78) rotate(-48)"/></g><g id="_Group_32" data-name="&lt;Group&gt;"><rect id="_Path_31" data-name="&lt;Path&gt;" class="cls-31" x="293.4" y="293.4" width="390.44" height="390.44" transform="translate(-16.75 17.35) rotate(-2)"/></g><g id="_Group_33" data-name="&lt;Group&gt;"><rect id="_Path_32" data-name="&lt;Path&gt;" class="cls-32" x="297.22" y="297.22" width="382.78" height="382.78" transform="translate(-202.29 500.68) rotate(-46)"/></g><g id="_Group_34" data-name="&lt;Group&gt;"><rect id="_Path_33" data-name="&lt;Path&gt;" class="cls-33" x="300.98" y="300.98" width="375.28" height="375.28"/></g></g></g></g></svg>